<svg width="960" height="205" viewBox="0 0 960 205" fill="none" xmlns="http://www.w3.org/2000/svg">
<g clip-path="url(#clip0_265_884)">
<path d="M39.3717 89.8674C36.7006 100.582 25.8487 107.102 15.133 104.431C4.42183 101.759 -2.09874 90.9068 0.57358 80.1932C3.24355 69.4777 14.0955 62.9566 24.8078 65.6278C35.5227 68.2989 42.0429 79.1527 39.3714 89.8676L39.3716 89.8674H39.3717Z" fill="#F7931A"/>
<path d="M28.8192 82.1506C29.2173 79.489 27.191 78.0583 24.4201 77.1039L25.319 73.4986L23.1243 72.9517L22.2493 76.4621C21.6723 76.3182 21.0798 76.1826 20.4909 76.0482L21.3723 72.5146L19.179 71.9678L18.2796 75.5719C17.8022 75.4632 17.3332 75.3558 16.8782 75.2426L16.8808 75.2312L13.8543 74.4755L13.2705 76.8195C13.2705 76.8195 14.8987 77.1928 14.8644 77.2157C15.7532 77.4375 15.9139 78.0258 15.8872 78.4922L14.8633 82.5995C14.9245 82.615 15.0038 82.6375 15.0914 82.6727C15.0182 82.6545 14.9403 82.6347 14.8594 82.6153L13.4243 88.3691C13.3156 88.6391 13.04 89.0443 12.4186 88.8904C12.4406 88.9223 10.8235 88.4923 10.8235 88.4923L9.73389 91.0045L12.5899 91.7165C13.1212 91.8497 13.6419 91.9891 14.1546 92.1202L13.2464 95.7669L15.4386 96.3138L16.3379 92.7058C16.9368 92.8684 17.518 93.0183 18.0869 93.1597L17.1906 96.7506L19.3854 97.2975L20.2934 93.6577C24.0358 94.3659 26.8498 94.0804 28.0342 90.6954C28.9886 87.9701 27.9867 86.3981 26.0179 85.3731C27.4519 85.0423 28.532 84.0992 28.82 82.1509L28.8193 82.1504L28.8192 82.1506ZM23.8049 89.1819C23.1267 91.9072 18.5381 90.434 17.0504 90.0646L18.2556 85.2334C19.7432 85.6047 24.5137 86.3397 23.805 89.1819H23.8049ZM24.4836 82.1111C23.8649 84.59 20.0458 83.3306 18.8069 83.0218L19.8996 78.6402C21.1385 78.949 25.1282 79.5254 24.4838 82.1111H24.4836Z" fill="white"/>
</g>
<path d="M7.20075 134V122.8H11.4248C12.5074 122.8 13.3101 123.032 13.8328 123.496C14.3608 123.955 14.6248 124.624 14.6248 125.504C14.6248 126.16 14.4754 126.709 14.1768 127.152C13.8834 127.589 13.4408 127.909 12.8488 128.112V127.728C13.7448 127.92 14.4141 128.272 14.8568 128.784C15.2994 129.296 15.5208 129.973 15.5208 130.816C15.5208 131.824 15.1954 132.608 14.5448 133.168C13.8941 133.723 13.0034 134 11.8728 134H7.20075ZM9.24875 132.176H11.5688C12.1288 132.176 12.5741 132.061 12.9048 131.832C13.2408 131.603 13.4088 131.189 13.4088 130.592C13.4088 129.984 13.2328 129.571 12.8808 129.352C12.5288 129.133 12.0914 129.024 11.5688 129.024H9.24875V132.176ZM9.24875 127.2H11.1208C11.6168 127.2 11.9874 127.099 12.2328 126.896C12.4834 126.693 12.6088 126.368 12.6088 125.92C12.6088 125.456 12.4834 125.125 12.2328 124.928C11.9874 124.725 11.6168 124.624 11.1208 124.624H9.24875V127.2ZM19.0486 134V124.784H15.8806V122.8H24.2646V124.784H21.0966V134H19.0486ZM30.5853 134.224C29.4493 134.224 28.4493 133.984 27.5853 133.504C26.7213 133.019 26.0466 132.341 25.5613 131.472C25.0813 130.597 24.8413 129.573 24.8413 128.4C24.8413 127.227 25.0893 126.205 25.5853 125.336C26.0866 124.461 26.7746 123.784 27.6493 123.304C28.5239 122.819 29.5239 122.576 30.6493 122.576C31.2413 122.576 31.7826 122.64 32.2733 122.768C32.7639 122.891 33.1879 123.045 33.5453 123.232L33.3212 125.184C32.9159 124.997 32.4973 124.845 32.0653 124.728C31.6386 124.605 31.1613 124.544 30.6333 124.544C29.8493 124.544 29.1933 124.709 28.6653 125.04C28.1426 125.371 27.7479 125.827 27.4813 126.408C27.2146 126.989 27.0813 127.653 27.0813 128.4C27.0813 129.147 27.2119 129.811 27.4733 130.392C27.7346 130.973 28.1239 131.429 28.6413 131.76C29.1639 132.091 29.8119 132.256 30.5853 132.256C31.1239 132.256 31.6066 132.197 32.0333 132.08C32.4599 131.963 32.8893 131.808 33.3212 131.616L33.5453 133.568C33.1239 133.765 32.6599 133.923 32.1533 134.04C31.6519 134.163 31.1293 134.224 30.5853 134.224Z" fill="white"/>
<path d="M65.7472 15V12.828H61.6072L66.0712 6.6H66.8992V11.856H67.9792V12.828H66.8992V15H65.7472ZM63.2872 12.18L63.0832 11.856H65.7472V8.1L65.9512 8.436L63.2872 12.18ZM72.4927 15.168C71.7527 15.168 71.1187 14.978 70.5907 14.598C70.0627 14.218 69.6567 13.694 69.3727 13.026C69.0927 12.358 68.9527 11.592 68.9527 10.728C68.9527 9.864 69.1027 9.11 69.4027 8.466C69.7027 7.822 70.1187 7.322 70.6507 6.966C71.1827 6.61 71.7967 6.432 72.4927 6.432C73.2047 6.432 73.8247 6.61 74.3527 6.966C74.8847 7.322 75.2967 7.822 75.5887 8.466C75.8847 9.11 76.0327 9.864 76.0327 10.728C76.0327 11.592 75.8927 12.358 75.6127 13.026C75.3327 13.694 74.9287 14.218 74.4007 14.598C73.8727 14.978 73.2367 15.168 72.4927 15.168ZM72.4927 14.136C72.9887 14.136 73.4087 14.004 73.7527 13.74C74.1007 13.476 74.3647 13.09 74.5447 12.582C74.7287 12.074 74.8207 11.456 74.8207 10.728C74.8207 9.636 74.6087 8.82 74.1847 8.28C73.7647 7.736 73.2007 7.464 72.4927 7.464C71.8207 7.464 71.2647 7.736 70.8247 8.28C70.3847 8.82 70.1647 9.636 70.1647 10.728C70.1647 11.456 70.2547 12.074 70.4347 12.582C70.6187 13.09 70.8827 13.476 71.2267 13.74C71.5747 14.004 71.9967 14.136 72.4927 14.136ZM77.8407 16.284H77.1567L77.5887 15H77.1687V13.728H78.4647V14.88L77.8407 16.284ZM83.0513 15.168C82.3113 15.168 81.6773 14.978 81.1493 14.598C80.6213 14.218 80.2153 13.694 79.9313 13.026C79.6513 12.358 79.5113 11.592 79.5113 10.728C79.5113 9.864 79.6613 9.11 79.9613 8.466C80.2613 7.822 80.6773 7.322 81.2093 6.966C81.7413 6.61 82.3553 6.432 83.0513 6.432C83.7633 6.432 84.3833 6.61 84.9113 6.966C85.4433 7.322 85.8553 7.822 86.1473 8.466C86.4433 9.11 86.5913 9.864 86.5913 10.728C86.5913 11.592 86.4513 12.358 86.1713 13.026C85.8913 13.694 85.4873 14.218 84.9593 14.598C84.4313 14.978 83.7953 15.168 83.0513 15.168ZM83.0513 14.136C83.5473 14.136 83.9673 14.004 84.3113 13.74C84.6593 13.476 84.9233 13.09 85.1033 12.582C85.2873 12.074 85.3793 11.456 85.3793 10.728C85.3793 9.636 85.1673 8.82 84.7433 8.28C84.3233 7.736 83.7593 7.464 83.0513 7.464C82.3793 7.464 81.8233 7.736 81.3833 8.28C80.9433 8.82 80.7233 9.636 80.7233 10.728C80.7233 11.456 80.8133 12.074 80.9933 12.582C81.1773 13.09 81.4413 13.476 81.7853 13.74C82.1333 14.004 82.5553 14.136 83.0513 14.136ZM91.4302 15.168C90.6902 15.168 90.0562 14.978 89.5282 14.598C89.0002 14.218 88.5942 13.694 88.3102 13.026C88.0302 12.358 87.8902 11.592 87.8902 10.728C87.8902 9.864 88.0402 9.11 88.3402 8.466C88.6402 7.822 89.0562 7.322 89.5882 6.966C90.1202 6.61 90.7342 6.432 91.4302 6.432C92.1422 6.432 92.7622 6.61 93.2902 6.966C93.8222 7.322 94.2342 7.822 94.5262 8.466C94.8222 9.11 94.9702 9.864 94.9702 10.728C94.9702 11.592 94.8302 12.358 94.5502 13.026C94.2702 13.694 93.8662 14.218 93.3382 14.598C92.8102 14.978 92.1742 15.168 91.4302 15.168ZM91.4302 14.136C91.9262 14.136 92.3462 14.004 92.6902 13.74C93.0382 13.476 93.3022 13.09 93.4822 12.582C93.6662 12.074 93.7582 11.456 93.7582 10.728C93.7582 9.636 93.5462 8.82 93.1222 8.28C92.7022 7.736 92.1382 7.464 91.4302 7.464C90.7582 7.464 90.2022 7.736 89.7622 8.28C89.3222 8.82 89.1022 9.636 89.1022 10.728C89.1022 11.456 89.1922 12.074 89.3722 12.582C89.5562 13.09 89.8202 13.476 90.1642 13.74C90.5122 14.004 90.9342 14.136 91.4302 14.136ZM99.8091 15.168C99.0691 15.168 98.4351 14.978 97.9071 14.598C97.3791 14.218 96.9731 13.694 96.6891 13.026C96.4091 12.358 96.2691 11.592 96.2691 10.728C96.2691 9.864 96.4191 9.11 96.7191 8.466C97.0191 7.822 97.4351 7.322 97.9671 6.966C98.4991 6.61 99.1131 6.432 99.8091 6.432C100.521 6.432 101.141 6.61 101.669 6.966C102.201 7.322 102.613 7.822 102.905 8.466C103.201 9.11 103.349 9.864 103.349 10.728C103.349 11.592 103.209 12.358 102.929 13.026C102.649 13.694 102.245 14.218 101.717 14.598C101.189 14.978 100.553 15.168 99.8091 15.168ZM99.8091 14.136C100.305 14.136 100.725 14.004 101.069 13.74C101.417 13.476 101.681 13.09 101.861 12.582C102.045 12.074 102.137 11.456 102.137 10.728C102.137 9.636 101.925 8.82 101.501 8.28C101.081 7.736 100.517 7.464 99.8091 7.464C99.1371 7.464 98.5811 7.736 98.1411 8.28C97.7011 8.82 97.4811 9.636 97.4811 10.728C97.4811 11.456 97.5711 12.074 97.7511 12.582C97.9351 13.09 98.1991 13.476 98.5431 13.74C98.8911 14.004 99.3131 14.136 99.8091 14.136Z" fill="white"/>
<path d="M64.6925 80.168C64.2325 80.168 63.8025 80.108 63.4025 79.988C63.0065 79.868 62.6365 79.716 62.2925 79.532L62.5685 78.476C62.9125 78.672 63.2505 78.832 63.5825 78.956C63.9185 79.076 64.2925 79.136 64.7045 79.136C65.2285 79.136 65.6365 79.006 65.9285 78.746C66.2245 78.482 66.3725 78.144 66.3725 77.732C66.3725 77.268 66.2125 76.896 65.8925 76.616C65.5725 76.336 65.0725 76.196 64.3925 76.196H63.8645V75.164H64.3925C64.9085 75.164 65.3165 75.042 65.6165 74.798C65.9205 74.554 66.0725 74.22 66.0725 73.796C66.0725 73.344 65.9565 73.01 65.7245 72.794C65.4925 72.574 65.1605 72.464 64.7285 72.464C64.3885 72.464 64.0705 72.53 63.7745 72.662C63.4785 72.794 63.1885 72.956 62.9045 73.148L62.7125 71.984C63.0205 71.808 63.3525 71.672 63.7085 71.576C64.0685 71.48 64.4605 71.432 64.8845 71.432C65.4045 71.432 65.8445 71.526 66.2045 71.714C66.5685 71.902 66.8445 72.164 67.0325 72.5C67.2245 72.832 67.3205 73.216 67.3205 73.652C67.3205 74.196 67.1605 74.656 66.8405 75.032C66.5245 75.404 66.0965 75.648 65.5565 75.764V75.488C66.1925 75.612 66.6885 75.854 67.0445 76.214C67.4045 76.57 67.5845 77.064 67.5845 77.696C67.5845 78.208 67.4565 78.65 67.2005 79.022C66.9485 79.39 66.6045 79.674 66.1685 79.874C65.7325 80.07 65.2405 80.168 64.6925 80.168ZM72.4927 80.168C71.7527 80.168 71.1187 79.978 70.5907 79.598C70.0627 79.218 69.6567 78.694 69.3727 78.026C69.0927 77.358 68.9527 76.592 68.9527 75.728C68.9527 74.864 69.1027 74.11 69.4027 73.466C69.7027 72.822 70.1187 72.322 70.6507 71.966C71.1827 71.61 71.7967 71.432 72.4927 71.432C73.2047 71.432 73.8247 71.61 74.3527 71.966C74.8847 72.322 75.2967 72.822 75.5887 73.466C75.8847 74.11 76.0327 74.864 76.0327 75.728C76.0327 76.592 75.8927 77.358 75.6127 78.026C75.3327 78.694 74.9287 79.218 74.4007 79.598C73.8727 79.978 73.2367 80.168 72.4927 80.168ZM72.4927 79.136C72.9887 79.136 73.4087 79.004 73.7527 78.74C74.1007 78.476 74.3647 78.09 74.5447 77.582C74.7287 77.074 74.8207 76.456 74.8207 75.728C74.8207 74.636 74.6087 73.82 74.1847 73.28C73.7647 72.736 73.2007 72.464 72.4927 72.464C71.8207 72.464 71.2647 72.736 70.8247 73.28C70.3847 73.82 70.1647 74.636 70.1647 75.728C70.1647 76.456 70.2547 77.074 70.4347 77.582C70.6187 78.09 70.8827 78.476 71.2267 78.74C71.5747 79.004 71.9967 79.136 72.4927 79.136ZM77.8407 81.284H77.1567L77.5887 80H77.1687V78.728H78.4647V79.88L77.8407 81.284ZM83.0513 80.168C82.3113 80.168 81.6773 79.978 81.1493 79.598C80.6213 79.218 80.2153 78.694 79.9313 78.026C79.6513 77.358 79.5113 76.592 79.5113 75.728C79.5113 74.864 79.6613 74.11 79.9613 73.466C80.2613 72.822 80.6773 72.322 81.2093 71.966C81.7413 71.61 82.3553 71.432 83.0513 71.432C83.7633 71.432 84.3833 71.61 84.9113 71.966C85.4433 72.322 85.8553 72.822 86.1473 73.466C86.4433 74.11 86.5913 74.864 86.5913 75.728C86.5913 76.592 86.4513 77.358 86.1713 78.026C85.8913 78.694 85.4873 79.218 84.9593 79.598C84.4313 79.978 83.7953 80.168 83.0513 80.168ZM83.0513 79.136C83.5473 79.136 83.9673 79.004 84.3113 78.74C84.6593 78.476 84.9233 78.09 85.1033 77.582C85.2873 77.074 85.3793 76.456 85.3793 75.728C85.3793 74.636 85.1673 73.82 84.7433 73.28C84.3233 72.736 83.7593 72.464 83.0513 72.464C82.3793 72.464 81.8233 72.736 81.3833 73.28C80.9433 73.82 80.7233 74.636 80.7233 75.728C80.7233 76.456 80.8133 77.074 80.9933 77.582C81.1773 78.09 81.4413 78.476 81.7853 78.74C82.1333 79.004 82.5553 79.136 83.0513 79.136ZM91.4302 80.168C90.6902 80.168 90.0562 79.978 89.5282 79.598C89.0002 79.218 88.5942 78.694 88.3102 78.026C88.0302 77.358 87.8902 76.592 87.8902 75.728C87.8902 74.864 88.0402 74.11 88.3402 73.466C88.6402 72.822 89.0562 72.322 89.5882 71.966C90.1202 71.61 90.7342 71.432 91.4302 71.432C92.1422 71.432 92.7622 71.61 93.2902 71.966C93.8222 72.322 94.2342 72.822 94.5262 73.466C94.8222 74.11 94.9702 74.864 94.9702 75.728C94.9702 76.592 94.8302 77.358 94.5502 78.026C94.2702 78.694 93.8662 79.218 93.3382 79.598C92.8102 79.978 92.1742 80.168 91.4302 80.168ZM91.4302 79.136C91.9262 79.136 92.3462 79.004 92.6902 78.74C93.0382 78.476 93.3022 78.09 93.4822 77.582C93.6662 77.074 93.7582 76.456 93.7582 75.728C93.7582 74.636 93.5462 73.82 93.1222 73.28C92.7022 72.736 92.1382 72.464 91.4302 72.464C90.7582 72.464 90.2022 72.736 89.7622 73.28C89.3222 73.82 89.1022 74.636 89.1022 75.728C89.1022 76.456 89.1922 77.074 89.3722 77.582C89.5562 78.09 89.8202 78.476 90.1642 78.74C90.5122 79.004 90.9342 79.136 91.4302 79.136ZM99.8091 80.168C99.0691 80.168 98.4351 79.978 97.9071 79.598C97.3791 79.218 96.9731 78.694 96.6891 78.026C96.4091 77.358 96.2691 76.592 96.2691 75.728C96.2691 74.864 96.4191 74.11 96.7191 73.466C97.0191 72.822 97.4351 72.322 97.9671 71.966C98.4991 71.61 99.1131 71.432 99.8091 71.432C100.521 71.432 101.141 71.61 101.669 71.966C102.201 72.322 102.613 72.822 102.905 73.466C103.201 74.11 103.349 74.864 103.349 75.728C103.349 76.592 103.209 77.358 102.929 78.026C102.649 78.694 102.245 79.218 101.717 79.598C101.189 79.978 100.553 80.168 99.8091 80.168ZM99.8091 79.136C100.305 79.136 100.725 79.004 101.069 78.74C101.417 78.476 101.681 78.09 101.861 77.582C102.045 77.074 102.137 76.456 102.137 75.728C102.137 74.636 101.925 73.82 101.501 73.28C101.081 72.736 100.517 72.464 99.8091 72.464C99.1371 72.464 98.5811 72.736 98.1411 73.28C97.7011 73.82 97.4811 74.636 97.4811 75.728C97.4811 76.456 97.5711 77.074 97.7511 77.582C97.9351 78.09 98.1991 78.476 98.5431 78.74C98.8911 79.004 99.3131 79.136 99.8091 79.136Z" fill="white"/>
<path d="M67.9144 145V138.244C67.6264 138.476 67.3884 138.642 67.2004 138.742C67.0124 138.842 66.8344 138.92 66.6664 138.976L66.4744 137.908C66.6904 137.836 66.9104 137.734 67.1344 137.602C67.3624 137.466 67.5724 137.312 67.7644 137.14C67.9604 136.968 68.1184 136.788 68.2384 136.6H69.0184V145H67.9144ZM72.9325 145.168C72.4885 145.168 72.0625 145.11 71.6545 144.994C71.2465 144.878 70.8925 144.724 70.5925 144.532L70.8685 143.476C71.1645 143.636 71.4725 143.774 71.7925 143.89C72.1125 144.006 72.4725 144.064 72.8725 144.064C73.4085 144.064 73.8425 143.914 74.1745 143.614C74.5065 143.31 74.6725 142.904 74.6725 142.396C74.6725 141.82 74.4925 141.382 74.1325 141.082C73.7725 140.782 73.3045 140.632 72.7285 140.632C72.4245 140.632 72.1365 140.654 71.8645 140.698C71.5965 140.742 71.3205 140.8 71.0365 140.872L71.5525 136.6H75.5125L75.4645 137.68H72.4885L72.1765 140.308L71.9245 139.816C72.1045 139.78 72.2945 139.752 72.4945 139.732C72.6945 139.708 72.8965 139.696 73.1005 139.696C73.6965 139.696 74.2045 139.814 74.6245 140.05C75.0445 140.282 75.3645 140.602 75.5845 141.01C75.8085 141.418 75.9205 141.88 75.9205 142.396C75.9205 142.964 75.7885 143.456 75.5245 143.872C75.2645 144.284 74.9085 144.604 74.4565 144.832C74.0085 145.056 73.5005 145.168 72.9325 145.168ZM77.8407 146.284H77.1567L77.5887 145H77.1687V143.728H78.4647V144.88L77.8407 146.284ZM83.0513 145.168C82.3113 145.168 81.6773 144.978 81.1493 144.598C80.6213 144.218 80.2153 143.694 79.9313 143.026C79.6513 142.358 79.5113 141.592 79.5113 140.728C79.5113 139.864 79.6613 139.11 79.9613 138.466C80.2613 137.822 80.6773 137.322 81.2093 136.966C81.7413 136.61 82.3553 136.432 83.0513 136.432C83.7633 136.432 84.3833 136.61 84.9113 136.966C85.4433 137.322 85.8553 137.822 86.1473 138.466C86.4433 139.11 86.5913 139.864 86.5913 140.728C86.5913 141.592 86.4513 142.358 86.1713 143.026C85.8913 143.694 85.4873 144.218 84.9593 144.598C84.4313 144.978 83.7953 145.168 83.0513 145.168ZM83.0513 144.136C83.5473 144.136 83.9673 144.004 84.3113 143.74C84.6593 143.476 84.9233 143.09 85.1033 142.582C85.2873 142.074 85.3793 141.456 85.3793 140.728C85.3793 139.636 85.1673 138.82 84.7433 138.28C84.3233 137.736 83.7593 137.464 83.0513 137.464C82.3793 137.464 81.8233 137.736 81.3833 138.28C80.9433 138.82 80.7233 139.636 80.7233 140.728C80.7233 141.456 80.8133 142.074 80.9933 142.582C81.1773 143.09 81.4413 143.476 81.7853 143.74C82.1333 144.004 82.5553 144.136 83.0513 144.136ZM91.4302 145.168C90.6902 145.168 90.0562 144.978 89.5282 144.598C89.0002 144.218 88.5942 143.694 88.3102 143.026C88.0302 142.358 87.8902 141.592 87.8902 140.728C87.8902 139.864 88.0402 139.11 88.3402 138.466C88.6402 137.822 89.0562 137.322 89.5882 136.966C90.1202 136.61 90.7342 136.432 91.4302 136.432C92.1422 136.432 92.7622 136.61 93.2902 136.966C93.8222 137.322 94.2342 137.822 94.5262 138.466C94.8222 139.11 94.9702 139.864 94.9702 140.728C94.9702 141.592 94.8302 142.358 94.5502 143.026C94.2702 143.694 93.8662 144.218 93.3382 144.598C92.8102 144.978 92.1742 145.168 91.4302 145.168ZM91.4302 144.136C91.9262 144.136 92.3462 144.004 92.6902 143.74C93.0382 143.476 93.3022 143.09 93.4822 142.582C93.6662 142.074 93.7582 141.456 93.7582 140.728C93.7582 139.636 93.5462 138.82 93.1222 138.28C92.7022 137.736 92.1382 137.464 91.4302 137.464C90.7582 137.464 90.2022 137.736 89.7622 138.28C89.3222 138.82 89.1022 139.636 89.1022 140.728C89.1022 141.456 89.1922 142.074 89.3722 142.582C89.5562 143.09 89.8202 143.476 90.1642 143.74C90.5122 144.004 90.9342 144.136 91.4302 144.136ZM99.8091 145.168C99.0691 145.168 98.4351 144.978 97.9071 144.598C97.3791 144.218 96.9731 143.694 96.6891 143.026C96.4091 142.358 96.2691 141.592 96.2691 140.728C96.2691 139.864 96.4191 139.11 96.7191 138.466C97.0191 137.822 97.4351 137.322 97.9671 136.966C98.4991 136.61 99.1131 136.432 99.8091 136.432C100.521 136.432 101.141 136.61 101.669 136.966C102.201 137.322 102.613 137.822 102.905 138.466C103.201 139.11 103.349 139.864 103.349 140.728C103.349 141.592 103.209 142.358 102.929 143.026C102.649 143.694 102.245 144.218 101.717 144.598C101.189 144.978 100.553 145.168 99.8091 145.168ZM99.8091 144.136C100.305 144.136 100.725 144.004 101.069 143.74C101.417 143.476 101.681 143.09 101.861 142.582C102.045 142.074 102.137 141.456 102.137 140.728C102.137 139.636 101.925 138.82 101.501 138.28C101.081 137.736 100.517 137.464 99.8091 137.464C99.1371 137.464 98.5811 137.736 98.1411 138.28C97.7011 138.82 97.4811 139.636 97.4811 140.728C97.4811 141.456 97.5711 142.074 97.7511 142.582C97.9351 143.09 98.1991 143.476 98.5431 143.74C98.8911 144.004 99.3131 144.136 99.8091 144.136Z" fill="white"/>
<path d="M113.93 203.72L113.8 202.9C114.16 202.9 114.417 202.822 114.57 202.665C114.723 202.508 114.8 202.26 114.8 201.92V195H115.75V202.14C115.75 202.69 115.622 203.09 115.365 203.34C115.108 203.593 114.717 203.72 114.19 203.72H113.93ZM118.201 202.1C117.898 202.1 117.633 202.038 117.406 201.915C117.18 201.792 117.003 201.623 116.876 201.41C116.753 201.197 116.691 200.953 116.691 200.68C116.691 200.403 116.751 200.167 116.871 199.97C116.995 199.77 117.158 199.605 117.361 199.475C117.568 199.342 117.798 199.237 118.051 199.16C118.305 199.08 118.566 199.023 118.836 198.99C119.11 198.953 119.371 198.933 119.621 198.93C119.621 198.463 119.53 198.158 119.346 198.015C119.163 197.872 118.898 197.8 118.551 197.8C118.368 197.8 118.171 197.828 117.961 197.885C117.755 197.942 117.521 198.06 117.261 198.24L117.131 197.51C117.328 197.36 117.573 197.238 117.866 197.145C118.16 197.048 118.468 197 118.791 197C119.205 197 119.538 197.073 119.791 197.22C120.045 197.363 120.23 197.607 120.346 197.95C120.463 198.293 120.521 198.76 120.521 199.35V200.35C120.521 200.583 120.531 200.777 120.551 200.93C120.575 201.08 120.625 201.193 120.701 201.27C120.781 201.343 120.908 201.38 121.081 201.38H121.171L121.031 202.1H120.961C120.671 202.1 120.446 202.072 120.286 202.015C120.13 201.958 120.01 201.877 119.926 201.77C119.843 201.663 119.768 201.533 119.701 201.38C119.518 201.593 119.301 201.767 119.051 201.9C118.801 202.033 118.518 202.1 118.201 202.1ZM118.371 201.38C118.611 201.38 118.843 201.32 119.066 201.2C119.293 201.08 119.478 200.92 119.621 200.72V199.55C119.145 199.567 118.758 199.613 118.461 199.69C118.168 199.767 117.953 199.882 117.816 200.035C117.68 200.188 117.611 200.387 117.611 200.63C117.611 200.893 117.681 201.085 117.821 201.205C117.965 201.322 118.148 201.38 118.371 201.38ZM121.866 202V197.1H122.566L122.746 198.04L122.396 197.89C122.726 197.523 123.048 197.283 123.361 197.17C123.678 197.057 123.986 197 124.286 197C125.003 197 125.514 197.207 125.821 197.62C126.131 198.033 126.286 198.593 126.286 199.3V202H125.386V199.3C125.386 198.78 125.289 198.4 125.096 198.16C124.903 197.92 124.573 197.8 124.106 197.8C123.776 197.8 123.473 197.873 123.196 198.02C122.923 198.163 122.743 198.393 122.656 198.71L122.766 198.16V202H121.866Z" fill="#91A7AF"/>
<path d="M188.071 202V195H192.341V195.86H189.021V197.91H191.581V198.77H189.021V202H188.071ZM195.025 202.1C194.449 202.1 193.964 201.982 193.57 201.745C193.177 201.508 192.879 201.195 192.675 200.805C192.475 200.412 192.375 199.98 192.375 199.51C192.375 199.053 192.469 198.635 192.655 198.255C192.845 197.875 193.119 197.572 193.475 197.345C193.835 197.115 194.269 197 194.775 197C195.182 197 195.544 197.082 195.86 197.245C196.18 197.405 196.43 197.64 196.61 197.95C196.794 198.257 196.885 198.63 196.885 199.07C196.885 199.14 196.882 199.217 196.875 199.3C196.872 199.38 196.862 199.463 196.845 199.55H193.295C193.339 200.003 193.447 200.357 193.62 200.61C193.794 200.863 194.012 201.042 194.275 201.145C194.539 201.248 194.825 201.3 195.135 201.3C195.362 201.3 195.599 201.277 195.845 201.23C196.092 201.183 196.325 201.11 196.545 201.01L196.665 201.72C196.475 201.803 196.244 201.888 195.97 201.975C195.697 202.058 195.382 202.1 195.025 202.1ZM193.375 198.93H195.955C195.955 198.7 195.912 198.5 195.825 198.33C195.739 198.16 195.607 198.03 195.43 197.94C195.254 197.847 195.029 197.8 194.755 197.8C194.355 197.8 194.047 197.9 193.83 198.1C193.617 198.297 193.465 198.573 193.375 198.93ZM200.203 202.1C199.859 202.1 199.526 202.018 199.203 201.855C198.883 201.688 198.659 201.443 198.533 201.12L198.753 200.96L198.583 202H197.783V194.5H198.683V198.06L198.493 197.92C198.659 197.65 198.898 197.43 199.208 197.26C199.518 197.087 199.849 197 200.203 197C200.659 197 201.053 197.12 201.383 197.36C201.713 197.597 201.966 197.91 202.143 198.3C202.323 198.687 202.413 199.103 202.413 199.55C202.413 200.027 202.314 200.458 202.118 200.845C201.921 201.228 201.656 201.533 201.323 201.76C200.989 201.987 200.616 202.1 200.203 202.1ZM200.093 201.3C200.379 201.3 200.628 201.222 200.838 201.065C201.048 200.905 201.209 200.693 201.323 200.43C201.436 200.163 201.493 199.87 201.493 199.55C201.493 199.217 201.436 198.918 201.323 198.655C201.209 198.392 201.048 198.183 200.838 198.03C200.628 197.877 200.379 197.8 200.093 197.8C199.836 197.8 199.596 197.865 199.373 197.995C199.153 198.122 198.974 198.315 198.838 198.575C198.701 198.832 198.633 199.157 198.633 199.55C198.633 199.96 198.701 200.293 198.838 200.55C198.974 200.807 199.153 200.997 199.373 201.12C199.596 201.24 199.836 201.3 200.093 201.3Z" fill="#91A7AF"/>
<path d="M263.967 202L264.907 195H265.717L267.557 198.47L269.377 195H270.197L271.127 202H270.127L269.417 196.29L269.667 196.33L267.567 200.34L265.427 196.33L265.677 196.29L264.967 202H263.967ZM273.294 202.1C272.991 202.1 272.726 202.038 272.499 201.915C272.272 201.792 272.096 201.623 271.969 201.41C271.846 201.197 271.784 200.953 271.784 200.68C271.784 200.403 271.844 200.167 271.964 199.97C272.087 199.77 272.251 199.605 272.454 199.475C272.661 199.342 272.891 199.237 273.144 199.16C273.397 199.08 273.659 199.023 273.929 198.99C274.202 198.953 274.464 198.933 274.714 198.93C274.714 198.463 274.622 198.158 274.439 198.015C274.256 197.872 273.991 197.8 273.644 197.8C273.461 197.8 273.264 197.828 273.054 197.885C272.847 197.942 272.614 198.06 272.354 198.24L272.224 197.51C272.421 197.36 272.666 197.238 272.959 197.145C273.252 197.048 273.561 197 273.884 197C274.297 197 274.631 197.073 274.884 197.22C275.137 197.363 275.322 197.607 275.439 197.95C275.556 198.293 275.614 198.76 275.614 199.35V200.35C275.614 200.583 275.624 200.777 275.644 200.93C275.667 201.08 275.717 201.193 275.794 201.27C275.874 201.343 276.001 201.38 276.174 201.38H276.264L276.124 202.1H276.054C275.764 202.1 275.539 202.072 275.379 202.015C275.222 201.958 275.102 201.877 275.019 201.77C274.936 201.663 274.861 201.533 274.794 201.38C274.611 201.593 274.394 201.767 274.144 201.9C273.894 202.033 273.611 202.1 273.294 202.1ZM273.464 201.38C273.704 201.38 273.936 201.32 274.159 201.2C274.386 201.08 274.571 200.92 274.714 200.72V199.55C274.237 199.567 273.851 199.613 273.554 199.69C273.261 199.767 273.046 199.882 272.909 200.035C272.772 200.188 272.704 200.387 272.704 200.63C272.704 200.893 272.774 201.085 272.914 201.205C273.057 201.322 273.241 201.38 273.464 201.38ZM276.959 202V197.1H277.699L277.809 197.91C278.059 197.6 278.297 197.372 278.524 197.225C278.754 197.075 278.999 197 279.259 197C279.342 197 279.419 197.01 279.489 197.03L279.399 198.02C279.355 198.01 279.309 198.003 279.259 198C279.212 197.993 279.159 197.99 279.099 197.99C278.839 197.99 278.599 198.048 278.379 198.165C278.162 198.278 278.009 198.403 277.919 198.54V202H276.959Z" fill="#91A7AF"/>
<path d="M344.634 200.11H341.634V199.25H344.634V200.11ZM342.994 195.93H343.274L341.124 202H340.124L342.634 195H343.634L346.144 202H345.144L342.994 195.93ZM346.826 204.42V197.1H347.526L347.686 198.22L347.436 198.04C347.642 197.72 347.897 197.467 348.201 197.28C348.504 197.093 348.876 197 349.316 197C349.762 197 350.146 197.113 350.466 197.34C350.786 197.567 351.031 197.873 351.201 198.26C351.371 198.643 351.456 199.073 351.456 199.55C351.456 200.027 351.376 200.458 351.216 200.845C351.056 201.228 350.817 201.533 350.501 201.76C350.184 201.987 349.789 202.1 349.316 202.1C348.926 202.1 348.572 202.02 348.256 201.86C347.942 201.697 347.716 201.453 347.576 201.13L347.726 200.95V204.42H346.826ZM349.146 201.3C349.582 201.3 349.922 201.147 350.166 200.84C350.412 200.53 350.536 200.1 350.536 199.55C350.536 199 350.412 198.572 350.166 198.265C349.922 197.955 349.582 197.8 349.146 197.8C348.876 197.8 348.629 197.865 348.406 197.995C348.186 198.122 348.009 198.315 347.876 198.575C347.742 198.832 347.676 199.157 347.676 199.55C347.676 199.96 347.742 200.293 347.876 200.55C348.009 200.807 348.186 200.997 348.406 201.12C348.629 201.24 348.876 201.3 349.146 201.3ZM352.392 202V197.1H353.132L353.242 197.91C353.492 197.6 353.731 197.372 353.957 197.225C354.187 197.075 354.432 197 354.692 197C354.776 197 354.852 197.01 354.922 197.03L354.832 198.02C354.789 198.01 354.742 198.003 354.692 198C354.646 197.993 354.592 197.99 354.532 197.99C354.272 197.99 354.032 198.048 353.812 198.165C353.596 198.278 353.442 198.403 353.352 198.54V202H352.392Z" fill="#91A7AF"/>
<path d="M415.623 202L416.563 195H417.373L419.213 198.47L421.033 195H421.853L422.783 202H421.783L421.073 196.29L421.323 196.33L419.223 200.34L417.083 196.33L417.333 196.29L416.623 202H415.623ZM424.949 202.1C424.646 202.1 424.381 202.038 424.154 201.915C423.928 201.792 423.751 201.623 423.624 201.41C423.501 201.197 423.439 200.953 423.439 200.68C423.439 200.403 423.499 200.167 423.619 199.97C423.743 199.77 423.906 199.605 424.109 199.475C424.316 199.342 424.546 199.237 424.799 199.16C425.053 199.08 425.314 199.023 425.584 198.99C425.858 198.953 426.119 198.933 426.369 198.93C426.369 198.463 426.278 198.158 426.094 198.015C425.911 197.872 425.646 197.8 425.299 197.8C425.116 197.8 424.919 197.828 424.709 197.885C424.503 197.942 424.269 198.06 424.009 198.24L423.879 197.51C424.076 197.36 424.321 197.238 424.614 197.145C424.908 197.048 425.216 197 425.539 197C425.953 197 426.286 197.073 426.539 197.22C426.793 197.363 426.978 197.607 427.094 197.95C427.211 198.293 427.269 198.76 427.269 199.35V200.35C427.269 200.583 427.279 200.777 427.299 200.93C427.323 201.08 427.373 201.193 427.449 201.27C427.529 201.343 427.656 201.38 427.829 201.38H427.919L427.779 202.1H427.709C427.419 202.1 427.194 202.072 427.034 202.015C426.878 201.958 426.758 201.877 426.674 201.77C426.591 201.663 426.516 201.533 426.449 201.38C426.266 201.593 426.049 201.767 425.799 201.9C425.549 202.033 425.266 202.1 424.949 202.1ZM425.119 201.38C425.359 201.38 425.591 201.32 425.814 201.2C426.041 201.08 426.226 200.92 426.369 200.72V199.55C425.893 199.567 425.506 199.613 425.209 199.69C424.916 199.767 424.701 199.882 424.564 200.035C424.428 200.188 424.359 200.387 424.359 200.63C424.359 200.893 424.429 201.085 424.569 201.205C424.713 201.322 424.896 201.38 425.119 201.38ZM428.789 204.42L429.919 201.78L427.879 197.1H428.879L430.409 200.74L431.789 197.1H432.789L429.789 204.42H428.789Z" fill="#91A7AF"/>
<path d="M493.294 203.72L493.164 202.9C493.524 202.9 493.781 202.822 493.934 202.665C494.088 202.508 494.164 202.26 494.164 201.92V195H495.114V202.14C495.114 202.69 494.986 203.09 494.729 203.34C494.473 203.593 494.081 203.72 493.554 203.72H493.294ZM498.176 202.1C497.792 202.1 497.466 202.023 497.196 201.87C496.926 201.713 496.719 201.477 496.576 201.16C496.436 200.843 496.366 200.44 496.366 199.95V197.1H497.266V199.7C497.266 200.22 497.354 200.617 497.531 200.89C497.711 201.163 498.002 201.3 498.406 201.3C498.682 201.3 498.939 201.233 499.176 201.1C499.412 200.967 499.576 200.753 499.666 200.46L499.536 200.95V197.1H500.436V202H499.636L499.456 201.04L499.696 201.2C499.532 201.503 499.332 201.73 499.096 201.88C498.862 202.027 498.556 202.1 498.176 202.1ZM501.66 202V197.1H502.36L502.54 198.04L502.19 197.89C502.52 197.523 502.841 197.283 503.155 197.17C503.471 197.057 503.78 197 504.08 197C504.796 197 505.308 197.207 505.615 197.62C505.925 198.033 506.08 198.593 506.08 199.3V202H505.18V199.3C505.18 198.78 505.083 198.4 504.89 198.16C504.696 197.92 504.366 197.8 503.9 197.8C503.57 197.8 503.266 197.873 502.99 198.02C502.716 198.163 502.536 198.393 502.45 198.71L502.56 198.16V202H501.66Z" fill="#91A7AF"/>
<path d="M567.406 203.72L567.276 202.9C567.636 202.9 567.892 202.822 568.046 202.665C568.199 202.508 568.276 202.26 568.276 201.92V195H569.226V202.14C569.226 202.69 569.097 203.09 568.841 203.34C568.584 203.593 568.192 203.72 567.666 203.72H567.406ZM572.287 202.1C571.904 202.1 571.577 202.023 571.307 201.87C571.037 201.713 570.83 201.477 570.687 201.16C570.547 200.843 570.477 200.44 570.477 199.95V197.1H571.377V199.7C571.377 200.22 571.465 200.617 571.642 200.89C571.822 201.163 572.114 201.3 572.517 201.3C572.794 201.3 573.05 201.233 573.287 201.1C573.524 200.967 573.687 200.753 573.777 200.46L573.647 200.95V197.1H574.547V202H573.747L573.567 201.04L573.807 201.2C573.644 201.503 573.444 201.73 573.207 201.88C572.974 202.027 572.667 202.1 572.287 202.1ZM577.031 202.1C576.714 202.1 576.463 202.043 576.276 201.93C576.093 201.813 575.961 201.665 575.881 201.485C575.801 201.305 575.761 201.117 575.761 200.92V194.5H576.661V200.4C576.661 200.68 576.679 200.89 576.716 201.03C576.753 201.17 576.826 201.263 576.936 201.31C577.049 201.357 577.221 201.38 577.451 201.38L577.321 202.1H577.031Z" fill="#91A7AF"/>
<path d="M642.945 200.11H639.945V199.25H642.945V200.11ZM641.305 195.93H641.585L639.435 202H638.435L640.945 195H641.945L644.455 202H643.455L641.305 195.93ZM646.78 202.1C646.397 202.1 646.07 202.023 645.8 201.87C645.53 201.713 645.323 201.477 645.18 201.16C645.04 200.843 644.97 200.44 644.97 199.95V197.1H645.87V199.7C645.87 200.22 645.958 200.617 646.135 200.89C646.315 201.163 646.607 201.3 647.01 201.3C647.287 201.3 647.543 201.233 647.78 201.1C648.017 200.967 648.18 200.753 648.27 200.46L648.14 200.95V197.1H649.04V202H648.24L648.06 201.04L648.3 201.2C648.137 201.503 647.937 201.73 647.7 201.88C647.467 202.027 647.16 202.1 646.78 202.1ZM652.244 204.5C651.798 204.5 651.398 204.445 651.044 204.335C650.694 204.225 650.418 204.062 650.214 203.845C650.014 203.628 649.914 203.36 649.914 203.04C649.914 202.773 649.989 202.543 650.139 202.35C650.293 202.16 650.501 202.007 650.764 201.89C650.608 201.813 650.488 201.723 650.404 201.62C650.324 201.513 650.284 201.397 650.284 201.27C650.284 201.12 650.329 200.985 650.419 200.865C650.513 200.742 650.661 200.64 650.864 200.56C650.591 200.39 650.381 200.162 650.234 199.875C650.088 199.585 650.014 199.263 650.014 198.91C650.014 198.553 650.094 198.232 650.254 197.945C650.414 197.655 650.644 197.425 650.944 197.255C651.248 197.085 651.611 197 652.034 197C652.261 197 652.474 197.033 652.674 197.1C652.878 197.167 653.064 197.26 653.234 197.38C653.384 197.293 653.561 197.222 653.764 197.165C653.971 197.108 654.201 197.08 654.454 197.08C654.471 197.08 654.484 197.08 654.494 197.08C654.508 197.08 654.521 197.08 654.534 197.08L654.424 197.68C654.384 197.68 654.346 197.68 654.309 197.68C654.273 197.68 654.234 197.68 654.194 197.68C654.161 197.68 654.084 197.685 653.964 197.695C653.844 197.705 653.734 197.723 653.634 197.75C653.771 197.91 653.876 198.09 653.949 198.29C654.026 198.487 654.064 198.693 654.064 198.91C654.064 199.283 653.983 199.618 653.819 199.915C653.659 200.208 653.428 200.442 653.124 200.615C652.821 200.785 652.458 200.87 652.034 200.87C651.914 200.87 651.799 200.863 651.689 200.85C651.579 200.833 651.474 200.81 651.374 200.78C651.221 200.83 651.144 200.917 651.144 201.04C651.144 201.113 651.188 201.178 651.274 201.235C651.361 201.288 651.501 201.33 651.694 201.36L653.004 201.57C653.534 201.653 653.943 201.807 654.229 202.03C654.519 202.253 654.664 202.57 654.664 202.98C654.664 203.32 654.564 203.602 654.364 203.825C654.168 204.052 653.888 204.22 653.524 204.33C653.161 204.443 652.734 204.5 652.244 204.5ZM652.324 203.7C652.784 203.7 653.138 203.64 653.384 203.52C653.631 203.403 653.754 203.23 653.754 203C653.754 202.82 653.676 202.678 653.519 202.575C653.366 202.472 653.144 202.393 652.854 202.34L651.459 202.105C651.276 202.185 651.116 202.292 650.979 202.425C650.843 202.562 650.774 202.72 650.774 202.9C650.774 203.18 650.914 203.383 651.194 203.51C651.478 203.637 651.854 203.7 652.324 203.7ZM652.034 200.15C652.414 200.15 652.704 200.037 652.904 199.81C653.104 199.58 653.204 199.283 653.204 198.92C653.204 198.57 653.104 198.283 652.904 198.06C652.704 197.833 652.414 197.72 652.034 197.72C651.654 197.72 651.366 197.833 651.169 198.06C650.973 198.283 650.874 198.57 650.874 198.92C650.874 199.283 650.973 199.58 651.169 199.81C651.366 200.037 651.654 200.15 652.034 200.15Z" fill="#91A7AF"/>
<path d="M718.038 202.14C717.748 202.14 717.458 202.118 717.168 202.075C716.878 202.032 716.61 201.977 716.363 201.91C716.117 201.84 715.912 201.767 715.748 201.69L715.878 200.68C716.058 200.767 716.275 200.857 716.528 200.95C716.785 201.043 717.062 201.122 717.358 201.185C717.655 201.248 717.955 201.28 718.258 201.28C718.708 201.28 719.065 201.198 719.328 201.035C719.595 200.868 719.728 200.61 719.728 200.26C719.728 199.997 719.662 199.782 719.528 199.615C719.395 199.445 719.193 199.3 718.923 199.18C718.657 199.06 718.322 198.94 717.918 198.82C717.535 198.707 717.182 198.573 716.858 198.42C716.535 198.263 716.275 198.055 716.078 197.795C715.885 197.532 715.788 197.183 715.788 196.75C715.788 196.38 715.883 196.053 716.073 195.77C716.267 195.483 716.548 195.26 716.918 195.1C717.292 194.94 717.748 194.86 718.288 194.86C718.748 194.86 719.17 194.91 719.553 195.01C719.94 195.11 720.258 195.22 720.508 195.34L720.408 196.35C720.028 196.123 719.665 195.962 719.318 195.865C718.975 195.768 718.618 195.72 718.248 195.72C717.838 195.72 717.498 195.797 717.228 195.95C716.962 196.103 716.828 196.353 716.828 196.7C716.828 196.933 716.888 197.125 717.008 197.275C717.128 197.422 717.307 197.548 717.543 197.655C717.78 197.758 718.075 197.863 718.428 197.97C718.915 198.117 719.333 198.285 719.683 198.475C720.033 198.662 720.302 198.893 720.488 199.17C720.675 199.443 720.768 199.783 720.768 200.19C720.768 200.49 720.712 200.76 720.598 201C720.485 201.24 720.315 201.445 720.088 201.615C719.862 201.785 719.577 201.915 719.233 202.005C718.893 202.095 718.495 202.14 718.038 202.14ZM724.038 202.1C723.461 202.1 722.976 201.982 722.583 201.745C722.19 201.508 721.891 201.195 721.688 200.805C721.488 200.412 721.388 199.98 721.388 199.51C721.388 199.053 721.481 198.635 721.668 198.255C721.858 197.875 722.131 197.572 722.488 197.345C722.848 197.115 723.281 197 723.788 197C724.195 197 724.556 197.082 724.873 197.245C725.193 197.405 725.443 197.64 725.623 197.95C725.806 198.257 725.898 198.63 725.898 199.07C725.898 199.14 725.895 199.217 725.888 199.3C725.885 199.38 725.875 199.463 725.858 199.55H722.308C722.351 200.003 722.46 200.357 722.633 200.61C722.806 200.863 723.025 201.042 723.288 201.145C723.551 201.248 723.838 201.3 724.148 201.3C724.375 201.3 724.611 201.277 724.858 201.23C725.105 201.183 725.338 201.11 725.558 201.01L725.678 201.72C725.488 201.803 725.256 201.888 724.983 201.975C724.71 202.058 724.395 202.1 724.038 202.1ZM722.388 198.93H724.968C724.968 198.7 724.925 198.5 724.838 198.33C724.751 198.16 724.62 198.03 724.443 197.94C724.266 197.847 724.041 197.8 723.768 197.8C723.368 197.8 723.06 197.9 722.843 198.1C722.63 198.297 722.478 198.573 722.388 198.93ZM726.805 204.42V197.1H727.505L727.665 198.22L727.415 198.04C727.622 197.72 727.877 197.467 728.18 197.28C728.484 197.093 728.855 197 729.295 197C729.742 197 730.125 197.113 730.445 197.34C730.765 197.567 731.01 197.873 731.18 198.26C731.35 198.643 731.435 199.073 731.435 199.55C731.435 200.027 731.355 200.458 731.195 200.845C731.035 201.228 730.797 201.533 730.48 201.76C730.164 201.987 729.769 202.1 729.295 202.1C728.905 202.1 728.552 202.02 728.235 201.86C727.922 201.697 727.695 201.453 727.555 201.13L727.705 200.95V204.42H726.805ZM729.125 201.3C729.562 201.3 729.902 201.147 730.145 200.84C730.392 200.53 730.515 200.1 730.515 199.55C730.515 199 730.392 198.572 730.145 198.265C729.902 197.955 729.562 197.8 729.125 197.8C728.855 197.8 728.609 197.865 728.385 197.995C728.165 198.122 727.989 198.315 727.855 198.575C727.722 198.832 727.655 199.157 727.655 199.55C727.655 199.96 727.722 200.293 727.855 200.55C727.989 200.807 728.165 200.997 728.385 201.12C728.609 201.24 728.855 201.3 729.125 201.3Z" fill="#91A7AF"/>
<path d="M796.077 202.14C795.41 202.14 794.817 201.992 794.297 201.695C793.777 201.395 793.368 200.973 793.072 200.43C792.775 199.883 792.627 199.24 792.627 198.5C792.627 197.76 792.775 197.118 793.072 196.575C793.368 196.028 793.777 195.607 794.297 195.31C794.817 195.01 795.41 194.86 796.077 194.86C796.743 194.86 797.337 195.01 797.857 195.31C798.377 195.607 798.785 196.028 799.082 196.575C799.378 197.118 799.527 197.76 799.527 198.5C799.527 199.24 799.378 199.883 799.082 200.43C798.785 200.973 798.377 201.395 797.857 201.695C797.337 201.992 796.743 202.14 796.077 202.14ZM796.077 201.22C796.613 201.22 797.062 201.1 797.422 200.86C797.782 200.617 798.052 200.29 798.232 199.88C798.415 199.467 798.507 199.007 798.507 198.5C798.507 197.993 798.415 197.535 798.232 197.125C798.052 196.712 797.782 196.385 797.422 196.145C797.062 195.902 796.613 195.78 796.077 195.78C795.54 195.78 795.092 195.902 794.732 196.145C794.372 196.385 794.1 196.712 793.917 197.125C793.737 197.535 793.647 197.993 793.647 198.5C793.647 199.007 793.737 199.467 793.917 199.88C794.1 200.29 794.372 200.617 794.732 200.86C795.092 201.1 795.54 201.22 796.077 201.22ZM802.723 202.1C802.17 202.1 801.705 201.988 801.328 201.765C800.955 201.538 800.672 201.235 800.478 200.855C800.288 200.472 800.193 200.047 800.193 199.58C800.193 199.093 800.285 198.655 800.468 198.265C800.655 197.875 800.94 197.567 801.323 197.34C801.707 197.113 802.197 197 802.793 197C803.05 197 803.292 197.027 803.518 197.08C803.748 197.13 803.953 197.2 804.133 197.29L803.993 198.08C803.81 197.993 803.615 197.925 803.408 197.875C803.205 197.825 802.993 197.8 802.773 197.8C802.233 197.8 801.822 197.953 801.538 198.26C801.255 198.567 801.113 198.993 801.113 199.54C801.113 200.073 801.248 200.502 801.518 200.825C801.788 201.148 802.2 201.31 802.753 201.31C802.98 201.31 803.197 201.283 803.403 201.23C803.613 201.177 803.813 201.103 804.003 201.01L804.123 201.73C803.99 201.823 803.795 201.908 803.538 201.985C803.282 202.062 803.01 202.1 802.723 202.1ZM806.704 202.1C806.394 202.1 806.146 202.043 805.959 201.93C805.773 201.817 805.636 201.672 805.549 201.495C805.466 201.315 805.424 201.127 805.424 200.93V197.8H804.584L804.664 197.1H805.424V195.89L806.324 195.8V197.1H807.614V197.8H806.324V200.38C806.324 200.693 806.343 200.92 806.379 201.06C806.416 201.2 806.506 201.288 806.649 201.325C806.796 201.362 807.031 201.38 807.354 201.38H807.584L807.514 202.1H806.704Z" fill="#91A7AF"/>
<path d="M869.564 202V195H870.594L874.044 200.24V195H875.004V202H874.194L870.514 196.47V202H869.564ZM878.418 202.1C877.905 202.1 877.466 201.987 877.103 201.76C876.743 201.53 876.466 201.223 876.273 200.84C876.083 200.453 875.988 200.023 875.988 199.55C875.988 199.077 876.083 198.648 876.273 198.265C876.466 197.878 876.743 197.572 877.103 197.345C877.466 197.115 877.905 197 878.418 197C878.928 197 879.365 197.115 879.728 197.345C880.091 197.572 880.368 197.878 880.558 198.265C880.751 198.648 880.848 199.077 880.848 199.55C880.848 200.023 880.751 200.453 880.558 200.84C880.368 201.223 880.091 201.53 879.728 201.76C879.365 201.987 878.928 202.1 878.418 202.1ZM878.418 201.3C878.905 201.3 879.278 201.147 879.538 200.84C879.798 200.53 879.928 200.1 879.928 199.55C879.928 199 879.798 198.572 879.538 198.265C879.278 197.955 878.905 197.8 878.418 197.8C877.935 197.8 877.561 197.955 877.298 198.265C877.038 198.572 876.908 199 876.908 199.55C876.908 200.1 877.038 200.53 877.298 200.84C877.561 201.147 877.935 201.3 878.418 201.3ZM883.038 202L881.168 197.1H882.168L883.538 201.01L884.898 197.1H885.908L884.048 202H883.038Z" fill="#91A7AF"/>
<path d="M943.8 202V195H946.39C947.067 195 947.667 195.138 948.19 195.415C948.713 195.692 949.123 196.092 949.42 196.615C949.72 197.135 949.87 197.763 949.87 198.5C949.87 199.237 949.72 199.867 949.42 200.39C949.123 200.91 948.713 201.308 948.19 201.585C947.667 201.862 947.067 202 946.39 202H943.8ZM944.75 201.14H946.39C946.923 201.14 947.37 201.03 947.73 200.81C948.093 200.587 948.367 200.277 948.55 199.88C948.737 199.483 948.83 199.023 948.83 198.5C948.83 197.977 948.737 197.517 948.55 197.12C948.367 196.723 948.093 196.415 947.73 196.195C947.37 195.972 946.923 195.86 946.39 195.86H944.75V201.14ZM953.167 202.1C952.59 202.1 952.105 201.982 951.712 201.745C951.319 201.508 951.02 201.195 950.817 200.805C950.617 200.412 950.517 199.98 950.517 199.51C950.517 199.053 950.61 198.635 950.797 198.255C950.987 197.875 951.26 197.572 951.617 197.345C951.977 197.115 952.41 197 952.917 197C953.324 197 953.685 197.082 954.002 197.245C954.322 197.405 954.572 197.64 954.752 197.95C954.935 198.257 955.027 198.63 955.027 199.07C955.027 199.14 955.024 199.217 955.017 199.3C955.014 199.38 955.004 199.463 954.987 199.55H951.437C951.48 200.003 951.589 200.357 951.762 200.61C951.935 200.863 952.154 201.042 952.417 201.145C952.68 201.248 952.967 201.3 953.277 201.3C953.504 201.3 953.74 201.277 953.987 201.23C954.234 201.183 954.467 201.11 954.687 201.01L954.807 201.72C954.617 201.803 954.385 201.888 954.112 201.975C953.839 202.058 953.524 202.1 953.167 202.1ZM951.517 198.93H954.097C954.097 198.7 954.054 198.5 953.967 198.33C953.88 198.16 953.749 198.03 953.572 197.94C953.395 197.847 953.17 197.8 952.897 197.8C952.497 197.8 952.189 197.9 951.972 198.1C951.759 198.297 951.607 198.573 951.517 198.93ZM958.184 202.1C957.631 202.1 957.166 201.988 956.789 201.765C956.416 201.538 956.133 201.235 955.939 200.855C955.749 200.472 955.654 200.047 955.654 199.58C955.654 199.093 955.746 198.655 955.929 198.265C956.116 197.875 956.401 197.567 956.784 197.34C957.168 197.113 957.658 197 958.254 197C958.511 197 958.753 197.027 958.979 197.08C959.209 197.13 959.414 197.2 959.594 197.29L959.454 198.08C959.271 197.993 959.076 197.925 958.869 197.875C958.666 197.825 958.454 197.8 958.234 197.8C957.694 197.8 957.283 197.953 956.999 198.26C956.716 198.567 956.574 198.993 956.574 199.54C956.574 200.073 956.709 200.502 956.979 200.825C957.249 201.148 957.661 201.31 958.214 201.31C958.441 201.31 958.658 201.283 958.864 201.23C959.074 201.177 959.274 201.103 959.464 201.01L959.584 201.73C959.451 201.823 959.256 201.908 958.999 201.985C958.743 202.062 958.471 202.1 958.184 202.1Z" fill="#91A7AF"/>
<rect x="114.5" y="1.5" width="845" height="179" stroke="#2A3241"/>
<path d="M150 56L956 56.0001" stroke="white" stroke-opacity="0.1" stroke-linecap="round" stroke-dasharray="4 4"/>
<path d="M150 153L956 153" stroke="#7D7D7D" stroke-linecap="round" stroke-dasharray="4 4"/>
<path d="M150.894 151.046L150 152.409V171H956V21L955.553 21.2707L948.851 17.4537L946.171 19.6348L943.49 19.3622L941.256 29.7224L939.022 19.3622C938.724 19.4531 937.95 19.7439 937.235 20.1801C936.52 20.6163 935.15 23.4518 934.554 24.8149H932.32L930.533 27.5413L927 15.0001L927.406 28.6319L923.385 25.3602L922.044 22.3612L917.13 20.4527L912.215 31.0856L908.194 34.6299H903.726L901.045 36.5384L897.024 32.4488L893.897 37.6289L889.876 38.4468C889.578 38.7195 888.982 39.3193 888.982 39.5374C888.982 39.7555 886.599 41.0823 885.408 41.7185L880.94 38.4468L876.919 46.6259L874.238 65.9832C873.047 66.8011 870.575 68.4915 870.217 68.7096C869.771 68.9822 869.771 70.618 869.324 70.8907C868.966 71.1088 868.579 73.3444 868.43 74.4349L865.749 77.434L861.282 76.0708L859.048 84.7952L856.814 86.7036L851.006 87.2489L842.963 79.8877H839.389L837.155 83.1593L834.921 81.2509L832.241 83.1593L830.453 82.6141L828.219 79.8877L825.986 86.1584L821.518 85.8857L818.837 90.5206L813.029 90.7932L810.348 88.3395H805.88L804.54 85.8857L801.412 84.7952L798.285 88.3395H791.583L786.222 92.7017L783.988 97.3365L780.86 92.9743L776.839 92.7017L775.052 90.7932L773.265 93.7922H768.797L765.67 92.1564L763.436 93.2469L760.308 92.9743L758.968 90.7932L756.734 83.9773L754.947 81.5235L753.16 91.8837H750.479C749.407 91.8837 747.649 92.0655 746.905 92.1564L741.99 89.9753L739.309 92.1564C738.416 91.8837 736.539 91.3385 736.182 91.3385H734.841L731.267 91.8837C730.969 91.702 730.284 91.2294 729.927 90.7932C729.569 90.357 728.884 88.9756 728.586 88.3395L727.693 83.9773C727.246 82.7049 726.353 79.3969 726.353 76.3434C726.353 73.2899 723.374 71.4359 721.885 70.8907H718.31L712.502 70.3454L708.928 68.1643L708.034 68.9822L706.247 71.7086L704.46 72.7991L697.312 72.2539L694.631 70.8907L692.397 69.5275L691.057 70.8907C690.759 71.1633 690.074 71.7086 689.716 71.7086C689.359 71.7086 687.78 71.1633 687.035 70.8907H684.355L682.121 71.7086L679.44 70.8907L675.866 71.9812L673.632 66.8011L670.504 67.619H666.037H661.569L659.335 65.7106L657.101 65.1653L653.527 64.8926L650.399 57.2588L648.165 63.5295H645.484L641.91 65.7106L639.229 64.62L636.996 65.7106L634.762 67.0737L632.974 63.5295L628.953 59.9852L626.273 62.7115L623.592 63.2568L619.571 64.0747L617.337 65.7106L615.103 62.7115L613.316 64.62L606.614 62.7115L604.827 66.8011L602.146 67.0737L597.678 86.9763L595.445 89.7026L592.317 89.1574L590.53 90.5206L588.743 94.0648L586.509 97.6091L584.275 92.9743H577.573L575.786 89.7026H570.871L568.637 84.7952L567 90.9792L564.616 85.6131L560.149 84.7952L557.915 86.9763L553.894 81.5235L551.213 80.9782L548.979 79.3424L546.298 86.7036L540.043 89.7026L537.809 84.7952L534.682 87.2489L531.108 85.6131L526.64 86.9763L524.853 83.7046L522.172 85.6131L520.385 84.7952L515.917 87.2489H512.343L511.002 86.1584L509.215 81.7962H505.194L498.045 70.0728L495.812 73.8897L493.578 73.0718L491.344 74.9802L488.663 78.5245L486.876 71.7086L483.302 71.4359L480.174 70.3454L477.493 77.1613L475.259 78.2519L473.472 82.6141L469.004 80.7056L467.217 83.432L464.983 80.1603L462.303 73.617L460.516 65.4379L457.835 69.5275L455.601 64.8926L453.367 64.62L452.473 64.0747H448.452L446.665 67.0737L444.878 65.4379L443.091 67.0737L441.304 71.7086L440.41 77.1613L438.176 79.8877H435.496L434.602 79.3424L431.474 78.5245H429.241L427.453 80.7056L422.539 76.616H420.305L418.071 79.3424L415.837 77.434L413.156 84.2499L411.369 84.7952L410.476 82.6141L409.135 79.8877L406.901 82.6141L404.667 82.8867L402.433 77.434L400.2 83.432L397.966 78.5245L396.178 80.7056L393.498 79.3424L391.264 85.3404L389.03 83.1593L387.243 98.1544L384.562 101.971L382.328 100.063L380.541 102.789L379.647 107.424L377.414 119.147L375.626 126.781L374.286 128.69H371.605V127.872C371.456 127.145 371.069 125.582 370.712 125.146C370.265 124.6 369.818 120.511 369.818 120.238C369.818 119.965 368.478 117.784 368.031 117.512C367.674 117.294 366.989 116.33 366.691 115.876L362.67 114.785L357.755 115.603V114.785C357.606 113.967 357.308 112.277 357.308 112.059C357.308 111.841 356.415 109.242 355.968 107.969L354.181 107.424L351.5 110.15L348.819 107.969L347.479 107.697L345.245 110.15H342.564L341.224 108.515V106.879L340.33 104.97L336.756 103.062L333.629 100.063L331.395 102.517L329.161 100.608L327.374 101.153C327.225 101.79 326.837 103.062 326.48 103.062C326.123 103.062 325.438 105.606 325.14 106.879L322.459 103.062L320.225 116.694L318.885 118.602H313.97L311.736 119.693L309.502 119.147C309.353 118.875 309.055 118.002 309.055 116.694C308.698 114.295 306.226 111.15 305.034 109.878L302.354 112.332L296.099 108.515H294.312C294.163 108.242 293.418 107.533 291.631 106.879C291.273 108.187 288.503 110.696 287.163 111.786L284.929 106.334L283.589 110.968L276.44 110.696L274.206 113.695L271.525 111.786L270.632 112.877C268.696 112.877 264.824 113.04 264.824 113.695C262.59 124.6 261.696 124.328 260.803 125.963C260.445 125.309 257.973 123.51 256.782 122.692L253.654 124.6L251.867 124.328C249.633 130.962 244.808 144.612 243.378 146.139C241.948 147.665 238.91 148.774 237.57 149.138C235.783 149.501 232.119 150.228 231.762 150.228C231.404 150.228 229.826 150.773 229.081 151.046L223.72 151.591C222.826 151.864 220.949 152.409 220.592 152.409C220.235 152.409 217.465 151.864 216.124 151.591L212.997 152.409L209.869 149.683L208.529 150.501H204.508H198.253L196.466 150.228L193.785 152.409L192.445 151.591C192.087 151.373 190.211 151.137 189.317 151.046L187.083 151.319V150.228C187.083 150.01 186.785 149.41 186.636 149.138L185.296 148.047L183.509 145.866L182.615 144.23L182 142.71L180.828 144.23C180.53 144.866 179.935 146.248 179.935 146.684C179.935 147.12 178.743 147.956 178.147 148.32L175.02 149.138L173.233 148.865L169.659 148.32L166.978 150.228L164.744 148.592L162.957 149.683C162.659 149.501 161.974 149.029 161.616 148.592C161.259 148.156 159.68 149.501 158.936 150.228L155.808 148.592L154.468 149.683L151.787 148.32L150.894 151.046Z" fill="url(#paint0_linear_265_884)"/>
<path d="M150 153L150.894 151.111L151.787 148.384L154.468 149.747L155.808 148.656L158.936 150.293C159.68 149.566 161.259 148.22 161.616 148.656C161.974 149.093 162.659 149.565 162.957 149.747L164.744 148.656L166.978 150.293L169.659 148.384L173.233 148.929L175.02 149.202L178.147 148.384C178.743 148.02 179.935 147.183 179.935 146.747C179.935 146.31 180.53 144.928 180.828 144.292L182 142.771L182.615 144.292L183.509 145.929L185.296 148.111L186.636 149.202C186.785 149.475 187.083 150.075 187.083 150.293C187.083 150.511 187.083 151.111 187.083 151.384L189.317 151.111C190.211 151.202 192.087 151.439 192.445 151.657C192.802 151.875 193.487 152.293 193.785 152.475L196.466 150.293L198.253 150.566H204.508H208.529L209.869 149.747L212 155.4L216.124 151.657C217.465 151.93 220.235 152.475 220.592 152.475C220.949 152.475 222.826 151.93 223.72 151.657L229.081 151.111C229.826 150.838 231.404 150.293 231.762 150.293C232.119 150.293 235.783 149.566 237.57 149.202C238.91 148.838 241.948 147.729 243.378 146.201C244.808 144.674 249.633 131.017 251.867 124.38L253.654 124.653L256.782 122.743C257.973 123.562 260.445 125.362 260.803 126.017C261.696 124.38 262.59 124.653 264.824 113.742C264.824 113.087 268.696 112.924 270.632 112.924L271.525 111.833L274.206 113.742L276.44 110.742L283.589 111.014L284.929 106.377L287.163 111.833C288.503 110.742 291.273 108.232 291.631 106.923C293.418 107.577 294.163 108.287 294.312 108.559H296.099L302.354 112.378L305.034 109.923C306.226 111.196 308.698 114.342 309.055 116.742C309.055 118.052 309.353 118.925 309.502 119.197L311.736 119.743L313.97 118.652H318.885L320.225 116.742L322.459 103.104L325.14 106.923C325.438 105.65 326.123 103.104 326.48 103.104C326.837 103.104 327.225 101.831 327.374 101.195L329.161 100.649L331.395 102.559L333.629 100.104L336.756 103.104L340.33 105.013L341.224 106.923V108.559L342.564 110.196H345.245L347.479 107.741L348.819 108.014L351.5 110.196L354.181 107.468L355.968 108.014C356.415 109.287 357.308 111.887 357.308 112.105C357.308 112.324 357.606 114.015 357.755 114.833V115.651L362.67 114.833L366.691 115.924C366.989 116.379 367.674 117.343 368.031 117.561C368.478 117.834 369.818 120.016 369.818 120.288C369.818 120.561 370.265 124.653 370.712 125.198C371.069 125.635 371.456 127.199 371.605 127.926V128.744H374.286L375.626 126.835L377.414 119.197L379.647 107.468L380.541 102.831L382.328 100.104L384.562 102.013L387.243 98.1942L389.03 83.192L391.264 85.3741L393.498 79.3732L396.178 80.7371L397.966 78.5549L400.2 83.4648L402.433 77.4639L404.667 82.9192L406.901 82.6464L409.135 79.9188L410.476 82.6464L411.369 84.8286L413.156 84.2831L415.837 77.4639L418.071 79.3732L420.305 76.6455H422.539L427.453 80.7371L429.241 78.5549H431.474L434.602 79.3732L435.496 79.9188H438.176L440.41 77.1911L441.304 71.7357L443.091 67.0987L444.878 65.4621L446.665 67.0987L448.452 64.0982H452.473L453.367 64.6438L455.601 64.9165L457.835 69.5536L460.516 65.4621L462.303 73.6451L464.983 80.1915L467.217 83.4648L469.004 80.7371L473.472 82.6464L475.259 78.2822L477.493 77.1911L480.174 70.3719L483.302 71.463L486.876 71.7357L488.663 78.5549L491.344 75.0089L493.578 73.0996L495.812 73.9179L498.045 70.0991L505.194 81.8281H509.215L511.002 86.1924L512.343 87.2835H515.917L520.385 84.8286L522.172 85.6469L524.853 83.7375L526.64 87.0107L531.108 85.6469L534.682 87.2835L537.809 84.8286L540.043 89.7384L546.298 86.738L548.979 79.3732L551.213 81.0098L553.894 81.5554L557.915 87.0107L560.149 84.8286L564.616 85.6469L567 91.0156L568.637 84.8286L570.871 89.7384H575.786L577.573 93.0116H584.275L586.509 97.6487L588.743 94.1027L590.53 90.5567L592.317 89.1929L595.445 89.7384L597.678 87.0107L602.146 67.0987L604.827 66.8259L606.614 62.7344L613.316 64.6438L615.103 62.7344L617.337 65.7348L619.571 64.0982L623.592 63.2799L626.273 62.7344L628.953 60.0067L632.974 63.5527L634.762 67.0987L636.996 65.7348L639.229 64.6438L641.91 65.7348L645.484 63.5527H648.165L650.399 57.279L653.527 64.9165L657.101 65.1893L659.335 65.7348L661.569 67.6442H666.037H670.504L673.632 66.8259L675.866 72.0085L679.44 70.9174L682.121 71.7357L684.355 70.9174H687.035C687.78 71.1902 689.359 71.7357 689.716 71.7357C690.074 71.7357 690.759 71.1902 691.057 70.9174L692.397 69.5536L694.631 70.9174L697.312 72.2813L704.46 72.8268L706.247 71.7357L708.034 69.0081L708.928 68.1898L712.502 70.3719L718.31 70.9174H721.885C723.374 71.463 726.353 73.3178 726.353 76.3728C726.353 79.4278 727.246 82.7374 727.693 84.0103L728.586 88.3746C728.884 89.011 729.569 90.393 729.927 90.8295C730.284 91.2659 730.969 91.7387 731.267 91.9206L734.841 91.375C735.139 91.375 735.824 91.375 736.182 91.375C736.539 91.375 738.416 91.9205 739.309 92.1933L741.99 90.0112L746.905 92.1933C747.649 92.1024 749.407 91.9206 750.479 91.9206C751.551 91.9206 752.713 91.9206 753.16 91.9206L754.947 81.5554L756.734 84.0103L758.968 90.8295L760.308 93.0116L763.436 93.2844L765.67 92.1933L768.797 93.8299H773.265L775.052 90.8295L776.839 92.7389L780.86 93.0116L783.988 97.3759L786.222 92.7389L791.583 88.3746H798.285L801.412 84.8286L804.54 85.9197L805.88 88.3746H810.348L813.029 90.8295L818.837 90.5567L821.518 85.9197L825.986 86.1924L828.219 79.9188L830.453 82.6464L832.241 83.192L834.921 81.2826L837.155 83.192L839.389 79.9188H842.963L851.006 87.2835L856.814 86.738L859.048 84.8286L861.282 76.1L865.749 77.4639L868.43 74.4634C868.579 73.3723 868.966 71.1356 869.324 70.9174C869.771 70.6447 869.771 69.0081 870.217 68.7353C870.575 68.5171 873.047 66.8259 874.238 66.0076L876.919 46.6411L880.94 38.4581L885.408 41.7313C886.599 41.0948 888.982 39.7673 888.982 39.5491C888.982 39.3309 889.578 38.7308 889.876 38.4581L893.897 37.6398L897.024 32.4572L901.045 36.5487L903.726 34.6393H908.194L912.215 31.0933L917.13 20.4554L922.044 22.3648L923.385 25.3652L927.406 28.6384L927 15.0001L930.533 27.5473L932.32 24.8197H934.554C935.15 23.4558 936.52 20.619 937.235 20.1826C937.95 19.7462 938.724 19.4552 939.022 19.3643L941.256 29.7295L943.49 19.3643L946.171 19.6371L948.851 17.4549L955.553 21.2737L956 21" stroke="#27AE60" stroke-linecap="round"/>
<path d="M214.062 153.528L212 155.4L211.294 153.528" stroke="#EB5757"/>
<path d="M881 1L881 181" stroke="white" stroke-opacity="0.1" stroke-linecap="round" stroke-dasharray="4 4"/>
<circle cx="881" cy="37" r="7" fill="#27AE60" fill-opacity="0.15"/>
<circle cx="881" cy="37" r="6.5" stroke="#27AE60" stroke-opacity="0.4"/>
<circle cx="881" cy="37" r="3" fill="#27AE60"/>
<rect x="753" y="23" width="116" height="68" rx="6" fill="#1E2430"/>
<rect x="868.646" y="31.7285" width="7.80332" height="7.80332" transform="rotate(49.3112 868.646 31.7285)" fill="#1E2430"/>
<path d="M766.794 44V38.81C766.664 38.8933 766.526 38.9667 766.379 39.03C766.236 39.0933 766.081 39.14 765.914 39.17L765.804 38.09C765.948 38.06 766.108 37.9883 766.284 37.875C766.461 37.7617 766.624 37.6283 766.774 37.475C766.924 37.3183 767.031 37.16 767.094 37H768.074V44H766.794ZM770.486 44V38.81C770.356 38.8933 770.218 38.9667 770.071 39.03C769.928 39.0933 769.773 39.14 769.606 39.17L769.496 38.09C769.639 38.06 769.799 37.9883 769.976 37.875C770.153 37.7617 770.316 37.6283 770.466 37.475C770.616 37.3183 770.723 37.16 770.786 37H771.766V44H770.486ZM772.657 44.85L775.337 37H776.587L773.907 44.85H772.657ZM776.771 44L778.611 41.17C778.854 40.7967 779.049 40.4817 779.196 40.225C779.346 39.9683 779.454 39.7433 779.521 39.55C779.588 39.3567 779.621 39.1667 779.621 38.98C779.621 38.6933 779.539 38.4683 779.376 38.305C779.216 38.1417 778.991 38.06 778.701 38.06C778.351 38.06 778.036 38.1467 777.756 38.32C777.479 38.4933 777.231 38.69 777.011 38.91L776.851 37.62C777.151 37.38 777.469 37.1933 777.806 37.06C778.146 36.9267 778.531 36.86 778.961 36.86C779.384 36.86 779.736 36.9467 780.016 37.12C780.299 37.2933 780.511 37.5233 780.651 37.81C780.791 38.0967 780.861 38.41 780.861 38.75C780.861 39.0133 780.824 39.2783 780.751 39.545C780.678 39.8083 780.556 40.1017 780.386 40.425C780.219 40.745 779.994 41.12 779.711 41.55L778.891 42.8H781.111V44H776.771ZM783.934 44.14C783.514 44.14 783.132 44.0917 782.789 43.995C782.446 43.895 782.171 43.7933 781.964 43.69L782.274 42.61C782.494 42.72 782.747 42.82 783.034 42.91C783.321 42.9967 783.621 43.04 783.934 43.04C784.301 43.04 784.594 42.9567 784.814 42.79C785.034 42.62 785.144 42.36 785.144 42.01C785.144 41.66 785.036 41.3967 784.819 41.22C784.606 41.04 784.284 40.95 783.854 40.95H783.144V39.75H783.844C784.204 39.75 784.479 39.6667 784.669 39.5C784.859 39.3333 784.954 39.1033 784.954 38.81C784.954 38.5533 784.866 38.3483 784.689 38.195C784.516 38.0383 784.264 37.96 783.934 37.96C783.651 37.96 783.382 38.0033 783.129 38.09C782.879 38.1767 782.631 38.29 782.384 38.43L782.194 37.3C782.424 37.18 782.697 37.0767 783.014 36.99C783.334 36.9033 783.684 36.86 784.064 36.86C784.521 36.86 784.906 36.9383 785.219 37.095C785.532 37.2483 785.769 37.46 785.929 37.73C786.092 38 786.174 38.3067 786.174 38.65C786.174 39.1 786.054 39.4817 785.814 39.795C785.574 40.1083 785.234 40.32 784.794 40.43L784.784 40.2C785.271 40.28 785.666 40.475 785.969 40.785C786.272 41.095 786.424 41.5033 786.424 42.01C786.424 42.4667 786.319 42.8533 786.109 43.17C785.902 43.4867 785.612 43.7283 785.239 43.895C784.866 44.0583 784.431 44.14 783.934 44.14ZM786.935 44.85L789.615 37H790.865L788.185 44.85H786.935ZM791.048 44L792.888 41.17C793.132 40.7967 793.327 40.4817 793.473 40.225C793.623 39.9683 793.732 39.7433 793.798 39.55C793.865 39.3567 793.898 39.1667 793.898 38.98C793.898 38.6933 793.817 38.4683 793.653 38.305C793.493 38.1417 793.268 38.06 792.978 38.06C792.628 38.06 792.313 38.1467 792.033 38.32C791.757 38.4933 791.508 38.69 791.288 38.91L791.128 37.62C791.428 37.38 791.747 37.1933 792.083 37.06C792.423 36.9267 792.808 36.86 793.238 36.86C793.662 36.86 794.013 36.9467 794.293 37.12C794.577 37.2933 794.788 37.5233 794.928 37.81C795.068 38.0967 795.138 38.41 795.138 38.75C795.138 39.0133 795.102 39.2783 795.028 39.545C794.955 39.8083 794.833 40.1017 794.663 40.425C794.497 40.745 794.272 41.12 793.988 41.55L793.168 42.8H795.388V44H791.048ZM799.431 44.14C798.841 44.14 798.325 43.9867 797.881 43.68C797.441 43.37 797.098 42.9383 796.851 42.385C796.605 41.8283 796.481 41.18 796.481 40.44C796.481 39.7333 796.605 39.1117 796.851 38.575C797.098 38.035 797.441 37.615 797.881 37.315C798.325 37.0117 798.841 36.86 799.431 36.86C800.025 36.86 800.541 37.0117 800.981 37.315C801.425 37.6183 801.768 38.04 802.011 38.58C802.258 39.1167 802.381 39.7367 802.381 40.44C802.381 41.18 802.258 41.8283 802.011 42.385C801.768 42.9383 801.425 43.37 800.981 43.68C800.541 43.9867 800.025 44.14 799.431 44.14ZM799.431 42.99C799.748 42.99 800.031 42.9033 800.281 42.73C800.535 42.5567 800.735 42.2833 800.881 41.91C801.028 41.5333 801.101 41.0433 801.101 40.44C801.101 39.61 800.941 38.995 800.621 38.595C800.305 38.1917 799.908 37.99 799.431 37.99C798.958 37.99 798.561 38.19 798.241 38.59C797.921 38.9867 797.761 39.6033 797.761 40.44C797.761 41.0367 797.835 41.5233 797.981 41.9C798.128 42.2733 798.326 42.5483 798.576 42.725C798.83 42.9017 799.115 42.99 799.431 42.99ZM803.402 44L805.242 41.17C805.485 40.7967 805.68 40.4817 805.827 40.225C805.977 39.9683 806.085 39.7433 806.152 39.55C806.219 39.3567 806.252 39.1667 806.252 38.98C806.252 38.6933 806.17 38.4683 806.007 38.305C805.847 38.1417 805.622 38.06 805.332 38.06C804.982 38.06 804.667 38.1467 804.387 38.32C804.11 38.4933 803.862 38.69 803.642 38.91L803.482 37.62C803.782 37.38 804.1 37.1933 804.437 37.06C804.777 36.9267 805.162 36.86 805.592 36.86C806.015 36.86 806.367 36.9467 806.647 37.12C806.93 37.2933 807.142 37.5233 807.282 37.81C807.422 38.0967 807.492 38.41 807.492 38.75C807.492 39.0133 807.455 39.2783 807.382 39.545C807.309 39.8083 807.187 40.1017 807.017 40.425C806.85 40.745 806.625 41.12 806.342 41.55L805.522 42.8H807.742V44H803.402ZM810.565 44.14C810.145 44.14 809.763 44.0917 809.42 43.995C809.077 43.895 808.802 43.7933 808.595 43.69L808.905 42.61C809.125 42.72 809.378 42.82 809.665 42.91C809.952 42.9967 810.252 43.04 810.565 43.04C810.932 43.04 811.225 42.9567 811.445 42.79C811.665 42.62 811.775 42.36 811.775 42.01C811.775 41.66 811.667 41.3967 811.45 41.22C811.237 41.04 810.915 40.95 810.485 40.95H809.775V39.75H810.475C810.835 39.75 811.11 39.6667 811.3 39.5C811.49 39.3333 811.585 39.1033 811.585 38.81C811.585 38.5533 811.497 38.3483 811.32 38.195C811.147 38.0383 810.895 37.96 810.565 37.96C810.282 37.96 810.013 38.0033 809.76 38.09C809.51 38.1767 809.262 38.29 809.015 38.43L808.825 37.3C809.055 37.18 809.328 37.0767 809.645 36.99C809.965 36.9033 810.315 36.86 810.695 36.86C811.152 36.86 811.537 36.9383 811.85 37.095C812.163 37.2483 812.4 37.46 812.56 37.73C812.723 38 812.805 38.3067 812.805 38.65C812.805 39.1 812.685 39.4817 812.445 39.795C812.205 40.1083 811.865 40.32 811.425 40.43L811.415 40.2C811.902 40.28 812.297 40.475 812.6 40.785C812.903 41.095 813.055 41.5033 813.055 42.01C813.055 42.4667 812.95 42.8533 812.74 43.17C812.533 43.4867 812.243 43.7283 811.87 43.895C811.497 44.0583 811.062 44.14 810.565 44.14Z" fill="#869CA5"/>
<path d="M777.77 63V56H780.26C780.797 56 781.25 56.08 781.62 56.24C781.99 56.4 782.27 56.6467 782.46 56.98C782.653 57.3133 782.75 57.74 782.75 58.26C782.75 58.7867 782.655 59.2217 782.465 59.565C782.275 59.905 781.997 60.1583 781.63 60.325C781.263 60.4883 780.817 60.57 780.29 60.57H779.05V63H777.77ZM779.05 59.5H780.14C780.577 59.5 780.903 59.4017 781.12 59.205C781.34 59.0083 781.45 58.7 781.45 58.28C781.45 57.86 781.338 57.5533 781.115 57.36C780.895 57.1667 780.56 57.07 780.11 57.07H779.05V59.5ZM783.459 63V58H784.619L784.649 58.53C784.776 58.39 784.954 58.25 785.184 58.11C785.414 57.97 785.666 57.9 785.939 57.9C786.019 57.9 786.092 57.9067 786.159 57.92L786.069 59.14C785.996 59.12 785.922 59.1067 785.849 59.1C785.779 59.0933 785.709 59.09 785.639 59.09C785.429 59.09 785.237 59.1383 785.064 59.235C784.891 59.3317 784.769 59.45 784.699 59.59V63H783.459ZM786.76 63V58H788V63H786.76ZM786.76 57.24V56H788V57.24H786.76ZM791.482 63.1C790.909 63.1 790.427 62.9833 790.037 62.75C789.65 62.5133 789.357 62.2 789.157 61.81C788.96 61.4167 788.862 60.9833 788.862 60.51C788.862 60.0333 788.96 59.5983 789.157 59.205C789.354 58.8083 789.649 58.4917 790.042 58.255C790.435 58.0183 790.929 57.9 791.522 57.9C791.802 57.9 792.055 57.9317 792.282 57.995C792.509 58.055 792.702 58.13 792.862 58.22L792.762 59.22C792.609 59.14 792.435 59.0733 792.242 59.02C792.052 58.9667 791.852 58.94 791.642 58.94C791.162 58.94 790.79 59.085 790.527 59.375C790.264 59.665 790.132 60.0433 790.132 60.51C790.132 60.9533 790.267 61.3267 790.537 61.63C790.807 61.93 791.172 62.08 791.632 62.08C791.829 62.08 792.022 62.0517 792.212 61.995C792.405 61.935 792.592 61.8533 792.772 61.75L792.882 62.8C792.709 62.89 792.499 62.9617 792.252 63.015C792.009 63.0717 791.752 63.1 791.482 63.1ZM796.084 63.1C795.48 63.1 794.977 62.98 794.574 62.74C794.174 62.4967 793.874 62.1767 793.674 61.78C793.474 61.38 793.374 60.9433 793.374 60.47C793.374 60.0133 793.467 59.5917 793.654 59.205C793.844 58.8183 794.12 58.5083 794.484 58.275C794.847 58.0383 795.29 57.92 795.814 57.92C796.294 57.92 796.694 58.0183 797.014 58.215C797.334 58.4117 797.574 58.675 797.734 59.005C797.894 59.3317 797.974 59.6933 797.974 60.09C797.974 60.2 797.967 60.3117 797.954 60.425C797.94 60.535 797.92 60.65 797.894 60.77H794.664C794.71 61.08 794.807 61.3317 794.954 61.525C795.104 61.715 795.285 61.855 795.499 61.945C795.715 62.035 795.947 62.08 796.194 62.08C796.484 62.08 796.754 62.0433 797.004 61.97C797.254 61.8933 797.484 61.7933 797.694 61.67L797.754 62.72C797.564 62.82 797.327 62.9083 797.044 62.985C796.76 63.0617 796.44 63.1 796.084 63.1ZM794.694 59.93H796.714C796.714 59.78 796.685 59.63 796.629 59.48C796.572 59.3267 796.477 59.1983 796.344 59.095C796.214 58.9917 796.037 58.94 795.814 58.94C795.494 58.94 795.242 59.0333 795.059 59.22C794.875 59.4067 794.754 59.6433 794.694 59.93ZM798.7 59.36V58H800V59.36H798.7ZM798.7 63V61.64H800V63H798.7Z" fill="#91A6AF"/>
<path d="M805.503 63.14C805.22 63.14 804.928 63.1117 804.628 63.055C804.328 63.0017 804.05 62.9367 803.793 62.86C803.536 62.78 803.333 62.7033 803.183 62.63L803.333 61.27C803.566 61.3833 803.81 61.4883 804.063 61.585C804.316 61.6817 804.576 61.76 804.843 61.82C805.11 61.88 805.38 61.91 805.653 61.91C805.993 61.91 806.266 61.8433 806.473 61.71C806.68 61.5767 806.783 61.3733 806.783 61.1C806.783 60.89 806.725 60.7217 806.608 60.595C806.491 60.465 806.313 60.35 806.073 60.25C805.833 60.1467 805.526 60.03 805.153 59.9C804.78 59.77 804.445 59.6233 804.148 59.46C803.851 59.2933 803.616 59.0833 803.443 58.83C803.27 58.5767 803.183 58.2533 803.183 57.86C803.183 57.4733 803.278 57.13 803.468 56.83C803.658 56.5267 803.941 56.29 804.318 56.12C804.698 55.9467 805.17 55.86 805.733 55.86C806.16 55.86 806.566 55.9083 806.953 56.005C807.34 56.0983 807.67 56.2 807.943 56.31L807.813 57.62C807.42 57.4433 807.05 57.31 806.703 57.22C806.36 57.1267 806.01 57.08 805.653 57.08C805.28 57.08 804.991 57.1417 804.788 57.265C804.585 57.3883 804.483 57.5733 804.483 57.82C804.483 58.0167 804.54 58.175 804.653 58.295C804.766 58.415 804.928 58.5183 805.138 58.605C805.348 58.6883 805.6 58.7767 805.893 58.87C806.4 59.03 806.825 59.2067 807.168 59.4C807.515 59.59 807.775 59.8217 807.948 60.095C808.125 60.365 808.213 60.7 808.213 61.1C808.213 61.3 808.181 61.5183 808.118 61.755C808.055 61.9883 807.93 62.21 807.743 62.42C807.556 62.63 807.283 62.8033 806.923 62.94C806.566 63.0733 806.093 63.14 805.503 63.14ZM805.353 64.44L805.453 62.66H806.233L806.333 64.44H805.353ZM805.453 56.27L805.353 54.56H806.333L806.233 56.27H805.453ZM813.06 63.14C812.64 63.14 812.258 63.0917 811.915 62.995C811.572 62.895 811.297 62.7933 811.09 62.69L811.4 61.61C811.62 61.72 811.873 61.82 812.16 61.91C812.447 61.9967 812.747 62.04 813.06 62.04C813.427 62.04 813.72 61.9567 813.94 61.79C814.16 61.62 814.27 61.36 814.27 61.01C814.27 60.66 814.162 60.3967 813.945 60.22C813.732 60.04 813.41 59.95 812.98 59.95H812.27V58.75H812.97C813.33 58.75 813.605 58.6667 813.795 58.5C813.985 58.3333 814.08 58.1033 814.08 57.81C814.08 57.5533 813.992 57.3483 813.815 57.195C813.642 57.0383 813.39 56.96 813.06 56.96C812.777 56.96 812.508 57.0033 812.255 57.09C812.005 57.1767 811.757 57.29 811.51 57.43L811.32 56.3C811.55 56.18 811.823 56.0767 812.14 55.99C812.46 55.9033 812.81 55.86 813.19 55.86C813.647 55.86 814.032 55.9383 814.345 56.095C814.658 56.2483 814.895 56.46 815.055 56.73C815.218 57 815.3 57.3067 815.3 57.65C815.3 58.1 815.18 58.4817 814.94 58.795C814.7 59.1083 814.36 59.32 813.92 59.43L813.91 59.2C814.397 59.28 814.792 59.475 815.095 59.785C815.398 60.095 815.55 60.5033 815.55 61.01C815.55 61.4667 815.445 61.8533 815.235 62.17C815.028 62.4867 814.738 62.7283 814.365 62.895C813.992 63.0583 813.557 63.14 813.06 63.14ZM816.911 63L819.531 56.71L819.891 57.2H816.571V56H821.171L818.251 63H816.911ZM822.087 64.2H821.507L821.937 63H821.427V61.64H822.727V62.88L822.087 64.2ZM825.521 63.14C825.101 63.14 824.719 63.0917 824.376 62.995C824.033 62.895 823.758 62.7933 823.551 62.69L823.861 61.61C824.081 61.72 824.334 61.82 824.621 61.91C824.908 61.9967 825.208 62.04 825.521 62.04C825.888 62.04 826.181 61.9567 826.401 61.79C826.621 61.62 826.731 61.36 826.731 61.01C826.731 60.66 826.623 60.3967 826.406 60.22C826.193 60.04 825.871 59.95 825.441 59.95H824.731V58.75H825.431C825.791 58.75 826.066 58.6667 826.256 58.5C826.446 58.3333 826.541 58.1033 826.541 57.81C826.541 57.5533 826.453 57.3483 826.276 57.195C826.103 57.0383 825.851 56.96 825.521 56.96C825.238 56.96 824.969 57.0033 824.716 57.09C824.466 57.1767 824.218 57.29 823.971 57.43L823.781 56.3C824.011 56.18 824.284 56.0767 824.601 55.99C824.921 55.9033 825.271 55.86 825.651 55.86C826.108 55.86 826.493 55.9383 826.806 56.095C827.119 56.2483 827.356 56.46 827.516 56.73C827.679 57 827.761 57.3067 827.761 57.65C827.761 58.1 827.641 58.4817 827.401 58.795C827.161 59.1083 826.821 59.32 826.381 59.43L826.371 59.2C826.858 59.28 827.253 59.475 827.556 59.785C827.859 60.095 828.011 60.5033 828.011 61.01C828.011 61.4667 827.906 61.8533 827.696 62.17C827.489 62.4867 827.199 62.7283 826.826 62.895C826.453 63.0583 826.018 63.14 825.521 63.14ZM830.912 63.14C830.492 63.14 830.11 63.0917 829.767 62.995C829.423 62.895 829.148 62.7933 828.942 62.69L829.252 61.61C829.472 61.72 829.725 61.82 830.012 61.91C830.298 61.9967 830.598 62.04 830.912 62.04C831.278 62.04 831.572 61.9567 831.792 61.79C832.012 61.62 832.122 61.36 832.122 61.01C832.122 60.66 832.013 60.3967 831.797 60.22C831.583 60.04 831.262 59.95 830.832 59.95H830.122V58.75H830.822C831.182 58.75 831.457 58.6667 831.647 58.5C831.837 58.3333 831.932 58.1033 831.932 57.81C831.932 57.5533 831.843 57.3483 831.667 57.195C831.493 57.0383 831.242 56.96 830.912 56.96C830.628 56.96 830.36 57.0033 830.107 57.09C829.857 57.1767 829.608 57.29 829.362 57.43L829.172 56.3C829.402 56.18 829.675 56.0767 829.992 55.99C830.312 55.9033 830.662 55.86 831.042 55.86C831.498 55.86 831.883 55.9383 832.197 56.095C832.51 56.2483 832.747 56.46 832.907 56.73C833.07 57 833.152 57.3067 833.152 57.65C833.152 58.1 833.032 58.4817 832.792 58.795C832.552 59.1083 832.212 59.32 831.772 59.43L831.762 59.2C832.248 59.28 832.643 59.475 832.947 59.785C833.25 60.095 833.402 60.5033 833.402 61.01C833.402 61.4667 833.297 61.8533 833.087 62.17C832.88 62.4867 832.59 62.7283 832.217 62.895C831.843 63.0583 831.408 63.14 830.912 63.14ZM836.892 63.14C836.406 63.14 835.981 63.0317 835.617 62.815C835.254 62.5983 834.972 62.295 834.772 61.905C834.572 61.5117 834.472 61.0533 834.472 60.53C834.472 59.9667 834.571 59.4417 834.767 58.955C834.964 58.465 835.222 58.02 835.542 57.62C835.862 57.2167 836.209 56.8667 836.582 56.57C836.956 56.2733 837.319 56.0367 837.672 55.86L838.562 56.56C838.386 56.6467 838.172 56.77 837.922 56.93C837.676 57.09 837.421 57.2817 837.157 57.505C836.894 57.725 836.647 57.9733 836.417 58.25C836.191 58.5267 836.006 58.8283 835.862 59.155C835.722 59.4783 835.652 59.8233 835.652 60.19L835.292 59.75C835.469 59.4633 835.704 59.2317 835.997 59.055C836.291 58.8783 836.672 58.79 837.142 58.79C837.532 58.79 837.882 58.88 838.192 59.06C838.502 59.24 838.746 59.4883 838.922 59.805C839.102 60.1217 839.192 60.4867 839.192 60.9C839.192 61.3433 839.099 61.7333 838.912 62.07C838.726 62.4067 838.459 62.67 838.112 62.86C837.769 63.0467 837.362 63.14 836.892 63.14ZM836.912 62.08C837.232 62.08 837.499 61.97 837.712 61.75C837.926 61.53 838.032 61.2633 838.032 60.95C838.032 60.6333 837.926 60.3717 837.712 60.165C837.499 59.955 837.232 59.85 836.912 59.85C836.589 59.85 836.321 59.955 836.107 60.165C835.897 60.3717 835.792 60.6333 835.792 60.95C835.792 61.2633 835.897 61.53 836.107 61.75C836.321 61.97 836.589 62.08 836.912 62.08ZM840.067 63V61.64H841.367V63H840.067ZM845.266 63.14C844.676 63.14 844.16 62.9867 843.716 62.68C843.276 62.37 842.933 61.9383 842.686 61.385C842.44 60.8283 842.316 60.18 842.316 59.44C842.316 58.7333 842.44 58.1117 842.686 57.575C842.933 57.035 843.276 56.615 843.716 56.315C844.16 56.0117 844.676 55.86 845.266 55.86C845.86 55.86 846.376 56.0117 846.816 56.315C847.26 56.6183 847.603 57.04 847.846 57.58C848.093 58.1167 848.216 58.7367 848.216 59.44C848.216 60.18 848.093 60.8283 847.846 61.385C847.603 61.9383 847.26 62.37 846.816 62.68C846.376 62.9867 845.86 63.14 845.266 63.14ZM845.266 61.99C845.583 61.99 845.866 61.9033 846.116 61.73C846.37 61.5567 846.57 61.2833 846.716 60.91C846.863 60.5333 846.936 60.0433 846.936 59.44C846.936 58.61 846.776 57.995 846.456 57.595C846.14 57.1917 845.743 56.99 845.266 56.99C844.793 56.99 844.396 57.19 844.076 57.59C843.756 57.9867 843.596 58.6033 843.596 59.44C843.596 60.0367 843.67 60.5233 843.816 60.9C843.963 61.2733 844.161 61.5483 844.411 61.725C844.665 61.9017 844.95 61.99 845.266 61.99ZM852.327 63.14C851.737 63.14 851.22 62.9867 850.777 62.68C850.337 62.37 849.994 61.9383 849.747 61.385C849.5 60.8283 849.377 60.18 849.377 59.44C849.377 58.7333 849.5 58.1117 849.747 57.575C849.994 57.035 850.337 56.615 850.777 56.315C851.22 56.0117 851.737 55.86 852.327 55.86C852.92 55.86 853.437 56.0117 853.877 56.315C854.32 56.6183 854.664 57.04 854.907 57.58C855.154 58.1167 855.277 58.7367 855.277 59.44C855.277 60.18 855.154 60.8283 854.907 61.385C854.664 61.9383 854.32 62.37 853.877 62.68C853.437 62.9867 852.92 63.14 852.327 63.14ZM852.327 61.99C852.644 61.99 852.927 61.9033 853.177 61.73C853.43 61.5567 853.63 61.2833 853.777 60.91C853.924 60.5333 853.997 60.0433 853.997 59.44C853.997 58.61 853.837 57.995 853.517 57.595C853.2 57.1917 852.804 56.99 852.327 56.99C851.854 56.99 851.457 57.19 851.137 57.59C850.817 57.9867 850.657 58.6033 850.657 59.44C850.657 60.0367 850.73 60.5233 850.877 60.9C851.024 61.2733 851.222 61.5483 851.472 61.725C851.725 61.9017 852.01 61.99 852.327 61.99Z" fill="white"/>
<circle cx="769" cy="59" r="3.5" fill="#27AE60" stroke="white"/>
<path d="M779.49 80L777 73H778.29L780.22 78.52H779.96L781.9 73H783.19L780.7 80H779.49ZM785.534 80.1C784.99 80.1 784.527 79.9817 784.144 79.745C783.76 79.5083 783.467 79.1933 783.264 78.8C783.064 78.4067 782.964 77.9767 782.964 77.51C782.964 77.04 783.064 76.6067 783.264 76.21C783.467 75.8133 783.76 75.4967 784.144 75.26C784.527 75.02 784.99 74.9 785.534 74.9C786.077 74.9 786.54 75.02 786.924 75.26C787.307 75.4967 787.599 75.8133 787.799 76.21C788.002 76.6067 788.104 77.04 788.104 77.51C788.104 77.9767 788.002 78.4067 787.799 78.8C787.599 79.1933 787.307 79.5083 786.924 79.745C786.54 79.9817 786.077 80.1 785.534 80.1ZM785.534 79.08C785.95 79.08 786.27 78.935 786.494 78.645C786.72 78.3517 786.834 77.9733 786.834 77.51C786.834 77.04 786.72 76.6583 786.494 76.365C786.27 76.0683 785.95 75.92 785.534 75.92C785.12 75.92 784.8 76.0683 784.574 76.365C784.347 76.6583 784.234 77.04 784.234 77.51C784.234 77.9733 784.347 78.3517 784.574 78.645C784.8 78.935 785.12 79.08 785.534 79.08ZM790.247 80.1C789.95 80.1 789.707 80.0417 789.517 79.925C789.33 79.805 789.192 79.6467 789.102 79.45C789.012 79.25 788.967 79.03 788.967 78.79V72.5H790.207V78.28C790.207 78.5467 790.222 78.7367 790.252 78.85C790.285 78.96 790.345 79.0267 790.432 79.05C790.518 79.07 790.643 79.08 790.807 79.08L790.697 80.1H790.247ZM793.7 80L795.54 77.17C795.783 76.7967 795.978 76.4817 796.125 76.225C796.275 75.9683 796.383 75.7433 796.45 75.55C796.516 75.3567 796.55 75.1667 796.55 74.98C796.55 74.6933 796.468 74.4683 796.305 74.305C796.145 74.1417 795.92 74.06 795.63 74.06C795.28 74.06 794.965 74.1467 794.685 74.32C794.408 74.4933 794.16 74.69 793.94 74.91L793.78 73.62C794.08 73.38 794.398 73.1933 794.735 73.06C795.075 72.9267 795.46 72.86 795.89 72.86C796.313 72.86 796.665 72.9467 796.945 73.12C797.228 73.2933 797.44 73.5233 797.58 73.81C797.72 74.0967 797.79 74.41 797.79 74.75C797.79 75.0133 797.753 75.2783 797.68 75.545C797.606 75.8083 797.485 76.1017 797.315 76.425C797.148 76.745 796.923 77.12 796.64 77.55L795.82 78.8H798.04V80H793.7ZM802.113 80V78.4H798.623L802.473 73H803.343V77.36H804.243V78.4H803.343V80H802.113ZM800.303 77.78L800.063 77.36H802.113V74.38L802.443 74.74L800.303 77.78ZM805.334 80V72.5H806.574V75.73L806.294 75.51C806.504 75.3633 806.732 75.2283 806.979 75.105C807.225 74.9817 807.52 74.92 807.864 74.92C808.304 74.92 808.662 75.0183 808.939 75.215C809.215 75.4083 809.419 75.6783 809.549 76.025C809.679 76.3683 809.744 76.7667 809.744 77.22V80H808.504V77.31C808.504 76.8433 808.429 76.4983 808.279 76.275C808.129 76.0517 807.884 75.94 807.544 75.94C807.254 75.94 807.015 76.0083 806.829 76.145C806.645 76.2783 806.484 76.46 806.344 76.69L806.574 76.02V80H805.334ZM810.731 76.36V75H812.031V76.36H810.731ZM810.731 80V78.64H812.031V80H810.731Z" fill="#91A6AF"/>
<path d="M817.534 80.14C817.251 80.14 816.959 80.1117 816.659 80.055C816.359 80.0017 816.081 79.9367 815.824 79.86C815.568 79.78 815.364 79.7033 815.214 79.63L815.364 78.27C815.598 78.3833 815.841 78.4883 816.094 78.585C816.348 78.6817 816.608 78.76 816.874 78.82C817.141 78.88 817.411 78.91 817.684 78.91C818.024 78.91 818.298 78.8433 818.504 78.71C818.711 78.5767 818.814 78.3733 818.814 78.1C818.814 77.89 818.756 77.7217 818.639 77.595C818.523 77.465 818.344 77.35 818.104 77.25C817.864 77.1467 817.558 77.03 817.184 76.9C816.811 76.77 816.476 76.6233 816.179 76.46C815.883 76.2933 815.648 76.0833 815.474 75.83C815.301 75.5767 815.214 75.2533 815.214 74.86C815.214 74.4733 815.309 74.13 815.499 73.83C815.689 73.5267 815.973 73.29 816.349 73.12C816.729 72.9467 817.201 72.86 817.764 72.86C818.191 72.86 818.598 72.9083 818.984 73.005C819.371 73.0983 819.701 73.2 819.974 73.31L819.844 74.62C819.451 74.4433 819.081 74.31 818.734 74.22C818.391 74.1267 818.041 74.08 817.684 74.08C817.311 74.08 817.023 74.1417 816.819 74.265C816.616 74.3883 816.514 74.5733 816.514 74.82C816.514 75.0167 816.571 75.175 816.684 75.295C816.798 75.415 816.959 75.5183 817.169 75.605C817.379 75.6883 817.631 75.7767 817.924 75.87C818.431 76.03 818.856 76.2067 819.199 76.4C819.546 76.59 819.806 76.8217 819.979 77.095C820.156 77.365 820.244 77.7 820.244 78.1C820.244 78.3 820.213 78.5183 820.149 78.755C820.086 78.9883 819.961 79.21 819.774 79.42C819.588 79.63 819.314 79.8033 818.954 79.94C818.598 80.0733 818.124 80.14 817.534 80.14ZM817.384 81.44L817.484 79.66H818.264L818.364 81.44H817.384ZM817.484 73.27L817.384 71.56H818.364L818.264 73.27H817.484ZM820.975 80L822.815 77.17C823.058 76.7967 823.253 76.4817 823.4 76.225C823.55 75.9683 823.658 75.7433 823.725 75.55C823.792 75.3567 823.825 75.1667 823.825 74.98C823.825 74.6933 823.743 74.4683 823.58 74.305C823.42 74.1417 823.195 74.06 822.905 74.06C822.555 74.06 822.24 74.1467 821.96 74.32C821.683 74.4933 821.435 74.69 821.215 74.91L821.055 73.62C821.355 73.38 821.673 73.1933 822.01 73.06C822.35 72.9267 822.735 72.86 823.165 72.86C823.588 72.86 823.94 72.9467 824.22 73.12C824.503 73.2933 824.715 73.5233 824.855 73.81C824.995 74.0967 825.065 74.41 825.065 74.75C825.065 75.0133 825.028 75.2783 824.955 75.545C824.882 75.8083 824.76 76.1017 824.59 76.425C824.423 76.745 824.198 77.12 823.915 77.55L823.095 78.8H825.315V80H820.975ZM827.268 80V74.81C827.138 74.8933 827 74.9667 826.853 75.03C826.71 75.0933 826.555 75.14 826.388 75.17L826.278 74.09C826.421 74.06 826.581 73.9883 826.758 73.875C826.935 73.7617 827.098 73.6283 827.248 73.475C827.398 73.3183 827.505 73.16 827.568 73H828.548V80H827.268ZM829.98 80V78.64H831.28V80H829.98ZM832.506 80L835.126 73.71L835.486 74.2H832.166V73H836.766L833.846 80H832.506ZM840.062 80V78.4H836.572L840.422 73H841.292V77.36H842.192V78.4H841.292V80H840.062ZM838.252 77.78L838.012 77.36H840.062V74.38L840.392 74.74L838.252 77.78ZM843.483 80V73H846.123C846.8 73 847.301 73.145 847.628 73.435C847.958 73.7217 848.123 74.14 848.123 74.69C848.123 75.1 848.03 75.4433 847.843 75.72C847.66 75.9933 847.383 76.1933 847.013 76.32V76.08C847.573 76.2 847.991 76.42 848.268 76.74C848.545 77.06 848.683 77.4833 848.683 78.01C848.683 78.64 848.48 79.13 848.073 79.48C847.666 79.8267 847.11 80 846.403 80H843.483ZM844.763 78.86H846.213C846.563 78.86 846.841 78.7883 847.048 78.645C847.258 78.5017 847.363 78.2433 847.363 77.87C847.363 77.49 847.253 77.2317 847.033 77.095C846.813 76.9583 846.54 76.89 846.213 76.89H844.763V78.86ZM844.763 75.75H845.933C846.243 75.75 846.475 75.6867 846.628 75.56C846.785 75.4333 846.863 75.23 846.863 74.95C846.863 74.66 846.785 74.4533 846.628 74.33C846.475 74.2033 846.243 74.14 845.933 74.14H844.763V75.75Z" fill="white"/>
<circle cx="769" cy="76" r="3.5" fill="#27AE60" stroke="white"/>
<defs>
<linearGradient id="paint0_linear_265_884" x1="553" y1="-221.727" x2="553" y2="171" gradientUnits="userSpaceOnUse">
<stop stop-color="#27AE60" stop-opacity="0.66"/>
<stop offset="1" stop-color="#27AE60" stop-opacity="0"/>
</linearGradient>
<clipPath id="clip0_265_884">
<rect width="40" height="40" fill="white" transform="translate(0 65)"/>
</clipPath>
</defs>
</svg>
