<svg width="960" height="205" viewBox="0 0 960 205" fill="none" xmlns="http://www.w3.org/2000/svg">
<path d="M20.06 65.2167V65.2364C20.0797 65.3349 20.0797 65.4532 20.0797 65.5714V79.7783C20.06 79.8571 20.0009 79.8768 19.9418 79.9162C19.528 80.1133 19.1339 80.2906 18.7201 80.4679C18.1486 80.7241 17.5575 81 16.9861 81.2561L14.9171 82.2019C14.3457 82.4581 13.7743 82.7142 13.2225 82.9704C12.5526 83.2857 11.8629 83.5812 11.193 83.8965C10.6216 84.1527 10.0501 84.4285 9.45899 84.6847C8.98609 84.9014 8.51318 85.0985 8.05998 85.3152C8.02057 85.3349 7.98116 85.3546 7.94175 85.3546C7.92205 85.3546 7.92205 85.3546 7.90234 85.3349L8.43436 84.4482C9.45899 82.7537 10.4639 81.0788 11.4886 79.3842C12.5723 77.5714 13.6757 75.7586 14.7595 73.9458C15.7644 72.2709 16.789 70.596 17.794 68.9211C18.523 67.6995 19.2718 66.4778 20.0009 65.2561C20.0206 65.2167 20.0403 65.197 20.0403 65.1576H20.06C20.0403 65.1773 20.06 65.197 20.06 65.2167Z" fill="#8A92B2"/>
<path d="M32.1575 85.335L32.1772 85.3547L29.2806 87.069L20.1772 92.4483C20.1378 92.468 20.0983 92.4877 20.0786 92.5074C20.0195 92.5074 20.0195 92.4483 20.0195 92.4286V92.2512V80.0739C20.0195 80.0148 20.0195 79.936 20.0392 79.8769C20.0589 79.798 20.1181 79.8177 20.1772 79.8374C20.4333 79.9557 20.7092 80.0739 20.9653 80.1921C21.7338 80.5468 22.5023 80.9015 23.2708 81.2365C23.9407 81.532 24.591 81.8473 25.2609 82.1429C25.9309 82.4384 26.6008 82.7537 27.2708 83.0493C27.8422 83.3054 28.4333 83.5813 29.0048 83.8374C29.5762 84.0936 30.1673 84.3695 30.7387 84.6256C31.1919 84.8227 31.6452 85.0394 32.0984 85.2365C32.0984 85.2956 32.1181 85.3153 32.1575 85.335Z" fill="#454A75"/>
<path d="M20.059 104.744C20.059 104.764 20.0393 104.783 20.0393 104.803H20.0196C20.0196 104.764 19.9802 104.744 19.9605 104.704C18.7388 102.99 17.5171 101.256 16.2955 99.5418C15.0541 97.7881 13.793 96.0147 12.5516 94.261C11.3496 92.5665 10.128 90.8522 8.926 89.1576C8.61073 88.7044 8.29546 88.2709 7.98018 87.8177C7.96048 87.7783 7.94078 87.7586 7.90137 87.6995C7.96048 87.6995 7.99989 87.7389 8.01959 87.7586C9.73388 88.7635 11.4285 89.7684 13.1427 90.7734C15.1132 91.9359 17.0639 93.0985 19.0344 94.261L20.0393 94.8522C20.0787 94.8916 20.0787 94.931 20.0787 94.9704V104.468C20.0787 104.566 20.0787 104.665 20.059 104.744Z" fill="#8A92B2"/>
<path d="M7.88184 85.3744V85.3547C8.51238 85.0788 9.12322 84.7833 9.75376 84.5074C10.5616 84.133 11.3695 83.7783 12.1774 83.404C12.7882 83.1281 13.4188 82.8325 14.0296 82.5567C14.936 82.1429 15.8227 81.7488 16.7291 81.335C17.34 81.0591 17.9508 80.7833 18.5813 80.4877C19.0148 80.2907 19.468 80.0936 19.9015 79.8966C19.9409 79.8769 20.0001 79.8572 20.0198 79.8177C20.0395 79.8177 20.0395 79.8375 20.0198 79.8572V92.3695C20.0198 92.4286 20.0001 92.4877 20.0395 92.5271C20.0001 92.5862 19.9607 92.5271 19.9409 92.5074C19.7636 92.4089 19.5863 92.3104 19.4089 92.1921C15.606 89.9458 11.7833 87.6798 7.98036 85.4335C7.96065 85.4138 7.92124 85.3941 7.88184 85.3744Z" fill="#62688F"/>
<path d="M32.1184 87.6995H32.1381C32.1381 87.7389 32.0987 87.7783 32.079 87.8177C28.4533 92.9211 24.8277 98.0443 21.2021 103.148C20.8277 103.68 20.4336 104.212 20.0593 104.744C20.0396 104.724 20.0396 104.704 20.0396 104.685V104.566V95.0098V94.8325C20.8671 94.3399 21.675 93.867 22.5026 93.3743C25.6947 91.4827 28.8868 89.6108 32.0593 87.7192C32.079 87.7389 32.0987 87.7192 32.1184 87.6995Z" fill="#62688F"/>
<path d="M20.0394 79.8571V79.8177V79.6995V65.3941C20.0394 65.335 20.0197 65.2956 20.0591 65.2365C24.0591 71.8768 28.0591 78.4975 32.0394 85.1379C32.0788 85.197 32.1379 85.2759 32.1576 85.3547C31.8818 85.2562 31.6256 85.1182 31.3695 85C31.0542 84.8621 30.7192 84.7044 30.4039 84.5665C30.2069 84.468 29.9902 84.3892 29.7931 84.2906C29.4581 84.133 29.1232 83.9951 28.7882 83.8374C28.5911 83.7586 28.3941 83.6601 28.197 83.5616L26.8966 82.9704C26.6798 82.8719 26.4631 82.7734 26.2266 82.6749L25.2808 82.2611C25.0837 82.1823 24.8867 82.0837 24.6897 81.9852L23.3892 81.3941C23.1724 81.2956 22.9557 81.197 22.7192 81.0985L21.7734 80.6847C21.5567 80.5862 21.3596 80.4877 21.1429 80.3892C20.7685 80.2118 20.3941 80.0345 20 79.8768C20.0591 79.8571 20.0394 79.8571 20.0394 79.8571Z" fill="#62688F"/>
<path d="M6.41169 134V122.8H13.5797V124.784H8.50769V127.168H12.4437V129.152H8.50769V132.016H13.7397V134H6.41169ZM17.6814 134V124.784H14.5134V122.8H22.8974V124.784H19.7294V134H17.6814ZM24.3648 134V122.8H26.4128V127.232H31.5328V122.8H33.5808V134H31.5328V129.152H26.4128V134H24.3648Z" fill="white"/>
<path d="M75.6488 15V8.244C75.3608 8.476 75.1228 8.642 74.9348 8.742C74.7468 8.842 74.5688 8.92 74.4008 8.976L74.2088 7.908C74.4248 7.836 74.6448 7.734 74.8688 7.602C75.0968 7.466 75.3068 7.312 75.4988 7.14C75.6948 6.968 75.8528 6.788 75.9728 6.6H76.7528V15H75.6488ZM79.0828 16.284H78.3988L78.8308 15H78.4108V13.728H79.7068V14.88L79.0828 16.284ZM84.6847 15V12.828H80.5447L85.0087 6.6H85.8367V11.856H86.9167V12.828H85.8367V15H84.6847ZM82.2247 12.18L82.0207 11.856H84.6847V8.1L84.8887 8.436L82.2247 12.18ZM91.4302 15.168C90.6902 15.168 90.0562 14.978 89.5282 14.598C89.0002 14.218 88.5942 13.694 88.3102 13.026C88.0302 12.358 87.8902 11.592 87.8902 10.728C87.8902 9.864 88.0402 9.11 88.3402 8.466C88.6402 7.822 89.0562 7.322 89.5882 6.966C90.1202 6.61 90.7342 6.432 91.4302 6.432C92.1422 6.432 92.7622 6.61 93.2902 6.966C93.8222 7.322 94.2342 7.822 94.5262 8.466C94.8222 9.11 94.9702 9.864 94.9702 10.728C94.9702 11.592 94.8302 12.358 94.5502 13.026C94.2702 13.694 93.8662 14.218 93.3382 14.598C92.8102 14.978 92.1742 15.168 91.4302 15.168ZM91.4302 14.136C91.9262 14.136 92.3462 14.004 92.6902 13.74C93.0382 13.476 93.3022 13.09 93.4822 12.582C93.6662 12.074 93.7582 11.456 93.7582 10.728C93.7582 9.636 93.5462 8.82 93.1222 8.28C92.7022 7.736 92.1382 7.464 91.4302 7.464C90.7582 7.464 90.2022 7.736 89.7622 8.28C89.3222 8.82 89.1022 9.636 89.1022 10.728C89.1022 11.456 89.1922 12.074 89.3722 12.582C89.5562 13.09 89.8202 13.476 90.1642 13.74C90.5122 14.004 90.9342 14.136 91.4302 14.136ZM99.8091 15.168C99.0691 15.168 98.4351 14.978 97.9071 14.598C97.3791 14.218 96.9731 13.694 96.6891 13.026C96.4091 12.358 96.2691 11.592 96.2691 10.728C96.2691 9.864 96.4191 9.11 96.7191 8.466C97.0191 7.822 97.4351 7.322 97.9671 6.966C98.4991 6.61 99.1131 6.432 99.8091 6.432C100.521 6.432 101.141 6.61 101.669 6.966C102.201 7.322 102.613 7.822 102.905 8.466C103.201 9.11 103.349 9.864 103.349 10.728C103.349 11.592 103.209 12.358 102.929 13.026C102.649 13.694 102.245 14.218 101.717 14.598C101.189 14.978 100.553 15.168 99.8091 15.168ZM99.8091 14.136C100.305 14.136 100.725 14.004 101.069 13.74C101.417 13.476 101.681 13.09 101.861 12.582C102.045 12.074 102.137 11.456 102.137 10.728C102.137 9.636 101.925 8.82 101.501 8.28C101.081 7.736 100.517 7.464 99.8091 7.464C99.1371 7.464 98.5811 7.736 98.1411 8.28C97.7011 8.82 97.4811 9.636 97.4811 10.728C97.4811 11.456 97.5711 12.074 97.7511 12.582C97.9351 13.09 98.1991 13.476 98.5431 13.74C98.8911 14.004 99.3131 14.136 99.8091 14.136Z" fill="white"/>
<path d="M82.8939 80L82.1139 79.268C82.4459 79.096 82.7679 78.896 83.0799 78.668C83.3959 78.436 83.6899 78.178 83.9619 77.894C84.2339 77.606 84.4719 77.298 84.6759 76.97C84.8799 76.638 85.0399 76.286 85.1559 75.914C85.2719 75.538 85.3299 75.148 85.3299 74.744L85.7139 75.392C85.5219 75.776 85.2279 76.08 84.8319 76.304C84.4359 76.528 83.9699 76.64 83.4339 76.64C82.9459 76.64 82.5139 76.53 82.1379 76.31C81.7619 76.086 81.4679 75.782 81.2559 75.398C81.0439 75.014 80.9379 74.58 80.9379 74.096C80.9379 73.576 81.0539 73.116 81.2859 72.716C81.5179 72.316 81.8399 72.002 82.2519 71.774C82.6679 71.546 83.1499 71.432 83.6979 71.432C84.2859 71.432 84.7879 71.564 85.2039 71.828C85.6239 72.088 85.9439 72.452 86.1639 72.92C86.3839 73.388 86.4939 73.932 86.4939 74.552C86.4939 75.192 86.3879 75.794 86.1759 76.358C85.9639 76.918 85.6819 77.432 85.3299 77.9C84.9819 78.364 84.5959 78.774 84.1719 79.13C83.7479 79.486 83.3219 79.776 82.8939 80ZM83.6979 75.656C84.1779 75.656 84.5639 75.502 84.8559 75.194C85.1479 74.886 85.2939 74.504 85.2939 74.048C85.2939 73.572 85.1479 73.182 84.8559 72.878C84.5639 72.57 84.1779 72.416 83.6979 72.416C83.2179 72.416 82.8339 72.574 82.5459 72.89C82.2579 73.206 82.1139 73.596 82.1139 74.06C82.1139 74.508 82.2579 74.886 82.5459 75.194C82.8339 75.502 83.2179 75.656 83.6979 75.656ZM91.4302 80.168C90.6902 80.168 90.0562 79.978 89.5282 79.598C89.0002 79.218 88.5942 78.694 88.3102 78.026C88.0302 77.358 87.8902 76.592 87.8902 75.728C87.8902 74.864 88.0402 74.11 88.3402 73.466C88.6402 72.822 89.0562 72.322 89.5882 71.966C90.1202 71.61 90.7342 71.432 91.4302 71.432C92.1422 71.432 92.7622 71.61 93.2902 71.966C93.8222 72.322 94.2342 72.822 94.5262 73.466C94.8222 74.11 94.9702 74.864 94.9702 75.728C94.9702 76.592 94.8302 77.358 94.5502 78.026C94.2702 78.694 93.8662 79.218 93.3382 79.598C92.8102 79.978 92.1742 80.168 91.4302 80.168ZM91.4302 79.136C91.9262 79.136 92.3462 79.004 92.6902 78.74C93.0382 78.476 93.3022 78.09 93.4822 77.582C93.6662 77.074 93.7582 76.456 93.7582 75.728C93.7582 74.636 93.5462 73.82 93.1222 73.28C92.7022 72.736 92.1382 72.464 91.4302 72.464C90.7582 72.464 90.2022 72.736 89.7622 73.28C89.3222 73.82 89.1022 74.636 89.1022 75.728C89.1022 76.456 89.1922 77.074 89.3722 77.582C89.5562 78.09 89.8202 78.476 90.1642 78.74C90.5122 79.004 90.9342 79.136 91.4302 79.136ZM99.8091 80.168C99.0691 80.168 98.4351 79.978 97.9071 79.598C97.3791 79.218 96.9731 78.694 96.6891 78.026C96.4091 77.358 96.2691 76.592 96.2691 75.728C96.2691 74.864 96.4191 74.11 96.7191 73.466C97.0191 72.822 97.4351 72.322 97.9671 71.966C98.4991 71.61 99.1131 71.432 99.8091 71.432C100.521 71.432 101.141 71.61 101.669 71.966C102.201 72.322 102.613 72.822 102.905 73.466C103.201 74.11 103.349 74.864 103.349 75.728C103.349 76.592 103.209 77.358 102.929 78.026C102.649 78.694 102.245 79.218 101.717 79.598C101.189 79.978 100.553 80.168 99.8091 80.168ZM99.8091 79.136C100.305 79.136 100.725 79.004 101.069 78.74C101.417 78.476 101.681 78.09 101.861 77.582C102.045 77.074 102.137 76.456 102.137 75.728C102.137 74.636 101.925 73.82 101.501 73.28C101.081 72.736 100.517 72.464 99.8091 72.464C99.1371 72.464 98.5811 72.736 98.1411 73.28C97.7011 73.82 97.4811 74.636 97.4811 75.728C97.4811 76.456 97.5711 77.074 97.7511 77.582C97.9351 78.09 98.1991 78.476 98.5431 78.74C98.8911 79.004 99.3131 79.136 99.8091 79.136Z" fill="white"/>
<path d="M84.6847 145V142.828H80.5447L85.0087 136.6H85.8367V141.856H86.9167V142.828H85.8367V145H84.6847ZM82.2247 142.18L82.0207 141.856H84.6847V138.1L84.8887 138.436L82.2247 142.18ZM91.4302 145.168C90.6902 145.168 90.0562 144.978 89.5282 144.598C89.0002 144.218 88.5942 143.694 88.3102 143.026C88.0302 142.358 87.8902 141.592 87.8902 140.728C87.8902 139.864 88.0402 139.11 88.3402 138.466C88.6402 137.822 89.0562 137.322 89.5882 136.966C90.1202 136.61 90.7342 136.432 91.4302 136.432C92.1422 136.432 92.7622 136.61 93.2902 136.966C93.8222 137.322 94.2342 137.822 94.5262 138.466C94.8222 139.11 94.9702 139.864 94.9702 140.728C94.9702 141.592 94.8302 142.358 94.5502 143.026C94.2702 143.694 93.8662 144.218 93.3382 144.598C92.8102 144.978 92.1742 145.168 91.4302 145.168ZM91.4302 144.136C91.9262 144.136 92.3462 144.004 92.6902 143.74C93.0382 143.476 93.3022 143.09 93.4822 142.582C93.6662 142.074 93.7582 141.456 93.7582 140.728C93.7582 139.636 93.5462 138.82 93.1222 138.28C92.7022 137.736 92.1382 137.464 91.4302 137.464C90.7582 137.464 90.2022 137.736 89.7622 138.28C89.3222 138.82 89.1022 139.636 89.1022 140.728C89.1022 141.456 89.1922 142.074 89.3722 142.582C89.5562 143.09 89.8202 143.476 90.1642 143.74C90.5122 144.004 90.9342 144.136 91.4302 144.136ZM99.8091 145.168C99.0691 145.168 98.4351 144.978 97.9071 144.598C97.3791 144.218 96.9731 143.694 96.6891 143.026C96.4091 142.358 96.2691 141.592 96.2691 140.728C96.2691 139.864 96.4191 139.11 96.7191 138.466C97.0191 137.822 97.4351 137.322 97.9671 136.966C98.4991 136.61 99.1131 136.432 99.8091 136.432C100.521 136.432 101.141 136.61 101.669 136.966C102.201 137.322 102.613 137.822 102.905 138.466C103.201 139.11 103.349 139.864 103.349 140.728C103.349 141.592 103.209 142.358 102.929 143.026C102.649 143.694 102.245 144.218 101.717 144.598C101.189 144.978 100.553 145.168 99.8091 145.168ZM99.8091 144.136C100.305 144.136 100.725 144.004 101.069 143.74C101.417 143.476 101.681 143.09 101.861 142.582C102.045 142.074 102.137 141.456 102.137 140.728C102.137 139.636 101.925 138.82 101.501 138.28C101.081 137.736 100.517 137.464 99.8091 137.464C99.1371 137.464 98.5811 137.736 98.1411 138.28C97.7011 138.82 97.4811 139.636 97.4811 140.728C97.4811 141.456 97.5711 142.074 97.7511 142.582C97.9351 143.09 98.1991 143.476 98.5431 143.74C98.8911 144.004 99.3131 144.136 99.8091 144.136Z" fill="white"/>
<path d="M113.93 203.72L113.8 202.9C114.16 202.9 114.417 202.822 114.57 202.665C114.723 202.508 114.8 202.26 114.8 201.92V195H115.75V202.14C115.75 202.69 115.622 203.09 115.365 203.34C115.108 203.593 114.717 203.72 114.19 203.72H113.93ZM118.201 202.1C117.898 202.1 117.633 202.038 117.406 201.915C117.18 201.792 117.003 201.623 116.876 201.41C116.753 201.197 116.691 200.953 116.691 200.68C116.691 200.403 116.751 200.167 116.871 199.97C116.995 199.77 117.158 199.605 117.361 199.475C117.568 199.342 117.798 199.237 118.051 199.16C118.305 199.08 118.566 199.023 118.836 198.99C119.11 198.953 119.371 198.933 119.621 198.93C119.621 198.463 119.53 198.158 119.346 198.015C119.163 197.872 118.898 197.8 118.551 197.8C118.368 197.8 118.171 197.828 117.961 197.885C117.755 197.942 117.521 198.06 117.261 198.24L117.131 197.51C117.328 197.36 117.573 197.238 117.866 197.145C118.16 197.048 118.468 197 118.791 197C119.205 197 119.538 197.073 119.791 197.22C120.045 197.363 120.23 197.607 120.346 197.95C120.463 198.293 120.521 198.76 120.521 199.35V200.35C120.521 200.583 120.531 200.777 120.551 200.93C120.575 201.08 120.625 201.193 120.701 201.27C120.781 201.343 120.908 201.38 121.081 201.38H121.171L121.031 202.1H120.961C120.671 202.1 120.446 202.072 120.286 202.015C120.13 201.958 120.01 201.877 119.926 201.77C119.843 201.663 119.768 201.533 119.701 201.38C119.518 201.593 119.301 201.767 119.051 201.9C118.801 202.033 118.518 202.1 118.201 202.1ZM118.371 201.38C118.611 201.38 118.843 201.32 119.066 201.2C119.293 201.08 119.478 200.92 119.621 200.72V199.55C119.145 199.567 118.758 199.613 118.461 199.69C118.168 199.767 117.953 199.882 117.816 200.035C117.68 200.188 117.611 200.387 117.611 200.63C117.611 200.893 117.681 201.085 117.821 201.205C117.965 201.322 118.148 201.38 118.371 201.38ZM121.866 202V197.1H122.566L122.746 198.04L122.396 197.89C122.726 197.523 123.048 197.283 123.361 197.17C123.678 197.057 123.986 197 124.286 197C125.003 197 125.514 197.207 125.821 197.62C126.131 198.033 126.286 198.593 126.286 199.3V202H125.386V199.3C125.386 198.78 125.289 198.4 125.096 198.16C124.903 197.92 124.573 197.8 124.106 197.8C123.776 197.8 123.473 197.873 123.196 198.02C122.923 198.163 122.743 198.393 122.656 198.71L122.766 198.16V202H121.866Z" fill="#91A7AF"/>
<path d="M188.071 202V195H192.341V195.86H189.021V197.91H191.581V198.77H189.021V202H188.071ZM195.025 202.1C194.449 202.1 193.964 201.982 193.57 201.745C193.177 201.508 192.879 201.195 192.675 200.805C192.475 200.412 192.375 199.98 192.375 199.51C192.375 199.053 192.469 198.635 192.655 198.255C192.845 197.875 193.119 197.572 193.475 197.345C193.835 197.115 194.269 197 194.775 197C195.182 197 195.544 197.082 195.86 197.245C196.18 197.405 196.43 197.64 196.61 197.95C196.794 198.257 196.885 198.63 196.885 199.07C196.885 199.14 196.882 199.217 196.875 199.3C196.872 199.38 196.862 199.463 196.845 199.55H193.295C193.339 200.003 193.447 200.357 193.62 200.61C193.794 200.863 194.012 201.042 194.275 201.145C194.539 201.248 194.825 201.3 195.135 201.3C195.362 201.3 195.599 201.277 195.845 201.23C196.092 201.183 196.325 201.11 196.545 201.01L196.665 201.72C196.475 201.803 196.244 201.888 195.97 201.975C195.697 202.058 195.382 202.1 195.025 202.1ZM193.375 198.93H195.955C195.955 198.7 195.912 198.5 195.825 198.33C195.739 198.16 195.607 198.03 195.43 197.94C195.254 197.847 195.029 197.8 194.755 197.8C194.355 197.8 194.047 197.9 193.83 198.1C193.617 198.297 193.465 198.573 193.375 198.93ZM200.203 202.1C199.859 202.1 199.526 202.018 199.203 201.855C198.883 201.688 198.659 201.443 198.533 201.12L198.753 200.96L198.583 202H197.783V194.5H198.683V198.06L198.493 197.92C198.659 197.65 198.898 197.43 199.208 197.26C199.518 197.087 199.849 197 200.203 197C200.659 197 201.053 197.12 201.383 197.36C201.713 197.597 201.966 197.91 202.143 198.3C202.323 198.687 202.413 199.103 202.413 199.55C202.413 200.027 202.314 200.458 202.118 200.845C201.921 201.228 201.656 201.533 201.323 201.76C200.989 201.987 200.616 202.1 200.203 202.1ZM200.093 201.3C200.379 201.3 200.628 201.222 200.838 201.065C201.048 200.905 201.209 200.693 201.323 200.43C201.436 200.163 201.493 199.87 201.493 199.55C201.493 199.217 201.436 198.918 201.323 198.655C201.209 198.392 201.048 198.183 200.838 198.03C200.628 197.877 200.379 197.8 200.093 197.8C199.836 197.8 199.596 197.865 199.373 197.995C199.153 198.122 198.974 198.315 198.838 198.575C198.701 198.832 198.633 199.157 198.633 199.55C198.633 199.96 198.701 200.293 198.838 200.55C198.974 200.807 199.153 200.997 199.373 201.12C199.596 201.24 199.836 201.3 200.093 201.3Z" fill="#91A7AF"/>
<path d="M263.967 202L264.907 195H265.717L267.557 198.47L269.377 195H270.197L271.127 202H270.127L269.417 196.29L269.667 196.33L267.567 200.34L265.427 196.33L265.677 196.29L264.967 202H263.967ZM273.294 202.1C272.991 202.1 272.726 202.038 272.499 201.915C272.272 201.792 272.096 201.623 271.969 201.41C271.846 201.197 271.784 200.953 271.784 200.68C271.784 200.403 271.844 200.167 271.964 199.97C272.087 199.77 272.251 199.605 272.454 199.475C272.661 199.342 272.891 199.237 273.144 199.16C273.397 199.08 273.659 199.023 273.929 198.99C274.202 198.953 274.464 198.933 274.714 198.93C274.714 198.463 274.622 198.158 274.439 198.015C274.256 197.872 273.991 197.8 273.644 197.8C273.461 197.8 273.264 197.828 273.054 197.885C272.847 197.942 272.614 198.06 272.354 198.24L272.224 197.51C272.421 197.36 272.666 197.238 272.959 197.145C273.252 197.048 273.561 197 273.884 197C274.297 197 274.631 197.073 274.884 197.22C275.137 197.363 275.322 197.607 275.439 197.95C275.556 198.293 275.614 198.76 275.614 199.35V200.35C275.614 200.583 275.624 200.777 275.644 200.93C275.667 201.08 275.717 201.193 275.794 201.27C275.874 201.343 276.001 201.38 276.174 201.38H276.264L276.124 202.1H276.054C275.764 202.1 275.539 202.072 275.379 202.015C275.222 201.958 275.102 201.877 275.019 201.77C274.936 201.663 274.861 201.533 274.794 201.38C274.611 201.593 274.394 201.767 274.144 201.9C273.894 202.033 273.611 202.1 273.294 202.1ZM273.464 201.38C273.704 201.38 273.936 201.32 274.159 201.2C274.386 201.08 274.571 200.92 274.714 200.72V199.55C274.237 199.567 273.851 199.613 273.554 199.69C273.261 199.767 273.046 199.882 272.909 200.035C272.772 200.188 272.704 200.387 272.704 200.63C272.704 200.893 272.774 201.085 272.914 201.205C273.057 201.322 273.241 201.38 273.464 201.38ZM276.959 202V197.1H277.699L277.809 197.91C278.059 197.6 278.297 197.372 278.524 197.225C278.754 197.075 278.999 197 279.259 197C279.342 197 279.419 197.01 279.489 197.03L279.399 198.02C279.355 198.01 279.309 198.003 279.259 198C279.212 197.993 279.159 197.99 279.099 197.99C278.839 197.99 278.599 198.048 278.379 198.165C278.162 198.278 278.009 198.403 277.919 198.54V202H276.959Z" fill="#91A7AF"/>
<path d="M344.634 200.11H341.634V199.25H344.634V200.11ZM342.994 195.93H343.274L341.124 202H340.124L342.634 195H343.634L346.144 202H345.144L342.994 195.93ZM346.826 204.42V197.1H347.526L347.686 198.22L347.436 198.04C347.642 197.72 347.897 197.467 348.201 197.28C348.504 197.093 348.876 197 349.316 197C349.762 197 350.146 197.113 350.466 197.34C350.786 197.567 351.031 197.873 351.201 198.26C351.371 198.643 351.456 199.073 351.456 199.55C351.456 200.027 351.376 200.458 351.216 200.845C351.056 201.228 350.817 201.533 350.501 201.76C350.184 201.987 349.789 202.1 349.316 202.1C348.926 202.1 348.572 202.02 348.256 201.86C347.942 201.697 347.716 201.453 347.576 201.13L347.726 200.95V204.42H346.826ZM349.146 201.3C349.582 201.3 349.922 201.147 350.166 200.84C350.412 200.53 350.536 200.1 350.536 199.55C350.536 199 350.412 198.572 350.166 198.265C349.922 197.955 349.582 197.8 349.146 197.8C348.876 197.8 348.629 197.865 348.406 197.995C348.186 198.122 348.009 198.315 347.876 198.575C347.742 198.832 347.676 199.157 347.676 199.55C347.676 199.96 347.742 200.293 347.876 200.55C348.009 200.807 348.186 200.997 348.406 201.12C348.629 201.24 348.876 201.3 349.146 201.3ZM352.392 202V197.1H353.132L353.242 197.91C353.492 197.6 353.731 197.372 353.957 197.225C354.187 197.075 354.432 197 354.692 197C354.776 197 354.852 197.01 354.922 197.03L354.832 198.02C354.789 198.01 354.742 198.003 354.692 198C354.646 197.993 354.592 197.99 354.532 197.99C354.272 197.99 354.032 198.048 353.812 198.165C353.596 198.278 353.442 198.403 353.352 198.54V202H352.392Z" fill="#91A7AF"/>
<path d="M415.623 202L416.563 195H417.373L419.213 198.47L421.033 195H421.853L422.783 202H421.783L421.073 196.29L421.323 196.33L419.223 200.34L417.083 196.33L417.333 196.29L416.623 202H415.623ZM424.949 202.1C424.646 202.1 424.381 202.038 424.154 201.915C423.928 201.792 423.751 201.623 423.624 201.41C423.501 201.197 423.439 200.953 423.439 200.68C423.439 200.403 423.499 200.167 423.619 199.97C423.743 199.77 423.906 199.605 424.109 199.475C424.316 199.342 424.546 199.237 424.799 199.16C425.053 199.08 425.314 199.023 425.584 198.99C425.858 198.953 426.119 198.933 426.369 198.93C426.369 198.463 426.278 198.158 426.094 198.015C425.911 197.872 425.646 197.8 425.299 197.8C425.116 197.8 424.919 197.828 424.709 197.885C424.503 197.942 424.269 198.06 424.009 198.24L423.879 197.51C424.076 197.36 424.321 197.238 424.614 197.145C424.908 197.048 425.216 197 425.539 197C425.953 197 426.286 197.073 426.539 197.22C426.793 197.363 426.978 197.607 427.094 197.95C427.211 198.293 427.269 198.76 427.269 199.35V200.35C427.269 200.583 427.279 200.777 427.299 200.93C427.323 201.08 427.373 201.193 427.449 201.27C427.529 201.343 427.656 201.38 427.829 201.38H427.919L427.779 202.1H427.709C427.419 202.1 427.194 202.072 427.034 202.015C426.878 201.958 426.758 201.877 426.674 201.77C426.591 201.663 426.516 201.533 426.449 201.38C426.266 201.593 426.049 201.767 425.799 201.9C425.549 202.033 425.266 202.1 424.949 202.1ZM425.119 201.38C425.359 201.38 425.591 201.32 425.814 201.2C426.041 201.08 426.226 200.92 426.369 200.72V199.55C425.893 199.567 425.506 199.613 425.209 199.69C424.916 199.767 424.701 199.882 424.564 200.035C424.428 200.188 424.359 200.387 424.359 200.63C424.359 200.893 424.429 201.085 424.569 201.205C424.713 201.322 424.896 201.38 425.119 201.38ZM428.789 204.42L429.919 201.78L427.879 197.1H428.879L430.409 200.74L431.789 197.1H432.789L429.789 204.42H428.789Z" fill="#91A7AF"/>
<path d="M493.294 203.72L493.164 202.9C493.524 202.9 493.781 202.822 493.934 202.665C494.088 202.508 494.164 202.26 494.164 201.92V195H495.114V202.14C495.114 202.69 494.986 203.09 494.729 203.34C494.473 203.593 494.081 203.72 493.554 203.72H493.294ZM498.176 202.1C497.792 202.1 497.466 202.023 497.196 201.87C496.926 201.713 496.719 201.477 496.576 201.16C496.436 200.843 496.366 200.44 496.366 199.95V197.1H497.266V199.7C497.266 200.22 497.354 200.617 497.531 200.89C497.711 201.163 498.002 201.3 498.406 201.3C498.682 201.3 498.939 201.233 499.176 201.1C499.412 200.967 499.576 200.753 499.666 200.46L499.536 200.95V197.1H500.436V202H499.636L499.456 201.04L499.696 201.2C499.532 201.503 499.332 201.73 499.096 201.88C498.862 202.027 498.556 202.1 498.176 202.1ZM501.66 202V197.1H502.36L502.54 198.04L502.19 197.89C502.52 197.523 502.841 197.283 503.155 197.17C503.471 197.057 503.78 197 504.08 197C504.796 197 505.308 197.207 505.615 197.62C505.925 198.033 506.08 198.593 506.08 199.3V202H505.18V199.3C505.18 198.78 505.083 198.4 504.89 198.16C504.696 197.92 504.366 197.8 503.9 197.8C503.57 197.8 503.266 197.873 502.99 198.02C502.716 198.163 502.536 198.393 502.45 198.71L502.56 198.16V202H501.66Z" fill="#91A7AF"/>
<path d="M567.406 203.72L567.276 202.9C567.636 202.9 567.892 202.822 568.046 202.665C568.199 202.508 568.276 202.26 568.276 201.92V195H569.226V202.14C569.226 202.69 569.097 203.09 568.841 203.34C568.584 203.593 568.192 203.72 567.666 203.72H567.406ZM572.287 202.1C571.904 202.1 571.577 202.023 571.307 201.87C571.037 201.713 570.83 201.477 570.687 201.16C570.547 200.843 570.477 200.44 570.477 199.95V197.1H571.377V199.7C571.377 200.22 571.465 200.617 571.642 200.89C571.822 201.163 572.114 201.3 572.517 201.3C572.794 201.3 573.05 201.233 573.287 201.1C573.524 200.967 573.687 200.753 573.777 200.46L573.647 200.95V197.1H574.547V202H573.747L573.567 201.04L573.807 201.2C573.644 201.503 573.444 201.73 573.207 201.88C572.974 202.027 572.667 202.1 572.287 202.1ZM577.031 202.1C576.714 202.1 576.463 202.043 576.276 201.93C576.093 201.813 575.961 201.665 575.881 201.485C575.801 201.305 575.761 201.117 575.761 200.92V194.5H576.661V200.4C576.661 200.68 576.679 200.89 576.716 201.03C576.753 201.17 576.826 201.263 576.936 201.31C577.049 201.357 577.221 201.38 577.451 201.38L577.321 202.1H577.031Z" fill="#91A7AF"/>
<path d="M642.945 200.11H639.945V199.25H642.945V200.11ZM641.305 195.93H641.585L639.435 202H638.435L640.945 195H641.945L644.455 202H643.455L641.305 195.93ZM646.78 202.1C646.397 202.1 646.07 202.023 645.8 201.87C645.53 201.713 645.323 201.477 645.18 201.16C645.04 200.843 644.97 200.44 644.97 199.95V197.1H645.87V199.7C645.87 200.22 645.958 200.617 646.135 200.89C646.315 201.163 646.607 201.3 647.01 201.3C647.287 201.3 647.543 201.233 647.78 201.1C648.017 200.967 648.18 200.753 648.27 200.46L648.14 200.95V197.1H649.04V202H648.24L648.06 201.04L648.3 201.2C648.137 201.503 647.937 201.73 647.7 201.88C647.467 202.027 647.16 202.1 646.78 202.1ZM652.244 204.5C651.798 204.5 651.398 204.445 651.044 204.335C650.694 204.225 650.418 204.062 650.214 203.845C650.014 203.628 649.914 203.36 649.914 203.04C649.914 202.773 649.989 202.543 650.139 202.35C650.293 202.16 650.501 202.007 650.764 201.89C650.608 201.813 650.488 201.723 650.404 201.62C650.324 201.513 650.284 201.397 650.284 201.27C650.284 201.12 650.329 200.985 650.419 200.865C650.513 200.742 650.661 200.64 650.864 200.56C650.591 200.39 650.381 200.162 650.234 199.875C650.088 199.585 650.014 199.263 650.014 198.91C650.014 198.553 650.094 198.232 650.254 197.945C650.414 197.655 650.644 197.425 650.944 197.255C651.248 197.085 651.611 197 652.034 197C652.261 197 652.474 197.033 652.674 197.1C652.878 197.167 653.064 197.26 653.234 197.38C653.384 197.293 653.561 197.222 653.764 197.165C653.971 197.108 654.201 197.08 654.454 197.08C654.471 197.08 654.484 197.08 654.494 197.08C654.508 197.08 654.521 197.08 654.534 197.08L654.424 197.68C654.384 197.68 654.346 197.68 654.309 197.68C654.273 197.68 654.234 197.68 654.194 197.68C654.161 197.68 654.084 197.685 653.964 197.695C653.844 197.705 653.734 197.723 653.634 197.75C653.771 197.91 653.876 198.09 653.949 198.29C654.026 198.487 654.064 198.693 654.064 198.91C654.064 199.283 653.983 199.618 653.819 199.915C653.659 200.208 653.428 200.442 653.124 200.615C652.821 200.785 652.458 200.87 652.034 200.87C651.914 200.87 651.799 200.863 651.689 200.85C651.579 200.833 651.474 200.81 651.374 200.78C651.221 200.83 651.144 200.917 651.144 201.04C651.144 201.113 651.188 201.178 651.274 201.235C651.361 201.288 651.501 201.33 651.694 201.36L653.004 201.57C653.534 201.653 653.943 201.807 654.229 202.03C654.519 202.253 654.664 202.57 654.664 202.98C654.664 203.32 654.564 203.602 654.364 203.825C654.168 204.052 653.888 204.22 653.524 204.33C653.161 204.443 652.734 204.5 652.244 204.5ZM652.324 203.7C652.784 203.7 653.138 203.64 653.384 203.52C653.631 203.403 653.754 203.23 653.754 203C653.754 202.82 653.676 202.678 653.519 202.575C653.366 202.472 653.144 202.393 652.854 202.34L651.459 202.105C651.276 202.185 651.116 202.292 650.979 202.425C650.843 202.562 650.774 202.72 650.774 202.9C650.774 203.18 650.914 203.383 651.194 203.51C651.478 203.637 651.854 203.7 652.324 203.7ZM652.034 200.15C652.414 200.15 652.704 200.037 652.904 199.81C653.104 199.58 653.204 199.283 653.204 198.92C653.204 198.57 653.104 198.283 652.904 198.06C652.704 197.833 652.414 197.72 652.034 197.72C651.654 197.72 651.366 197.833 651.169 198.06C650.973 198.283 650.874 198.57 650.874 198.92C650.874 199.283 650.973 199.58 651.169 199.81C651.366 200.037 651.654 200.15 652.034 200.15Z" fill="#91A7AF"/>
<path d="M718.038 202.14C717.748 202.14 717.458 202.118 717.168 202.075C716.878 202.032 716.61 201.977 716.363 201.91C716.117 201.84 715.912 201.767 715.748 201.69L715.878 200.68C716.058 200.767 716.275 200.857 716.528 200.95C716.785 201.043 717.062 201.122 717.358 201.185C717.655 201.248 717.955 201.28 718.258 201.28C718.708 201.28 719.065 201.198 719.328 201.035C719.595 200.868 719.728 200.61 719.728 200.26C719.728 199.997 719.662 199.782 719.528 199.615C719.395 199.445 719.193 199.3 718.923 199.18C718.657 199.06 718.322 198.94 717.918 198.82C717.535 198.707 717.182 198.573 716.858 198.42C716.535 198.263 716.275 198.055 716.078 197.795C715.885 197.532 715.788 197.183 715.788 196.75C715.788 196.38 715.883 196.053 716.073 195.77C716.267 195.483 716.548 195.26 716.918 195.1C717.292 194.94 717.748 194.86 718.288 194.86C718.748 194.86 719.17 194.91 719.553 195.01C719.94 195.11 720.258 195.22 720.508 195.34L720.408 196.35C720.028 196.123 719.665 195.962 719.318 195.865C718.975 195.768 718.618 195.72 718.248 195.72C717.838 195.72 717.498 195.797 717.228 195.95C716.962 196.103 716.828 196.353 716.828 196.7C716.828 196.933 716.888 197.125 717.008 197.275C717.128 197.422 717.307 197.548 717.543 197.655C717.78 197.758 718.075 197.863 718.428 197.97C718.915 198.117 719.333 198.285 719.683 198.475C720.033 198.662 720.302 198.893 720.488 199.17C720.675 199.443 720.768 199.783 720.768 200.19C720.768 200.49 720.712 200.76 720.598 201C720.485 201.24 720.315 201.445 720.088 201.615C719.862 201.785 719.577 201.915 719.233 202.005C718.893 202.095 718.495 202.14 718.038 202.14ZM724.038 202.1C723.461 202.1 722.976 201.982 722.583 201.745C722.19 201.508 721.891 201.195 721.688 200.805C721.488 200.412 721.388 199.98 721.388 199.51C721.388 199.053 721.481 198.635 721.668 198.255C721.858 197.875 722.131 197.572 722.488 197.345C722.848 197.115 723.281 197 723.788 197C724.195 197 724.556 197.082 724.873 197.245C725.193 197.405 725.443 197.64 725.623 197.95C725.806 198.257 725.898 198.63 725.898 199.07C725.898 199.14 725.895 199.217 725.888 199.3C725.885 199.38 725.875 199.463 725.858 199.55H722.308C722.351 200.003 722.46 200.357 722.633 200.61C722.806 200.863 723.025 201.042 723.288 201.145C723.551 201.248 723.838 201.3 724.148 201.3C724.375 201.3 724.611 201.277 724.858 201.23C725.105 201.183 725.338 201.11 725.558 201.01L725.678 201.72C725.488 201.803 725.256 201.888 724.983 201.975C724.71 202.058 724.395 202.1 724.038 202.1ZM722.388 198.93H724.968C724.968 198.7 724.925 198.5 724.838 198.33C724.751 198.16 724.62 198.03 724.443 197.94C724.266 197.847 724.041 197.8 723.768 197.8C723.368 197.8 723.06 197.9 722.843 198.1C722.63 198.297 722.478 198.573 722.388 198.93ZM726.805 204.42V197.1H727.505L727.665 198.22L727.415 198.04C727.622 197.72 727.877 197.467 728.18 197.28C728.484 197.093 728.855 197 729.295 197C729.742 197 730.125 197.113 730.445 197.34C730.765 197.567 731.01 197.873 731.18 198.26C731.35 198.643 731.435 199.073 731.435 199.55C731.435 200.027 731.355 200.458 731.195 200.845C731.035 201.228 730.797 201.533 730.48 201.76C730.164 201.987 729.769 202.1 729.295 202.1C728.905 202.1 728.552 202.02 728.235 201.86C727.922 201.697 727.695 201.453 727.555 201.13L727.705 200.95V204.42H726.805ZM729.125 201.3C729.562 201.3 729.902 201.147 730.145 200.84C730.392 200.53 730.515 200.1 730.515 199.55C730.515 199 730.392 198.572 730.145 198.265C729.902 197.955 729.562 197.8 729.125 197.8C728.855 197.8 728.609 197.865 728.385 197.995C728.165 198.122 727.989 198.315 727.855 198.575C727.722 198.832 727.655 199.157 727.655 199.55C727.655 199.96 727.722 200.293 727.855 200.55C727.989 200.807 728.165 200.997 728.385 201.12C728.609 201.24 728.855 201.3 729.125 201.3Z" fill="#91A7AF"/>
<path d="M796.077 202.14C795.41 202.14 794.817 201.992 794.297 201.695C793.777 201.395 793.368 200.973 793.072 200.43C792.775 199.883 792.627 199.24 792.627 198.5C792.627 197.76 792.775 197.118 793.072 196.575C793.368 196.028 793.777 195.607 794.297 195.31C794.817 195.01 795.41 194.86 796.077 194.86C796.743 194.86 797.337 195.01 797.857 195.31C798.377 195.607 798.785 196.028 799.082 196.575C799.378 197.118 799.527 197.76 799.527 198.5C799.527 199.24 799.378 199.883 799.082 200.43C798.785 200.973 798.377 201.395 797.857 201.695C797.337 201.992 796.743 202.14 796.077 202.14ZM796.077 201.22C796.613 201.22 797.062 201.1 797.422 200.86C797.782 200.617 798.052 200.29 798.232 199.88C798.415 199.467 798.507 199.007 798.507 198.5C798.507 197.993 798.415 197.535 798.232 197.125C798.052 196.712 797.782 196.385 797.422 196.145C797.062 195.902 796.613 195.78 796.077 195.78C795.54 195.78 795.092 195.902 794.732 196.145C794.372 196.385 794.1 196.712 793.917 197.125C793.737 197.535 793.647 197.993 793.647 198.5C793.647 199.007 793.737 199.467 793.917 199.88C794.1 200.29 794.372 200.617 794.732 200.86C795.092 201.1 795.54 201.22 796.077 201.22ZM802.723 202.1C802.17 202.1 801.705 201.988 801.328 201.765C800.955 201.538 800.672 201.235 800.478 200.855C800.288 200.472 800.193 200.047 800.193 199.58C800.193 199.093 800.285 198.655 800.468 198.265C800.655 197.875 800.94 197.567 801.323 197.34C801.707 197.113 802.197 197 802.793 197C803.05 197 803.292 197.027 803.518 197.08C803.748 197.13 803.953 197.2 804.133 197.29L803.993 198.08C803.81 197.993 803.615 197.925 803.408 197.875C803.205 197.825 802.993 197.8 802.773 197.8C802.233 197.8 801.822 197.953 801.538 198.26C801.255 198.567 801.113 198.993 801.113 199.54C801.113 200.073 801.248 200.502 801.518 200.825C801.788 201.148 802.2 201.31 802.753 201.31C802.98 201.31 803.197 201.283 803.403 201.23C803.613 201.177 803.813 201.103 804.003 201.01L804.123 201.73C803.99 201.823 803.795 201.908 803.538 201.985C803.282 202.062 803.01 202.1 802.723 202.1ZM806.704 202.1C806.394 202.1 806.146 202.043 805.959 201.93C805.773 201.817 805.636 201.672 805.549 201.495C805.466 201.315 805.424 201.127 805.424 200.93V197.8H804.584L804.664 197.1H805.424V195.89L806.324 195.8V197.1H807.614V197.8H806.324V200.38C806.324 200.693 806.343 200.92 806.379 201.06C806.416 201.2 806.506 201.288 806.649 201.325C806.796 201.362 807.031 201.38 807.354 201.38H807.584L807.514 202.1H806.704Z" fill="#91A7AF"/>
<path d="M869.564 202V195H870.594L874.044 200.24V195H875.004V202H874.194L870.514 196.47V202H869.564ZM878.418 202.1C877.905 202.1 877.466 201.987 877.103 201.76C876.743 201.53 876.466 201.223 876.273 200.84C876.083 200.453 875.988 200.023 875.988 199.55C875.988 199.077 876.083 198.648 876.273 198.265C876.466 197.878 876.743 197.572 877.103 197.345C877.466 197.115 877.905 197 878.418 197C878.928 197 879.365 197.115 879.728 197.345C880.091 197.572 880.368 197.878 880.558 198.265C880.751 198.648 880.848 199.077 880.848 199.55C880.848 200.023 880.751 200.453 880.558 200.84C880.368 201.223 880.091 201.53 879.728 201.76C879.365 201.987 878.928 202.1 878.418 202.1ZM878.418 201.3C878.905 201.3 879.278 201.147 879.538 200.84C879.798 200.53 879.928 200.1 879.928 199.55C879.928 199 879.798 198.572 879.538 198.265C879.278 197.955 878.905 197.8 878.418 197.8C877.935 197.8 877.561 197.955 877.298 198.265C877.038 198.572 876.908 199 876.908 199.55C876.908 200.1 877.038 200.53 877.298 200.84C877.561 201.147 877.935 201.3 878.418 201.3ZM883.038 202L881.168 197.1H882.168L883.538 201.01L884.898 197.1H885.908L884.048 202H883.038Z" fill="#91A7AF"/>
<path d="M943.8 202V195H946.39C947.067 195 947.667 195.138 948.19 195.415C948.713 195.692 949.123 196.092 949.42 196.615C949.72 197.135 949.87 197.763 949.87 198.5C949.87 199.237 949.72 199.867 949.42 200.39C949.123 200.91 948.713 201.308 948.19 201.585C947.667 201.862 947.067 202 946.39 202H943.8ZM944.75 201.14H946.39C946.923 201.14 947.37 201.03 947.73 200.81C948.093 200.587 948.367 200.277 948.55 199.88C948.737 199.483 948.83 199.023 948.83 198.5C948.83 197.977 948.737 197.517 948.55 197.12C948.367 196.723 948.093 196.415 947.73 196.195C947.37 195.972 946.923 195.86 946.39 195.86H944.75V201.14ZM953.167 202.1C952.59 202.1 952.105 201.982 951.712 201.745C951.319 201.508 951.02 201.195 950.817 200.805C950.617 200.412 950.517 199.98 950.517 199.51C950.517 199.053 950.61 198.635 950.797 198.255C950.987 197.875 951.26 197.572 951.617 197.345C951.977 197.115 952.41 197 952.917 197C953.324 197 953.685 197.082 954.002 197.245C954.322 197.405 954.572 197.64 954.752 197.95C954.935 198.257 955.027 198.63 955.027 199.07C955.027 199.14 955.024 199.217 955.017 199.3C955.014 199.38 955.004 199.463 954.987 199.55H951.437C951.48 200.003 951.589 200.357 951.762 200.61C951.935 200.863 952.154 201.042 952.417 201.145C952.68 201.248 952.967 201.3 953.277 201.3C953.504 201.3 953.74 201.277 953.987 201.23C954.234 201.183 954.467 201.11 954.687 201.01L954.807 201.72C954.617 201.803 954.385 201.888 954.112 201.975C953.839 202.058 953.524 202.1 953.167 202.1ZM951.517 198.93H954.097C954.097 198.7 954.054 198.5 953.967 198.33C953.88 198.16 953.749 198.03 953.572 197.94C953.395 197.847 953.17 197.8 952.897 197.8C952.497 197.8 952.189 197.9 951.972 198.1C951.759 198.297 951.607 198.573 951.517 198.93ZM958.184 202.1C957.631 202.1 957.166 201.988 956.789 201.765C956.416 201.538 956.133 201.235 955.939 200.855C955.749 200.472 955.654 200.047 955.654 199.58C955.654 199.093 955.746 198.655 955.929 198.265C956.116 197.875 956.401 197.567 956.784 197.34C957.168 197.113 957.658 197 958.254 197C958.511 197 958.753 197.027 958.979 197.08C959.209 197.13 959.414 197.2 959.594 197.29L959.454 198.08C959.271 197.993 959.076 197.925 958.869 197.875C958.666 197.825 958.454 197.8 958.234 197.8C957.694 197.8 957.283 197.953 956.999 198.26C956.716 198.567 956.574 198.993 956.574 199.54C956.574 200.073 956.709 200.502 956.979 200.825C957.249 201.148 957.661 201.31 958.214 201.31C958.441 201.31 958.658 201.283 958.864 201.23C959.074 201.177 959.274 201.103 959.464 201.01L959.584 201.73C959.451 201.823 959.256 201.908 958.999 201.985C958.743 202.062 958.471 202.1 958.184 202.1Z" fill="#91A7AF"/>
<rect x="114.5" y="1.5" width="845" height="179" stroke="#2A3241"/>
<path d="M134 56L940 56.0001" stroke="white" stroke-opacity="0.1" stroke-linecap="round" stroke-dasharray="4 4"/>
<path d="M134 126L940 126" stroke="#7D7D7D" stroke-linecap="round" stroke-dasharray="4 4"/>
<path d="M141.471 174.552C139.713 175.034 135.758 176 134 176H940V53.754L930.771 30L920.224 43.9048L910.116 72.004L899.568 65.631L889.9 84.1706L879.352 79.8254L870.123 69.6865L860.455 88.8056L849.468 97.7857L839.36 100.393H828.812L818.704 121.829L809.915 130.23L799.367 132.258L788.381 121.829L767.725 117.484L758.496 127.044L748.388 128.202L738.28 121.829L728.172 127.044L718.943 121.829H707.517L697.848 112.849L688.18 120.091L667.085 115.746L658.296 94.8889L647.748 93.4405L638.08 97.7857L627.093 92.5714L617.864 91.123L606.437 92.5714L597.208 87.0675L586.661 74.6111L576.553 93.4405L566.884 84.1706H555.897L546.229 93.4405L536.121 89.6746L526.013 109.663L515.905 108.504L506.237 94.8889L494.81 88.2262H484.702L475.034 97.7857H464.926H454.378L444.71 101.552L433.723 94.8889L424.933 91.4127H402.96L394.61 94.8889L384.502 65.9206L374.394 73.4524L364.286 94.8889L354.617 91.4127L323.414 108.504L313.306 101.552L302.759 116.905L293.53 145.873L282.983 130.81L272.875 125.016H262.767L252.219 115.456L242.111 116.905L232.443 133.417L221.895 123.857L213.106 120.381H202.558L192.45 130.81L181.024 118.063L172.234 130.81L151.579 168.468L141.471 174.552Z" fill="url(#paint0_linear_0_1)"/>
<path d="M134 176C135.758 176 139.713 175.034 141.471 174.552L151.579 168.468L172.234 130.81L181.024 118.063L192.45 130.81L202.558 120.381H213.106L221.895 123.857L232.443 133.417L242.111 116.905L252.219 115.456L262.767 125.016H272.875L282.983 130.81L293.53 145.873L302.759 116.905L313.306 101.552L323.414 108.504L354.617 91.4127L364.286 94.8889L374.394 73.4524L384.502 65.9206L394.61 94.8889L402.96 91.4127H424.933L433.723 94.8889L444.71 101.552L454.378 97.7857H464.926H475.034L484.702 88.2262H494.81L506.237 94.8889L515.905 108.504L526.013 109.663L536.121 89.6746L546.229 93.4405L555.897 84.1706H566.884L576.553 93.4405L586.661 74.6111L597.208 87.0675L606.437 92.5714L617.864 91.123L627.093 92.5714L638.08 97.7857L647.748 93.4405L658.296 94.8889L667.085 115.746L688.18 120.091L697.848 112.849L707.517 121.829H718.943L728.172 127.044L738.28 121.829L748.388 128.202L758.496 127.044L767.725 117.484L788.381 121.829L799.367 132.258L809.915 130.23L818.704 121.829L828.812 100.393H839.36L849.468 97.7857L860.455 88.8056L870.123 69.6865L879.352 79.8254L889.9 84.1706L899.568 65.631L910.116 72.004L920.224 43.9048L930.771 30L940 53.754" stroke="#27AE60"/>
<path d="M134 176C135.758 176 139.713 175.034 141.471 174.552L151.579 168.468L172.234 130.809L175.5 126.074M188.205 126.074L192.45 130.809L197.504 125.595M224.341 126.074L232.443 133.417L236.742 126.074M299.838 126.074L293.53 145.873L282.983 130.809L275.5 126.521L274.187 125.768M745.5 126.381L748.388 128.202L758.496 127.044L759.136 126.381M793.176 126.381L799.367 132.258L809.915 130.23L813.942 126.381" stroke="#EB5757"/>
<path d="M780 1L780 181" stroke="white" stroke-opacity="0.1" stroke-linecap="round" stroke-dasharray="4 4"/>
<circle cx="780" cy="75" r="7" fill="#27AE60" fill-opacity="0.15"/>
<circle cx="780" cy="75" r="6.5" stroke="#27AE60" stroke-opacity="0.4"/>
<circle cx="780" cy="75" r="3" fill="#27AE60"/>
<rect x="652" y="61" width="116" height="68" rx="6" fill="#1E2430"/>
<rect x="767.646" y="69.7285" width="7.80332" height="7.80332" transform="rotate(49.3112 767.646 69.7285)" fill="#1E2430"/>
<path d="M665.794 82V76.81C665.664 76.8933 665.526 76.9667 665.379 77.03C665.236 77.0933 665.081 77.14 664.914 77.17L664.804 76.09C664.948 76.06 665.108 75.9883 665.284 75.875C665.461 75.7617 665.624 75.6283 665.774 75.475C665.924 75.3183 666.031 75.16 666.094 75H667.074V82H665.794ZM669.486 82V76.81C669.356 76.8933 669.218 76.9667 669.071 77.03C668.928 77.0933 668.773 77.14 668.606 77.17L668.496 76.09C668.639 76.06 668.799 75.9883 668.976 75.875C669.153 75.7617 669.316 75.6283 669.466 75.475C669.616 75.3183 669.723 75.16 669.786 75H670.766V82H669.486ZM671.657 82.85L674.337 75H675.587L672.907 82.85H671.657ZM675.771 82L677.611 79.17C677.854 78.7967 678.049 78.4817 678.196 78.225C678.346 77.9683 678.454 77.7433 678.521 77.55C678.588 77.3567 678.621 77.1667 678.621 76.98C678.621 76.6933 678.539 76.4683 678.376 76.305C678.216 76.1417 677.991 76.06 677.701 76.06C677.351 76.06 677.036 76.1467 676.756 76.32C676.479 76.4933 676.231 76.69 676.011 76.91L675.851 75.62C676.151 75.38 676.469 75.1933 676.806 75.06C677.146 74.9267 677.531 74.86 677.961 74.86C678.384 74.86 678.736 74.9467 679.016 75.12C679.299 75.2933 679.511 75.5233 679.651 75.81C679.791 76.0967 679.861 76.41 679.861 76.75C679.861 77.0133 679.824 77.2783 679.751 77.545C679.678 77.8083 679.556 78.1017 679.386 78.425C679.219 78.745 678.994 79.12 678.711 79.55L677.891 80.8H680.111V82H675.771ZM682.934 82.14C682.514 82.14 682.132 82.0917 681.789 81.995C681.446 81.895 681.171 81.7933 680.964 81.69L681.274 80.61C681.494 80.72 681.747 80.82 682.034 80.91C682.321 80.9967 682.621 81.04 682.934 81.04C683.301 81.04 683.594 80.9567 683.814 80.79C684.034 80.62 684.144 80.36 684.144 80.01C684.144 79.66 684.036 79.3967 683.819 79.22C683.606 79.04 683.284 78.95 682.854 78.95H682.144V77.75H682.844C683.204 77.75 683.479 77.6667 683.669 77.5C683.859 77.3333 683.954 77.1033 683.954 76.81C683.954 76.5533 683.866 76.3483 683.689 76.195C683.516 76.0383 683.264 75.96 682.934 75.96C682.651 75.96 682.382 76.0033 682.129 76.09C681.879 76.1767 681.631 76.29 681.384 76.43L681.194 75.3C681.424 75.18 681.697 75.0767 682.014 74.99C682.334 74.9033 682.684 74.86 683.064 74.86C683.521 74.86 683.906 74.9383 684.219 75.095C684.532 75.2483 684.769 75.46 684.929 75.73C685.092 76 685.174 76.3067 685.174 76.65C685.174 77.1 685.054 77.4817 684.814 77.795C684.574 78.1083 684.234 78.32 683.794 78.43L683.784 78.2C684.271 78.28 684.666 78.475 684.969 78.785C685.272 79.095 685.424 79.5033 685.424 80.01C685.424 80.4667 685.319 80.8533 685.109 81.17C684.902 81.4867 684.612 81.7283 684.239 81.895C683.866 82.0583 683.431 82.14 682.934 82.14ZM685.935 82.85L688.615 75H689.865L687.185 82.85H685.935ZM690.048 82L691.888 79.17C692.132 78.7967 692.327 78.4817 692.473 78.225C692.623 77.9683 692.732 77.7433 692.798 77.55C692.865 77.3567 692.898 77.1667 692.898 76.98C692.898 76.6933 692.817 76.4683 692.653 76.305C692.493 76.1417 692.268 76.06 691.978 76.06C691.628 76.06 691.313 76.1467 691.033 76.32C690.757 76.4933 690.508 76.69 690.288 76.91L690.128 75.62C690.428 75.38 690.747 75.1933 691.083 75.06C691.423 74.9267 691.808 74.86 692.238 74.86C692.662 74.86 693.013 74.9467 693.293 75.12C693.577 75.2933 693.788 75.5233 693.928 75.81C694.068 76.0967 694.138 76.41 694.138 76.75C694.138 77.0133 694.102 77.2783 694.028 77.545C693.955 77.8083 693.833 78.1017 693.663 78.425C693.497 78.745 693.272 79.12 692.988 79.55L692.168 80.8H694.388V82H690.048ZM698.431 82.14C697.841 82.14 697.325 81.9867 696.881 81.68C696.441 81.37 696.098 80.9383 695.851 80.385C695.605 79.8283 695.481 79.18 695.481 78.44C695.481 77.7333 695.605 77.1117 695.851 76.575C696.098 76.035 696.441 75.615 696.881 75.315C697.325 75.0117 697.841 74.86 698.431 74.86C699.025 74.86 699.541 75.0117 699.981 75.315C700.425 75.6183 700.768 76.04 701.011 76.58C701.258 77.1167 701.381 77.7367 701.381 78.44C701.381 79.18 701.258 79.8283 701.011 80.385C700.768 80.9383 700.425 81.37 699.981 81.68C699.541 81.9867 699.025 82.14 698.431 82.14ZM698.431 80.99C698.748 80.99 699.031 80.9033 699.281 80.73C699.535 80.5567 699.735 80.2833 699.881 79.91C700.028 79.5333 700.101 79.0433 700.101 78.44C700.101 77.61 699.941 76.995 699.621 76.595C699.305 76.1917 698.908 75.99 698.431 75.99C697.958 75.99 697.561 76.19 697.241 76.59C696.921 76.9867 696.761 77.6033 696.761 78.44C696.761 79.0367 696.835 79.5233 696.981 79.9C697.128 80.2733 697.326 80.5483 697.576 80.725C697.83 80.9017 698.115 80.99 698.431 80.99ZM702.402 82L704.242 79.17C704.485 78.7967 704.68 78.4817 704.827 78.225C704.977 77.9683 705.085 77.7433 705.152 77.55C705.219 77.3567 705.252 77.1667 705.252 76.98C705.252 76.6933 705.17 76.4683 705.007 76.305C704.847 76.1417 704.622 76.06 704.332 76.06C703.982 76.06 703.667 76.1467 703.387 76.32C703.11 76.4933 702.862 76.69 702.642 76.91L702.482 75.62C702.782 75.38 703.1 75.1933 703.437 75.06C703.777 74.9267 704.162 74.86 704.592 74.86C705.015 74.86 705.367 74.9467 705.647 75.12C705.93 75.2933 706.142 75.5233 706.282 75.81C706.422 76.0967 706.492 76.41 706.492 76.75C706.492 77.0133 706.455 77.2783 706.382 77.545C706.309 77.8083 706.187 78.1017 706.017 78.425C705.85 78.745 705.625 79.12 705.342 79.55L704.522 80.8H706.742V82H702.402ZM709.565 82.14C709.145 82.14 708.763 82.0917 708.42 81.995C708.077 81.895 707.802 81.7933 707.595 81.69L707.905 80.61C708.125 80.72 708.378 80.82 708.665 80.91C708.952 80.9967 709.252 81.04 709.565 81.04C709.932 81.04 710.225 80.9567 710.445 80.79C710.665 80.62 710.775 80.36 710.775 80.01C710.775 79.66 710.667 79.3967 710.45 79.22C710.237 79.04 709.915 78.95 709.485 78.95H708.775V77.75H709.475C709.835 77.75 710.11 77.6667 710.3 77.5C710.49 77.3333 710.585 77.1033 710.585 76.81C710.585 76.5533 710.497 76.3483 710.32 76.195C710.147 76.0383 709.895 75.96 709.565 75.96C709.282 75.96 709.013 76.0033 708.76 76.09C708.51 76.1767 708.262 76.29 708.015 76.43L707.825 75.3C708.055 75.18 708.328 75.0767 708.645 74.99C708.965 74.9033 709.315 74.86 709.695 74.86C710.152 74.86 710.537 74.9383 710.85 75.095C711.163 75.2483 711.4 75.46 711.56 75.73C711.723 76 711.805 76.3067 711.805 76.65C711.805 77.1 711.685 77.4817 711.445 77.795C711.205 78.1083 710.865 78.32 710.425 78.43L710.415 78.2C710.902 78.28 711.297 78.475 711.6 78.785C711.903 79.095 712.055 79.5033 712.055 80.01C712.055 80.4667 711.95 80.8533 711.74 81.17C711.533 81.4867 711.243 81.7283 710.87 81.895C710.497 82.0583 710.062 82.14 709.565 82.14Z" fill="#869CA5"/>
<path d="M676.77 101V94H679.26C679.797 94 680.25 94.08 680.62 94.24C680.99 94.4 681.27 94.6467 681.46 94.98C681.653 95.3133 681.75 95.74 681.75 96.26C681.75 96.7867 681.655 97.2217 681.465 97.565C681.275 97.905 680.997 98.1583 680.63 98.325C680.263 98.4883 679.817 98.57 679.29 98.57H678.05V101H676.77ZM678.05 97.5H679.14C679.577 97.5 679.903 97.4017 680.12 97.205C680.34 97.0083 680.45 96.7 680.45 96.28C680.45 95.86 680.338 95.5533 680.115 95.36C679.895 95.1667 679.56 95.07 679.11 95.07H678.05V97.5ZM682.459 101V96H683.619L683.649 96.53C683.776 96.39 683.954 96.25 684.184 96.11C684.414 95.97 684.666 95.9 684.939 95.9C685.019 95.9 685.092 95.9067 685.159 95.92L685.069 97.14C684.996 97.12 684.922 97.1067 684.849 97.1C684.779 97.0933 684.709 97.09 684.639 97.09C684.429 97.09 684.237 97.1383 684.064 97.235C683.891 97.3317 683.769 97.45 683.699 97.59V101H682.459ZM685.76 101V96H687V101H685.76ZM685.76 95.24V94H687V95.24H685.76ZM690.482 101.1C689.909 101.1 689.427 100.983 689.037 100.75C688.65 100.513 688.357 100.2 688.157 99.81C687.96 99.4167 687.862 98.9833 687.862 98.51C687.862 98.0333 687.96 97.5983 688.157 97.205C688.354 96.8083 688.649 96.4917 689.042 96.255C689.435 96.0183 689.929 95.9 690.522 95.9C690.802 95.9 691.055 95.9317 691.282 95.995C691.509 96.055 691.702 96.13 691.862 96.22L691.762 97.22C691.609 97.14 691.435 97.0733 691.242 97.02C691.052 96.9667 690.852 96.94 690.642 96.94C690.162 96.94 689.79 97.085 689.527 97.375C689.264 97.665 689.132 98.0433 689.132 98.51C689.132 98.9533 689.267 99.3267 689.537 99.63C689.807 99.93 690.172 100.08 690.632 100.08C690.829 100.08 691.022 100.052 691.212 99.995C691.405 99.935 691.592 99.8533 691.772 99.75L691.882 100.8C691.709 100.89 691.499 100.962 691.252 101.015C691.009 101.072 690.752 101.1 690.482 101.1ZM695.084 101.1C694.48 101.1 693.977 100.98 693.574 100.74C693.174 100.497 692.874 100.177 692.674 99.78C692.474 99.38 692.374 98.9433 692.374 98.47C692.374 98.0133 692.467 97.5917 692.654 97.205C692.844 96.8183 693.12 96.5083 693.484 96.275C693.847 96.0383 694.29 95.92 694.814 95.92C695.294 95.92 695.694 96.0183 696.014 96.215C696.334 96.4117 696.574 96.675 696.734 97.005C696.894 97.3317 696.974 97.6933 696.974 98.09C696.974 98.2 696.967 98.3117 696.954 98.425C696.94 98.535 696.92 98.65 696.894 98.77H693.664C693.71 99.08 693.807 99.3317 693.954 99.525C694.104 99.715 694.285 99.855 694.499 99.945C694.715 100.035 694.947 100.08 695.194 100.08C695.484 100.08 695.754 100.043 696.004 99.97C696.254 99.8933 696.484 99.7933 696.694 99.67L696.754 100.72C696.564 100.82 696.327 100.908 696.044 100.985C695.76 101.062 695.44 101.1 695.084 101.1ZM693.694 97.93H695.714C695.714 97.78 695.685 97.63 695.629 97.48C695.572 97.3267 695.477 97.1983 695.344 97.095C695.214 96.9917 695.037 96.94 694.814 96.94C694.494 96.94 694.242 97.0333 694.059 97.22C693.875 97.4067 693.754 97.6433 693.694 97.93ZM697.7 97.36V96H699V97.36H697.7ZM697.7 101V99.64H699V101H697.7Z" fill="#91A6AF"/>
<path d="M704.503 101.14C704.22 101.14 703.928 101.112 703.628 101.055C703.328 101.002 703.05 100.937 702.793 100.86C702.536 100.78 702.333 100.703 702.183 100.63L702.333 99.27C702.566 99.3833 702.81 99.4883 703.063 99.585C703.316 99.6817 703.576 99.76 703.843 99.82C704.11 99.88 704.38 99.91 704.653 99.91C704.993 99.91 705.266 99.8433 705.473 99.71C705.68 99.5767 705.783 99.3733 705.783 99.1C705.783 98.89 705.725 98.7217 705.608 98.595C705.491 98.465 705.313 98.35 705.073 98.25C704.833 98.1467 704.526 98.03 704.153 97.9C703.78 97.77 703.445 97.6233 703.148 97.46C702.851 97.2933 702.616 97.0833 702.443 96.83C702.27 96.5767 702.183 96.2533 702.183 95.86C702.183 95.4733 702.278 95.13 702.468 94.83C702.658 94.5267 702.941 94.29 703.318 94.12C703.698 93.9467 704.17 93.86 704.733 93.86C705.16 93.86 705.566 93.9083 705.953 94.005C706.34 94.0983 706.67 94.2 706.943 94.31L706.813 95.62C706.42 95.4433 706.05 95.31 705.703 95.22C705.36 95.1267 705.01 95.08 704.653 95.08C704.28 95.08 703.991 95.1417 703.788 95.265C703.585 95.3883 703.483 95.5733 703.483 95.82C703.483 96.0167 703.54 96.175 703.653 96.295C703.766 96.415 703.928 96.5183 704.138 96.605C704.348 96.6883 704.6 96.7767 704.893 96.87C705.4 97.03 705.825 97.2067 706.168 97.4C706.515 97.59 706.775 97.8217 706.948 98.095C707.125 98.365 707.213 98.7 707.213 99.1C707.213 99.3 707.181 99.5183 707.118 99.755C707.055 99.9883 706.93 100.21 706.743 100.42C706.556 100.63 706.283 100.803 705.923 100.94C705.566 101.073 705.093 101.14 704.503 101.14ZM704.353 102.44L704.453 100.66H705.233L705.333 102.44H704.353ZM704.453 94.27L704.353 92.56H705.333L705.233 94.27H704.453ZM712.06 101.14C711.64 101.14 711.258 101.092 710.915 100.995C710.572 100.895 710.297 100.793 710.09 100.69L710.4 99.61C710.62 99.72 710.873 99.82 711.16 99.91C711.447 99.9967 711.747 100.04 712.06 100.04C712.427 100.04 712.72 99.9567 712.94 99.79C713.16 99.62 713.27 99.36 713.27 99.01C713.27 98.66 713.162 98.3967 712.945 98.22C712.732 98.04 712.41 97.95 711.98 97.95H711.27V96.75H711.97C712.33 96.75 712.605 96.6667 712.795 96.5C712.985 96.3333 713.08 96.1033 713.08 95.81C713.08 95.5533 712.992 95.3483 712.815 95.195C712.642 95.0383 712.39 94.96 712.06 94.96C711.777 94.96 711.508 95.0033 711.255 95.09C711.005 95.1767 710.757 95.29 710.51 95.43L710.32 94.3C710.55 94.18 710.823 94.0767 711.14 93.99C711.46 93.9033 711.81 93.86 712.19 93.86C712.647 93.86 713.032 93.9383 713.345 94.095C713.658 94.2483 713.895 94.46 714.055 94.73C714.218 95 714.3 95.3067 714.3 95.65C714.3 96.1 714.18 96.4817 713.94 96.795C713.7 97.1083 713.36 97.32 712.92 97.43L712.91 97.2C713.397 97.28 713.792 97.475 714.095 97.785C714.398 98.095 714.55 98.5033 714.55 99.01C714.55 99.4667 714.445 99.8533 714.235 100.17C714.028 100.487 713.738 100.728 713.365 100.895C712.992 101.058 712.557 101.14 712.06 101.14ZM715.911 101L718.531 94.71L718.891 95.2H715.571V94H720.171L717.251 101H715.911ZM721.087 102.2H720.507L720.937 101H720.427V99.64H721.727V100.88L721.087 102.2ZM724.521 101.14C724.101 101.14 723.719 101.092 723.376 100.995C723.033 100.895 722.758 100.793 722.551 100.69L722.861 99.61C723.081 99.72 723.334 99.82 723.621 99.91C723.908 99.9967 724.208 100.04 724.521 100.04C724.888 100.04 725.181 99.9567 725.401 99.79C725.621 99.62 725.731 99.36 725.731 99.01C725.731 98.66 725.623 98.3967 725.406 98.22C725.193 98.04 724.871 97.95 724.441 97.95H723.731V96.75H724.431C724.791 96.75 725.066 96.6667 725.256 96.5C725.446 96.3333 725.541 96.1033 725.541 95.81C725.541 95.5533 725.453 95.3483 725.276 95.195C725.103 95.0383 724.851 94.96 724.521 94.96C724.238 94.96 723.969 95.0033 723.716 95.09C723.466 95.1767 723.218 95.29 722.971 95.43L722.781 94.3C723.011 94.18 723.284 94.0767 723.601 93.99C723.921 93.9033 724.271 93.86 724.651 93.86C725.108 93.86 725.493 93.9383 725.806 94.095C726.119 94.2483 726.356 94.46 726.516 94.73C726.679 95 726.761 95.3067 726.761 95.65C726.761 96.1 726.641 96.4817 726.401 96.795C726.161 97.1083 725.821 97.32 725.381 97.43L725.371 97.2C725.858 97.28 726.253 97.475 726.556 97.785C726.859 98.095 727.011 98.5033 727.011 99.01C727.011 99.4667 726.906 99.8533 726.696 100.17C726.489 100.487 726.199 100.728 725.826 100.895C725.453 101.058 725.018 101.14 724.521 101.14ZM729.912 101.14C729.492 101.14 729.11 101.092 728.767 100.995C728.423 100.895 728.148 100.793 727.942 100.69L728.252 99.61C728.472 99.72 728.725 99.82 729.012 99.91C729.298 99.9967 729.598 100.04 729.912 100.04C730.278 100.04 730.572 99.9567 730.792 99.79C731.012 99.62 731.122 99.36 731.122 99.01C731.122 98.66 731.013 98.3967 730.797 98.22C730.583 98.04 730.262 97.95 729.832 97.95H729.122V96.75H729.822C730.182 96.75 730.457 96.6667 730.647 96.5C730.837 96.3333 730.932 96.1033 730.932 95.81C730.932 95.5533 730.843 95.3483 730.667 95.195C730.493 95.0383 730.242 94.96 729.912 94.96C729.628 94.96 729.36 95.0033 729.107 95.09C728.857 95.1767 728.608 95.29 728.362 95.43L728.172 94.3C728.402 94.18 728.675 94.0767 728.992 93.99C729.312 93.9033 729.662 93.86 730.042 93.86C730.498 93.86 730.883 93.9383 731.197 94.095C731.51 94.2483 731.747 94.46 731.907 94.73C732.07 95 732.152 95.3067 732.152 95.65C732.152 96.1 732.032 96.4817 731.792 96.795C731.552 97.1083 731.212 97.32 730.772 97.43L730.762 97.2C731.248 97.28 731.643 97.475 731.947 97.785C732.25 98.095 732.402 98.5033 732.402 99.01C732.402 99.4667 732.297 99.8533 732.087 100.17C731.88 100.487 731.59 100.728 731.217 100.895C730.843 101.058 730.408 101.14 729.912 101.14ZM735.892 101.14C735.406 101.14 734.981 101.032 734.617 100.815C734.254 100.598 733.972 100.295 733.772 99.905C733.572 99.5117 733.472 99.0533 733.472 98.53C733.472 97.9667 733.571 97.4417 733.767 96.955C733.964 96.465 734.222 96.02 734.542 95.62C734.862 95.2167 735.209 94.8667 735.582 94.57C735.956 94.2733 736.319 94.0367 736.672 93.86L737.562 94.56C737.386 94.6467 737.172 94.77 736.922 94.93C736.676 95.09 736.421 95.2817 736.157 95.505C735.894 95.725 735.647 95.9733 735.417 96.25C735.191 96.5267 735.006 96.8283 734.862 97.155C734.722 97.4783 734.652 97.8233 734.652 98.19L734.292 97.75C734.469 97.4633 734.704 97.2317 734.997 97.055C735.291 96.8783 735.672 96.79 736.142 96.79C736.532 96.79 736.882 96.88 737.192 97.06C737.502 97.24 737.746 97.4883 737.922 97.805C738.102 98.1217 738.192 98.4867 738.192 98.9C738.192 99.3433 738.099 99.7333 737.912 100.07C737.726 100.407 737.459 100.67 737.112 100.86C736.769 101.047 736.362 101.14 735.892 101.14ZM735.912 100.08C736.232 100.08 736.499 99.97 736.712 99.75C736.926 99.53 737.032 99.2633 737.032 98.95C737.032 98.6333 736.926 98.3717 736.712 98.165C736.499 97.955 736.232 97.85 735.912 97.85C735.589 97.85 735.321 97.955 735.107 98.165C734.897 98.3717 734.792 98.6333 734.792 98.95C734.792 99.2633 734.897 99.53 735.107 99.75C735.321 99.97 735.589 100.08 735.912 100.08ZM739.067 101V99.64H740.367V101H739.067ZM744.266 101.14C743.676 101.14 743.16 100.987 742.716 100.68C742.276 100.37 741.933 99.9383 741.686 99.385C741.44 98.8283 741.316 98.18 741.316 97.44C741.316 96.7333 741.44 96.1117 741.686 95.575C741.933 95.035 742.276 94.615 742.716 94.315C743.16 94.0117 743.676 93.86 744.266 93.86C744.86 93.86 745.376 94.0117 745.816 94.315C746.26 94.6183 746.603 95.04 746.846 95.58C747.093 96.1167 747.216 96.7367 747.216 97.44C747.216 98.18 747.093 98.8283 746.846 99.385C746.603 99.9383 746.26 100.37 745.816 100.68C745.376 100.987 744.86 101.14 744.266 101.14ZM744.266 99.99C744.583 99.99 744.866 99.9033 745.116 99.73C745.37 99.5567 745.57 99.2833 745.716 98.91C745.863 98.5333 745.936 98.0433 745.936 97.44C745.936 96.61 745.776 95.995 745.456 95.595C745.14 95.1917 744.743 94.99 744.266 94.99C743.793 94.99 743.396 95.19 743.076 95.59C742.756 95.9867 742.596 96.6033 742.596 97.44C742.596 98.0367 742.67 98.5233 742.816 98.9C742.963 99.2733 743.161 99.5483 743.411 99.725C743.665 99.9017 743.95 99.99 744.266 99.99ZM751.327 101.14C750.737 101.14 750.22 100.987 749.777 100.68C749.337 100.37 748.994 99.9383 748.747 99.385C748.5 98.8283 748.377 98.18 748.377 97.44C748.377 96.7333 748.5 96.1117 748.747 95.575C748.994 95.035 749.337 94.615 749.777 94.315C750.22 94.0117 750.737 93.86 751.327 93.86C751.92 93.86 752.437 94.0117 752.877 94.315C753.32 94.6183 753.664 95.04 753.907 95.58C754.154 96.1167 754.277 96.7367 754.277 97.44C754.277 98.18 754.154 98.8283 753.907 99.385C753.664 99.9383 753.32 100.37 752.877 100.68C752.437 100.987 751.92 101.14 751.327 101.14ZM751.327 99.99C751.644 99.99 751.927 99.9033 752.177 99.73C752.43 99.5567 752.63 99.2833 752.777 98.91C752.924 98.5333 752.997 98.0433 752.997 97.44C752.997 96.61 752.837 95.995 752.517 95.595C752.2 95.1917 751.804 94.99 751.327 94.99C750.854 94.99 750.457 95.19 750.137 95.59C749.817 95.9867 749.657 96.6033 749.657 97.44C749.657 98.0367 749.73 98.5233 749.877 98.9C750.024 99.2733 750.222 99.5483 750.472 99.725C750.725 99.9017 751.01 99.99 751.327 99.99Z" fill="white"/>
<circle cx="668" cy="97" r="3.5" fill="#27AE60" stroke="white"/>
<path d="M678.49 118L676 111H677.29L679.22 116.52H678.96L680.9 111H682.19L679.7 118H678.49ZM684.534 118.1C683.99 118.1 683.527 117.982 683.144 117.745C682.76 117.508 682.467 117.193 682.264 116.8C682.064 116.407 681.964 115.977 681.964 115.51C681.964 115.04 682.064 114.607 682.264 114.21C682.467 113.813 682.76 113.497 683.144 113.26C683.527 113.02 683.99 112.9 684.534 112.9C685.077 112.9 685.54 113.02 685.924 113.26C686.307 113.497 686.599 113.813 686.799 114.21C687.002 114.607 687.104 115.04 687.104 115.51C687.104 115.977 687.002 116.407 686.799 116.8C686.599 117.193 686.307 117.508 685.924 117.745C685.54 117.982 685.077 118.1 684.534 118.1ZM684.534 117.08C684.95 117.08 685.27 116.935 685.494 116.645C685.72 116.352 685.834 115.973 685.834 115.51C685.834 115.04 685.72 114.658 685.494 114.365C685.27 114.068 684.95 113.92 684.534 113.92C684.12 113.92 683.8 114.068 683.574 114.365C683.347 114.658 683.234 115.04 683.234 115.51C683.234 115.973 683.347 116.352 683.574 116.645C683.8 116.935 684.12 117.08 684.534 117.08ZM689.247 118.1C688.95 118.1 688.707 118.042 688.517 117.925C688.33 117.805 688.192 117.647 688.102 117.45C688.012 117.25 687.967 117.03 687.967 116.79V110.5H689.207V116.28C689.207 116.547 689.222 116.737 689.252 116.85C689.285 116.96 689.345 117.027 689.432 117.05C689.518 117.07 689.643 117.08 689.807 117.08L689.697 118.1H689.247ZM692.7 118L694.54 115.17C694.783 114.797 694.978 114.482 695.125 114.225C695.275 113.968 695.383 113.743 695.45 113.55C695.516 113.357 695.55 113.167 695.55 112.98C695.55 112.693 695.468 112.468 695.305 112.305C695.145 112.142 694.92 112.06 694.63 112.06C694.28 112.06 693.965 112.147 693.685 112.32C693.408 112.493 693.16 112.69 692.94 112.91L692.78 111.62C693.08 111.38 693.398 111.193 693.735 111.06C694.075 110.927 694.46 110.86 694.89 110.86C695.313 110.86 695.665 110.947 695.945 111.12C696.228 111.293 696.44 111.523 696.58 111.81C696.72 112.097 696.79 112.41 696.79 112.75C696.79 113.013 696.753 113.278 696.68 113.545C696.606 113.808 696.485 114.102 696.315 114.425C696.148 114.745 695.923 115.12 695.64 115.55L694.82 116.8H697.04V118H692.7ZM701.113 118V116.4H697.623L701.473 111H702.343V115.36H703.243V116.4H702.343V118H701.113ZM699.303 115.78L699.063 115.36H701.113V112.38L701.443 112.74L699.303 115.78ZM704.334 118V110.5H705.574V113.73L705.294 113.51C705.504 113.363 705.732 113.228 705.979 113.105C706.225 112.982 706.52 112.92 706.864 112.92C707.304 112.92 707.662 113.018 707.939 113.215C708.215 113.408 708.419 113.678 708.549 114.025C708.679 114.368 708.744 114.767 708.744 115.22V118H707.504V115.31C707.504 114.843 707.429 114.498 707.279 114.275C707.129 114.052 706.884 113.94 706.544 113.94C706.254 113.94 706.015 114.008 705.829 114.145C705.645 114.278 705.484 114.46 705.344 114.69L705.574 114.02V118H704.334ZM709.731 114.36V113H711.031V114.36H709.731ZM709.731 118V116.64H711.031V118H709.731Z" fill="#91A6AF"/>
<path d="M716.534 118.14C716.251 118.14 715.959 118.112 715.659 118.055C715.359 118.002 715.081 117.937 714.824 117.86C714.568 117.78 714.364 117.703 714.214 117.63L714.364 116.27C714.598 116.383 714.841 116.488 715.094 116.585C715.348 116.682 715.608 116.76 715.874 116.82C716.141 116.88 716.411 116.91 716.684 116.91C717.024 116.91 717.298 116.843 717.504 116.71C717.711 116.577 717.814 116.373 717.814 116.1C717.814 115.89 717.756 115.722 717.639 115.595C717.523 115.465 717.344 115.35 717.104 115.25C716.864 115.147 716.558 115.03 716.184 114.9C715.811 114.77 715.476 114.623 715.179 114.46C714.883 114.293 714.648 114.083 714.474 113.83C714.301 113.577 714.214 113.253 714.214 112.86C714.214 112.473 714.309 112.13 714.499 111.83C714.689 111.527 714.973 111.29 715.349 111.12C715.729 110.947 716.201 110.86 716.764 110.86C717.191 110.86 717.598 110.908 717.984 111.005C718.371 111.098 718.701 111.2 718.974 111.31L718.844 112.62C718.451 112.443 718.081 112.31 717.734 112.22C717.391 112.127 717.041 112.08 716.684 112.08C716.311 112.08 716.023 112.142 715.819 112.265C715.616 112.388 715.514 112.573 715.514 112.82C715.514 113.017 715.571 113.175 715.684 113.295C715.798 113.415 715.959 113.518 716.169 113.605C716.379 113.688 716.631 113.777 716.924 113.87C717.431 114.03 717.856 114.207 718.199 114.4C718.546 114.59 718.806 114.822 718.979 115.095C719.156 115.365 719.244 115.7 719.244 116.1C719.244 116.3 719.213 116.518 719.149 116.755C719.086 116.988 718.961 117.21 718.774 117.42C718.588 117.63 718.314 117.803 717.954 117.94C717.598 118.073 717.124 118.14 716.534 118.14ZM716.384 119.44L716.484 117.66H717.264L717.364 119.44H716.384ZM716.484 111.27L716.384 109.56H717.364L717.264 111.27H716.484ZM719.975 118L721.815 115.17C722.058 114.797 722.253 114.482 722.4 114.225C722.55 113.968 722.658 113.743 722.725 113.55C722.792 113.357 722.825 113.167 722.825 112.98C722.825 112.693 722.743 112.468 722.58 112.305C722.42 112.142 722.195 112.06 721.905 112.06C721.555 112.06 721.24 112.147 720.96 112.32C720.683 112.493 720.435 112.69 720.215 112.91L720.055 111.62C720.355 111.38 720.673 111.193 721.01 111.06C721.35 110.927 721.735 110.86 722.165 110.86C722.588 110.86 722.94 110.947 723.22 111.12C723.503 111.293 723.715 111.523 723.855 111.81C723.995 112.097 724.065 112.41 724.065 112.75C724.065 113.013 724.028 113.278 723.955 113.545C723.882 113.808 723.76 114.102 723.59 114.425C723.423 114.745 723.198 115.12 722.915 115.55L722.095 116.8H724.315V118H719.975ZM726.268 118V112.81C726.138 112.893 726 112.967 725.853 113.03C725.71 113.093 725.555 113.14 725.388 113.17L725.278 112.09C725.421 112.06 725.581 111.988 725.758 111.875C725.935 111.762 726.098 111.628 726.248 111.475C726.398 111.318 726.505 111.16 726.568 111H727.548V118H726.268ZM728.98 118V116.64H730.28V118H728.98ZM731.506 118L734.126 111.71L734.486 112.2H731.166V111H735.766L732.846 118H731.506ZM739.062 118V116.4H735.572L739.422 111H740.292V115.36H741.192V116.4H740.292V118H739.062ZM737.252 115.78L737.012 115.36H739.062V112.38L739.392 112.74L737.252 115.78ZM742.483 118V111H745.123C745.8 111 746.301 111.145 746.628 111.435C746.958 111.722 747.123 112.14 747.123 112.69C747.123 113.1 747.03 113.443 746.843 113.72C746.66 113.993 746.383 114.193 746.013 114.32V114.08C746.573 114.2 746.991 114.42 747.268 114.74C747.545 115.06 747.683 115.483 747.683 116.01C747.683 116.64 747.48 117.13 747.073 117.48C746.666 117.827 746.11 118 745.403 118H742.483ZM743.763 116.86H745.213C745.563 116.86 745.841 116.788 746.048 116.645C746.258 116.502 746.363 116.243 746.363 115.87C746.363 115.49 746.253 115.232 746.033 115.095C745.813 114.958 745.54 114.89 745.213 114.89H743.763V116.86ZM743.763 113.75H744.933C745.243 113.75 745.475 113.687 745.628 113.56C745.785 113.433 745.863 113.23 745.863 112.95C745.863 112.66 745.785 112.453 745.628 112.33C745.475 112.203 745.243 112.14 744.933 112.14H743.763V113.75Z" fill="white"/>
<circle cx="668" cy="114" r="3.5" fill="#27AE60" stroke="white"/>
<defs>
<linearGradient id="paint0_linear_0_1" x1="537" y1="-191.552" x2="537" y2="176" gradientUnits="userSpaceOnUse">
<stop stop-color="#27AE60" stop-opacity="0.66"/>
<stop offset="1" stop-color="#27AE60" stop-opacity="0"/>
</linearGradient>
</defs>
</svg>
