<svg width="960" height="205" viewBox="0 0 960 205" fill="none" xmlns="http://www.w3.org/2000/svg">
<path d="M34.1404 68.3333H39.9217L27.8904 80.2458C23.5334 84.5575 16.4693 84.5575 12.1092 80.2458L0.0732422 68.3333H5.85918L14.9998 77.3825C16.3316 78.6951 18.1264 79.4309 19.9963 79.4309C21.8662 79.4309 23.661 78.6951 24.9928 77.3825L34.1404 68.3333Z" fill="white"/>
<path d="M5.78516 101.458H0L12.1094 89.4723C16.4664 85.1606 23.5305 85.1606 27.8906 89.4723L40 101.458H34.2188L25 92.3356C23.6682 91.023 21.8734 90.2872 20.0035 90.2872C18.1336 90.2872 16.3388 91.023 15.007 92.3356L5.78516 101.458Z" fill="white"/>
<path d="M5.18675 134L9.10675 128.256L5.37875 122.8H7.65075L10.2268 126.608L12.8028 122.8H15.0748L11.3468 128.256L15.2668 134H12.9948L10.2268 129.92L7.45875 134H5.18675ZM16.4664 134V122.8H20.5624C21.3357 122.8 22.0104 122.923 22.5864 123.168C23.1677 123.413 23.6184 123.787 23.9384 124.288C24.2584 124.789 24.4184 125.424 24.4184 126.192C24.4184 127.013 24.2424 127.667 23.8904 128.152C23.5437 128.632 23.085 129.013 22.5144 129.296L25.0424 134H22.7544L20.5944 129.84C20.5784 129.84 20.565 129.84 20.5544 129.84C20.5437 129.84 20.5304 129.84 20.5144 129.84H18.5144V134H16.4664ZM18.5144 128.128H20.0184C20.861 128.128 21.4477 127.957 21.7784 127.616C22.109 127.269 22.2744 126.832 22.2744 126.304C22.2744 125.744 22.1117 125.307 21.7864 124.992C21.461 124.672 20.8984 124.512 20.0984 124.512H18.5144V128.128ZM26.482 134V122.8H30.466C31.3247 122.8 32.05 122.928 32.642 123.184C33.234 123.44 33.682 123.835 33.986 124.368C34.2953 124.901 34.45 125.584 34.45 126.416C34.45 127.259 34.298 127.955 33.994 128.504C33.69 129.048 33.2447 129.453 32.658 129.72C32.0713 129.981 31.3567 130.112 30.514 130.112H28.53V134H26.482ZM28.53 128.4H30.274C30.9727 128.4 31.4953 128.243 31.842 127.928C32.194 127.613 32.37 127.12 32.37 126.448C32.37 125.776 32.1913 125.285 31.834 124.976C31.482 124.667 30.946 124.512 30.226 124.512H28.53V128.4Z" fill="white"/>
<path d="M94.6566 15V8.244C94.3686 8.476 94.1306 8.642 93.9426 8.742C93.7546 8.842 93.5766 8.92 93.4086 8.976L93.2166 7.908C93.4326 7.836 93.6526 7.734 93.8766 7.602C94.1046 7.466 94.3146 7.312 94.5066 7.14C94.7026 6.968 94.8606 6.788 94.9806 6.6H95.7606V15H94.6566ZM100.359 15.168C99.7587 15.168 99.2407 15.06 98.8047 14.844C98.3687 14.624 98.0327 14.322 97.7967 13.938C97.5607 13.55 97.4427 13.104 97.4427 12.6C97.4427 12.08 97.5647 11.626 97.8087 11.238C98.0527 10.85 98.3927 10.548 98.8287 10.332C99.2687 10.116 99.7787 10.008 100.359 10.008C100.939 10.008 101.447 10.116 101.883 10.332C102.323 10.548 102.665 10.85 102.909 11.238C103.153 11.626 103.275 12.08 103.275 12.6C103.275 13.104 103.155 13.55 102.915 13.938C102.679 14.322 102.343 14.624 101.907 14.844C101.471 15.06 100.955 15.168 100.359 15.168ZM100.359 14.136C100.911 14.136 101.339 13.996 101.643 13.716C101.947 13.432 102.099 13.06 102.099 12.6C102.099 12.12 101.947 11.724 101.643 11.412C101.339 11.1 100.911 10.944 100.359 10.944C99.8067 10.944 99.3787 11.1 99.0747 11.412C98.7707 11.724 98.6187 12.12 98.6187 12.6C98.6187 13.06 98.7707 13.432 99.0747 13.716C99.3787 13.996 99.8067 14.136 100.359 14.136ZM100.359 10.884C99.8907 10.884 99.4647 10.792 99.0807 10.608C98.7007 10.42 98.3967 10.162 98.1687 9.834C97.9407 9.506 97.8267 9.128 97.8267 8.7C97.8267 8.332 97.9127 7.974 98.0847 7.626C98.2567 7.278 98.5287 6.992 98.9007 6.768C99.2727 6.544 99.7587 6.432 100.359 6.432C100.959 6.432 101.441 6.544 101.805 6.768C102.169 6.992 102.433 7.278 102.597 7.626C102.761 7.974 102.843 8.332 102.843 8.7C102.843 9.128 102.741 9.506 102.537 9.834C102.333 10.162 102.045 10.42 101.673 10.608C101.301 10.792 100.863 10.884 100.359 10.884ZM100.359 9.948C100.803 9.948 101.137 9.826 101.361 9.582C101.589 9.334 101.703 9.04 101.703 8.7C101.703 8.332 101.589 8.034 101.361 7.806C101.137 7.578 100.803 7.464 100.359 7.464C99.9147 7.464 99.5707 7.578 99.3267 7.806C99.0867 8.034 98.9667 8.332 98.9667 8.7C98.9667 9.04 99.0867 9.334 99.3267 9.582C99.5707 9.826 99.9147 9.948 100.359 9.948Z" fill="white"/>
<path d="M93.555 80V73.244C93.267 73.476 93.029 73.642 92.841 73.742C92.653 73.842 92.475 73.92 92.307 73.976L92.115 72.908C92.331 72.836 92.551 72.734 92.775 72.602C93.003 72.466 93.213 72.312 93.405 72.14C93.601 71.968 93.759 71.788 93.879 71.6H94.659V80H93.555ZM99.8091 80.168C99.0691 80.168 98.4351 79.978 97.9071 79.598C97.3791 79.218 96.9731 78.694 96.6891 78.026C96.4091 77.358 96.2691 76.592 96.2691 75.728C96.2691 74.864 96.4191 74.11 96.7191 73.466C97.0191 72.822 97.4351 72.322 97.9671 71.966C98.4991 71.61 99.1131 71.432 99.8091 71.432C100.521 71.432 101.141 71.61 101.669 71.966C102.201 72.322 102.613 72.822 102.905 73.466C103.201 74.11 103.349 74.864 103.349 75.728C103.349 76.592 103.209 77.358 102.929 78.026C102.649 78.694 102.245 79.218 101.717 79.598C101.189 79.978 100.553 80.168 99.8091 80.168ZM99.8091 79.136C100.305 79.136 100.725 79.004 101.069 78.74C101.417 78.476 101.681 78.09 101.861 77.582C102.045 77.074 102.137 76.456 102.137 75.728C102.137 74.636 101.925 73.82 101.501 73.28C101.081 72.736 100.517 72.464 99.8091 72.464C99.1371 72.464 98.5811 72.736 98.1411 73.28C97.7011 73.82 97.4811 74.636 97.4811 75.728C97.4811 76.456 97.5711 77.074 97.7511 77.582C97.9351 78.09 98.1991 78.476 98.5431 78.74C98.8911 79.004 99.3131 79.136 99.8091 79.136Z" fill="white"/>
<path d="M93.3169 145.168C92.5769 145.168 91.9429 144.978 91.4149 144.598C90.8869 144.218 90.4809 143.694 90.1969 143.026C89.9169 142.358 89.7769 141.592 89.7769 140.728C89.7769 139.864 89.9269 139.11 90.2269 138.466C90.5269 137.822 90.9429 137.322 91.4749 136.966C92.0069 136.61 92.6209 136.432 93.3169 136.432C94.0289 136.432 94.6489 136.61 95.1769 136.966C95.7089 137.322 96.1209 137.822 96.4129 138.466C96.7089 139.11 96.8569 139.864 96.8569 140.728C96.8569 141.592 96.7169 142.358 96.4369 143.026C96.1569 143.694 95.7529 144.218 95.2249 144.598C94.6969 144.978 94.0609 145.168 93.3169 145.168ZM93.3169 144.136C93.8129 144.136 94.2329 144.004 94.5769 143.74C94.9249 143.476 95.1889 143.09 95.3689 142.582C95.5529 142.074 95.6449 141.456 95.6449 140.728C95.6449 139.636 95.4329 138.82 95.0089 138.28C94.5889 137.736 94.0249 137.464 93.3169 137.464C92.6449 137.464 92.0889 137.736 91.6489 138.28C91.2089 138.82 90.9889 139.636 90.9889 140.728C90.9889 141.456 91.0789 142.074 91.2589 142.582C91.4429 143.09 91.7069 143.476 92.0509 143.74C92.3989 144.004 92.8209 144.136 93.3169 144.136ZM100.388 145.168C99.9278 145.168 99.4978 145.108 99.0978 144.988C98.7018 144.868 98.3318 144.716 97.9878 144.532L98.2638 143.476C98.6078 143.672 98.9458 143.832 99.2778 143.956C99.6138 144.076 99.9878 144.136 100.4 144.136C100.924 144.136 101.332 144.006 101.624 143.746C101.92 143.482 102.068 143.144 102.068 142.732C102.068 142.268 101.908 141.896 101.588 141.616C101.268 141.336 100.768 141.196 100.088 141.196H99.5598V140.164H100.088C100.604 140.164 101.012 140.042 101.312 139.798C101.616 139.554 101.768 139.22 101.768 138.796C101.768 138.344 101.652 138.01 101.42 137.794C101.188 137.574 100.856 137.464 100.424 137.464C100.084 137.464 99.7658 137.53 99.4698 137.662C99.1738 137.794 98.8838 137.956 98.5998 138.148L98.4078 136.984C98.7158 136.808 99.0478 136.672 99.4038 136.576C99.7638 136.48 100.156 136.432 100.58 136.432C101.1 136.432 101.54 136.526 101.9 136.714C102.264 136.902 102.54 137.164 102.728 137.5C102.92 137.832 103.016 138.216 103.016 138.652C103.016 139.196 102.856 139.656 102.536 140.032C102.22 140.404 101.792 140.648 101.252 140.764V140.488C101.888 140.612 102.384 140.854 102.74 141.214C103.1 141.57 103.28 142.064 103.28 142.696C103.28 143.208 103.152 143.65 102.896 144.022C102.644 144.39 102.3 144.674 101.864 144.874C101.428 145.07 100.936 145.168 100.388 145.168Z" fill="white"/>
<path d="M113.93 203.72L113.8 202.9C114.16 202.9 114.417 202.822 114.57 202.665C114.723 202.508 114.8 202.26 114.8 201.92V195H115.75V202.14C115.75 202.69 115.622 203.09 115.365 203.34C115.108 203.593 114.717 203.72 114.19 203.72H113.93ZM118.201 202.1C117.898 202.1 117.633 202.038 117.406 201.915C117.18 201.792 117.003 201.623 116.876 201.41C116.753 201.197 116.691 200.953 116.691 200.68C116.691 200.403 116.751 200.167 116.871 199.97C116.995 199.77 117.158 199.605 117.361 199.475C117.568 199.342 117.798 199.237 118.051 199.16C118.305 199.08 118.566 199.023 118.836 198.99C119.11 198.953 119.371 198.933 119.621 198.93C119.621 198.463 119.53 198.158 119.346 198.015C119.163 197.872 118.898 197.8 118.551 197.8C118.368 197.8 118.171 197.828 117.961 197.885C117.755 197.942 117.521 198.06 117.261 198.24L117.131 197.51C117.328 197.36 117.573 197.238 117.866 197.145C118.16 197.048 118.468 197 118.791 197C119.205 197 119.538 197.073 119.791 197.22C120.045 197.363 120.23 197.607 120.346 197.95C120.463 198.293 120.521 198.76 120.521 199.35V200.35C120.521 200.583 120.531 200.777 120.551 200.93C120.575 201.08 120.625 201.193 120.701 201.27C120.781 201.343 120.908 201.38 121.081 201.38H121.171L121.031 202.1H120.961C120.671 202.1 120.446 202.072 120.286 202.015C120.13 201.958 120.01 201.877 119.926 201.77C119.843 201.663 119.768 201.533 119.701 201.38C119.518 201.593 119.301 201.767 119.051 201.9C118.801 202.033 118.518 202.1 118.201 202.1ZM118.371 201.38C118.611 201.38 118.843 201.32 119.066 201.2C119.293 201.08 119.478 200.92 119.621 200.72V199.55C119.145 199.567 118.758 199.613 118.461 199.69C118.168 199.767 117.953 199.882 117.816 200.035C117.68 200.188 117.611 200.387 117.611 200.63C117.611 200.893 117.681 201.085 117.821 201.205C117.965 201.322 118.148 201.38 118.371 201.38ZM121.866 202V197.1H122.566L122.746 198.04L122.396 197.89C122.726 197.523 123.048 197.283 123.361 197.17C123.678 197.057 123.986 197 124.286 197C125.003 197 125.514 197.207 125.821 197.62C126.131 198.033 126.286 198.593 126.286 199.3V202H125.386V199.3C125.386 198.78 125.289 198.4 125.096 198.16C124.903 197.92 124.573 197.8 124.106 197.8C123.776 197.8 123.473 197.873 123.196 198.02C122.923 198.163 122.743 198.393 122.656 198.71L122.766 198.16V202H121.866Z" fill="#91A7AF"/>
<path d="M188.071 202V195H192.341V195.86H189.021V197.91H191.581V198.77H189.021V202H188.071ZM195.025 202.1C194.449 202.1 193.964 201.982 193.57 201.745C193.177 201.508 192.879 201.195 192.675 200.805C192.475 200.412 192.375 199.98 192.375 199.51C192.375 199.053 192.469 198.635 192.655 198.255C192.845 197.875 193.119 197.572 193.475 197.345C193.835 197.115 194.269 197 194.775 197C195.182 197 195.544 197.082 195.86 197.245C196.18 197.405 196.43 197.64 196.61 197.95C196.794 198.257 196.885 198.63 196.885 199.07C196.885 199.14 196.882 199.217 196.875 199.3C196.872 199.38 196.862 199.463 196.845 199.55H193.295C193.339 200.003 193.447 200.357 193.62 200.61C193.794 200.863 194.012 201.042 194.275 201.145C194.539 201.248 194.825 201.3 195.135 201.3C195.362 201.3 195.599 201.277 195.845 201.23C196.092 201.183 196.325 201.11 196.545 201.01L196.665 201.72C196.475 201.803 196.244 201.888 195.97 201.975C195.697 202.058 195.382 202.1 195.025 202.1ZM193.375 198.93H195.955C195.955 198.7 195.912 198.5 195.825 198.33C195.739 198.16 195.607 198.03 195.43 197.94C195.254 197.847 195.029 197.8 194.755 197.8C194.355 197.8 194.047 197.9 193.83 198.1C193.617 198.297 193.465 198.573 193.375 198.93ZM200.203 202.1C199.859 202.1 199.526 202.018 199.203 201.855C198.883 201.688 198.659 201.443 198.533 201.12L198.753 200.96L198.583 202H197.783V194.5H198.683V198.06L198.493 197.92C198.659 197.65 198.898 197.43 199.208 197.26C199.518 197.087 199.849 197 200.203 197C200.659 197 201.053 197.12 201.383 197.36C201.713 197.597 201.966 197.91 202.143 198.3C202.323 198.687 202.413 199.103 202.413 199.55C202.413 200.027 202.314 200.458 202.118 200.845C201.921 201.228 201.656 201.533 201.323 201.76C200.989 201.987 200.616 202.1 200.203 202.1ZM200.093 201.3C200.379 201.3 200.628 201.222 200.838 201.065C201.048 200.905 201.209 200.693 201.323 200.43C201.436 200.163 201.493 199.87 201.493 199.55C201.493 199.217 201.436 198.918 201.323 198.655C201.209 198.392 201.048 198.183 200.838 198.03C200.628 197.877 200.379 197.8 200.093 197.8C199.836 197.8 199.596 197.865 199.373 197.995C199.153 198.122 198.974 198.315 198.838 198.575C198.701 198.832 198.633 199.157 198.633 199.55C198.633 199.96 198.701 200.293 198.838 200.55C198.974 200.807 199.153 200.997 199.373 201.12C199.596 201.24 199.836 201.3 200.093 201.3Z" fill="#91A7AF"/>
<path d="M263.967 202L264.907 195H265.717L267.557 198.47L269.377 195H270.197L271.127 202H270.127L269.417 196.29L269.667 196.33L267.567 200.34L265.427 196.33L265.677 196.29L264.967 202H263.967ZM273.294 202.1C272.991 202.1 272.726 202.038 272.499 201.915C272.272 201.792 272.096 201.623 271.969 201.41C271.846 201.197 271.784 200.953 271.784 200.68C271.784 200.403 271.844 200.167 271.964 199.97C272.087 199.77 272.251 199.605 272.454 199.475C272.661 199.342 272.891 199.237 273.144 199.16C273.397 199.08 273.659 199.023 273.929 198.99C274.202 198.953 274.464 198.933 274.714 198.93C274.714 198.463 274.622 198.158 274.439 198.015C274.256 197.872 273.991 197.8 273.644 197.8C273.461 197.8 273.264 197.828 273.054 197.885C272.847 197.942 272.614 198.06 272.354 198.24L272.224 197.51C272.421 197.36 272.666 197.238 272.959 197.145C273.252 197.048 273.561 197 273.884 197C274.297 197 274.631 197.073 274.884 197.22C275.137 197.363 275.322 197.607 275.439 197.95C275.556 198.293 275.614 198.76 275.614 199.35V200.35C275.614 200.583 275.624 200.777 275.644 200.93C275.667 201.08 275.717 201.193 275.794 201.27C275.874 201.343 276.001 201.38 276.174 201.38H276.264L276.124 202.1H276.054C275.764 202.1 275.539 202.072 275.379 202.015C275.222 201.958 275.102 201.877 275.019 201.77C274.936 201.663 274.861 201.533 274.794 201.38C274.611 201.593 274.394 201.767 274.144 201.9C273.894 202.033 273.611 202.1 273.294 202.1ZM273.464 201.38C273.704 201.38 273.936 201.32 274.159 201.2C274.386 201.08 274.571 200.92 274.714 200.72V199.55C274.237 199.567 273.851 199.613 273.554 199.69C273.261 199.767 273.046 199.882 272.909 200.035C272.772 200.188 272.704 200.387 272.704 200.63C272.704 200.893 272.774 201.085 272.914 201.205C273.057 201.322 273.241 201.38 273.464 201.38ZM276.959 202V197.1H277.699L277.809 197.91C278.059 197.6 278.297 197.372 278.524 197.225C278.754 197.075 278.999 197 279.259 197C279.342 197 279.419 197.01 279.489 197.03L279.399 198.02C279.355 198.01 279.309 198.003 279.259 198C279.212 197.993 279.159 197.99 279.099 197.99C278.839 197.99 278.599 198.048 278.379 198.165C278.162 198.278 278.009 198.403 277.919 198.54V202H276.959Z" fill="#91A7AF"/>
<path d="M344.634 200.11H341.634V199.25H344.634V200.11ZM342.994 195.93H343.274L341.124 202H340.124L342.634 195H343.634L346.144 202H345.144L342.994 195.93ZM346.826 204.42V197.1H347.526L347.686 198.22L347.436 198.04C347.642 197.72 347.897 197.467 348.201 197.28C348.504 197.093 348.876 197 349.316 197C349.762 197 350.146 197.113 350.466 197.34C350.786 197.567 351.031 197.873 351.201 198.26C351.371 198.643 351.456 199.073 351.456 199.55C351.456 200.027 351.376 200.458 351.216 200.845C351.056 201.228 350.817 201.533 350.501 201.76C350.184 201.987 349.789 202.1 349.316 202.1C348.926 202.1 348.572 202.02 348.256 201.86C347.942 201.697 347.716 201.453 347.576 201.13L347.726 200.95V204.42H346.826ZM349.146 201.3C349.582 201.3 349.922 201.147 350.166 200.84C350.412 200.53 350.536 200.1 350.536 199.55C350.536 199 350.412 198.572 350.166 198.265C349.922 197.955 349.582 197.8 349.146 197.8C348.876 197.8 348.629 197.865 348.406 197.995C348.186 198.122 348.009 198.315 347.876 198.575C347.742 198.832 347.676 199.157 347.676 199.55C347.676 199.96 347.742 200.293 347.876 200.55C348.009 200.807 348.186 200.997 348.406 201.12C348.629 201.24 348.876 201.3 349.146 201.3ZM352.392 202V197.1H353.132L353.242 197.91C353.492 197.6 353.731 197.372 353.957 197.225C354.187 197.075 354.432 197 354.692 197C354.776 197 354.852 197.01 354.922 197.03L354.832 198.02C354.789 198.01 354.742 198.003 354.692 198C354.646 197.993 354.592 197.99 354.532 197.99C354.272 197.99 354.032 198.048 353.812 198.165C353.596 198.278 353.442 198.403 353.352 198.54V202H352.392Z" fill="#91A7AF"/>
<path d="M415.623 202L416.563 195H417.373L419.213 198.47L421.033 195H421.853L422.783 202H421.783L421.073 196.29L421.323 196.33L419.223 200.34L417.083 196.33L417.333 196.29L416.623 202H415.623ZM424.949 202.1C424.646 202.1 424.381 202.038 424.154 201.915C423.928 201.792 423.751 201.623 423.624 201.41C423.501 201.197 423.439 200.953 423.439 200.68C423.439 200.403 423.499 200.167 423.619 199.97C423.743 199.77 423.906 199.605 424.109 199.475C424.316 199.342 424.546 199.237 424.799 199.16C425.053 199.08 425.314 199.023 425.584 198.99C425.858 198.953 426.119 198.933 426.369 198.93C426.369 198.463 426.278 198.158 426.094 198.015C425.911 197.872 425.646 197.8 425.299 197.8C425.116 197.8 424.919 197.828 424.709 197.885C424.503 197.942 424.269 198.06 424.009 198.24L423.879 197.51C424.076 197.36 424.321 197.238 424.614 197.145C424.908 197.048 425.216 197 425.539 197C425.953 197 426.286 197.073 426.539 197.22C426.793 197.363 426.978 197.607 427.094 197.95C427.211 198.293 427.269 198.76 427.269 199.35V200.35C427.269 200.583 427.279 200.777 427.299 200.93C427.323 201.08 427.373 201.193 427.449 201.27C427.529 201.343 427.656 201.38 427.829 201.38H427.919L427.779 202.1H427.709C427.419 202.1 427.194 202.072 427.034 202.015C426.878 201.958 426.758 201.877 426.674 201.77C426.591 201.663 426.516 201.533 426.449 201.38C426.266 201.593 426.049 201.767 425.799 201.9C425.549 202.033 425.266 202.1 424.949 202.1ZM425.119 201.38C425.359 201.38 425.591 201.32 425.814 201.2C426.041 201.08 426.226 200.92 426.369 200.72V199.55C425.893 199.567 425.506 199.613 425.209 199.69C424.916 199.767 424.701 199.882 424.564 200.035C424.428 200.188 424.359 200.387 424.359 200.63C424.359 200.893 424.429 201.085 424.569 201.205C424.713 201.322 424.896 201.38 425.119 201.38ZM428.789 204.42L429.919 201.78L427.879 197.1H428.879L430.409 200.74L431.789 197.1H432.789L429.789 204.42H428.789Z" fill="#91A7AF"/>
<path d="M493.294 203.72L493.164 202.9C493.524 202.9 493.781 202.822 493.934 202.665C494.088 202.508 494.164 202.26 494.164 201.92V195H495.114V202.14C495.114 202.69 494.986 203.09 494.729 203.34C494.473 203.593 494.081 203.72 493.554 203.72H493.294ZM498.176 202.1C497.792 202.1 497.466 202.023 497.196 201.87C496.926 201.713 496.719 201.477 496.576 201.16C496.436 200.843 496.366 200.44 496.366 199.95V197.1H497.266V199.7C497.266 200.22 497.354 200.617 497.531 200.89C497.711 201.163 498.002 201.3 498.406 201.3C498.682 201.3 498.939 201.233 499.176 201.1C499.412 200.967 499.576 200.753 499.666 200.46L499.536 200.95V197.1H500.436V202H499.636L499.456 201.04L499.696 201.2C499.532 201.503 499.332 201.73 499.096 201.88C498.862 202.027 498.556 202.1 498.176 202.1ZM501.66 202V197.1H502.36L502.54 198.04L502.19 197.89C502.52 197.523 502.841 197.283 503.155 197.17C503.471 197.057 503.78 197 504.08 197C504.796 197 505.308 197.207 505.615 197.62C505.925 198.033 506.08 198.593 506.08 199.3V202H505.18V199.3C505.18 198.78 505.083 198.4 504.89 198.16C504.696 197.92 504.366 197.8 503.9 197.8C503.57 197.8 503.266 197.873 502.99 198.02C502.716 198.163 502.536 198.393 502.45 198.71L502.56 198.16V202H501.66Z" fill="#91A7AF"/>
<path d="M567.406 203.72L567.276 202.9C567.636 202.9 567.892 202.822 568.046 202.665C568.199 202.508 568.276 202.26 568.276 201.92V195H569.226V202.14C569.226 202.69 569.097 203.09 568.841 203.34C568.584 203.593 568.192 203.72 567.666 203.72H567.406ZM572.287 202.1C571.904 202.1 571.577 202.023 571.307 201.87C571.037 201.713 570.83 201.477 570.687 201.16C570.547 200.843 570.477 200.44 570.477 199.95V197.1H571.377V199.7C571.377 200.22 571.465 200.617 571.642 200.89C571.822 201.163 572.114 201.3 572.517 201.3C572.794 201.3 573.05 201.233 573.287 201.1C573.524 200.967 573.687 200.753 573.777 200.46L573.647 200.95V197.1H574.547V202H573.747L573.567 201.04L573.807 201.2C573.644 201.503 573.444 201.73 573.207 201.88C572.974 202.027 572.667 202.1 572.287 202.1ZM577.031 202.1C576.714 202.1 576.463 202.043 576.276 201.93C576.093 201.813 575.961 201.665 575.881 201.485C575.801 201.305 575.761 201.117 575.761 200.92V194.5H576.661V200.4C576.661 200.68 576.679 200.89 576.716 201.03C576.753 201.17 576.826 201.263 576.936 201.31C577.049 201.357 577.221 201.38 577.451 201.38L577.321 202.1H577.031Z" fill="#91A7AF"/>
<path d="M642.945 200.11H639.945V199.25H642.945V200.11ZM641.305 195.93H641.585L639.435 202H638.435L640.945 195H641.945L644.455 202H643.455L641.305 195.93ZM646.78 202.1C646.397 202.1 646.07 202.023 645.8 201.87C645.53 201.713 645.323 201.477 645.18 201.16C645.04 200.843 644.97 200.44 644.97 199.95V197.1H645.87V199.7C645.87 200.22 645.958 200.617 646.135 200.89C646.315 201.163 646.607 201.3 647.01 201.3C647.287 201.3 647.543 201.233 647.78 201.1C648.017 200.967 648.18 200.753 648.27 200.46L648.14 200.95V197.1H649.04V202H648.24L648.06 201.04L648.3 201.2C648.137 201.503 647.937 201.73 647.7 201.88C647.467 202.027 647.16 202.1 646.78 202.1ZM652.244 204.5C651.798 204.5 651.398 204.445 651.044 204.335C650.694 204.225 650.418 204.062 650.214 203.845C650.014 203.628 649.914 203.36 649.914 203.04C649.914 202.773 649.989 202.543 650.139 202.35C650.293 202.16 650.501 202.007 650.764 201.89C650.608 201.813 650.488 201.723 650.404 201.62C650.324 201.513 650.284 201.397 650.284 201.27C650.284 201.12 650.329 200.985 650.419 200.865C650.513 200.742 650.661 200.64 650.864 200.56C650.591 200.39 650.381 200.162 650.234 199.875C650.088 199.585 650.014 199.263 650.014 198.91C650.014 198.553 650.094 198.232 650.254 197.945C650.414 197.655 650.644 197.425 650.944 197.255C651.248 197.085 651.611 197 652.034 197C652.261 197 652.474 197.033 652.674 197.1C652.878 197.167 653.064 197.26 653.234 197.38C653.384 197.293 653.561 197.222 653.764 197.165C653.971 197.108 654.201 197.08 654.454 197.08C654.471 197.08 654.484 197.08 654.494 197.08C654.508 197.08 654.521 197.08 654.534 197.08L654.424 197.68C654.384 197.68 654.346 197.68 654.309 197.68C654.273 197.68 654.234 197.68 654.194 197.68C654.161 197.68 654.084 197.685 653.964 197.695C653.844 197.705 653.734 197.723 653.634 197.75C653.771 197.91 653.876 198.09 653.949 198.29C654.026 198.487 654.064 198.693 654.064 198.91C654.064 199.283 653.983 199.618 653.819 199.915C653.659 200.208 653.428 200.442 653.124 200.615C652.821 200.785 652.458 200.87 652.034 200.87C651.914 200.87 651.799 200.863 651.689 200.85C651.579 200.833 651.474 200.81 651.374 200.78C651.221 200.83 651.144 200.917 651.144 201.04C651.144 201.113 651.188 201.178 651.274 201.235C651.361 201.288 651.501 201.33 651.694 201.36L653.004 201.57C653.534 201.653 653.943 201.807 654.229 202.03C654.519 202.253 654.664 202.57 654.664 202.98C654.664 203.32 654.564 203.602 654.364 203.825C654.168 204.052 653.888 204.22 653.524 204.33C653.161 204.443 652.734 204.5 652.244 204.5ZM652.324 203.7C652.784 203.7 653.138 203.64 653.384 203.52C653.631 203.403 653.754 203.23 653.754 203C653.754 202.82 653.676 202.678 653.519 202.575C653.366 202.472 653.144 202.393 652.854 202.34L651.459 202.105C651.276 202.185 651.116 202.292 650.979 202.425C650.843 202.562 650.774 202.72 650.774 202.9C650.774 203.18 650.914 203.383 651.194 203.51C651.478 203.637 651.854 203.7 652.324 203.7ZM652.034 200.15C652.414 200.15 652.704 200.037 652.904 199.81C653.104 199.58 653.204 199.283 653.204 198.92C653.204 198.57 653.104 198.283 652.904 198.06C652.704 197.833 652.414 197.72 652.034 197.72C651.654 197.72 651.366 197.833 651.169 198.06C650.973 198.283 650.874 198.57 650.874 198.92C650.874 199.283 650.973 199.58 651.169 199.81C651.366 200.037 651.654 200.15 652.034 200.15Z" fill="#91A7AF"/>
<path d="M718.038 202.14C717.748 202.14 717.458 202.118 717.168 202.075C716.878 202.032 716.61 201.977 716.363 201.91C716.117 201.84 715.912 201.767 715.748 201.69L715.878 200.68C716.058 200.767 716.275 200.857 716.528 200.95C716.785 201.043 717.062 201.122 717.358 201.185C717.655 201.248 717.955 201.28 718.258 201.28C718.708 201.28 719.065 201.198 719.328 201.035C719.595 200.868 719.728 200.61 719.728 200.26C719.728 199.997 719.662 199.782 719.528 199.615C719.395 199.445 719.193 199.3 718.923 199.18C718.657 199.06 718.322 198.94 717.918 198.82C717.535 198.707 717.182 198.573 716.858 198.42C716.535 198.263 716.275 198.055 716.078 197.795C715.885 197.532 715.788 197.183 715.788 196.75C715.788 196.38 715.883 196.053 716.073 195.77C716.267 195.483 716.548 195.26 716.918 195.1C717.292 194.94 717.748 194.86 718.288 194.86C718.748 194.86 719.17 194.91 719.553 195.01C719.94 195.11 720.258 195.22 720.508 195.34L720.408 196.35C720.028 196.123 719.665 195.962 719.318 195.865C718.975 195.768 718.618 195.72 718.248 195.72C717.838 195.72 717.498 195.797 717.228 195.95C716.962 196.103 716.828 196.353 716.828 196.7C716.828 196.933 716.888 197.125 717.008 197.275C717.128 197.422 717.307 197.548 717.543 197.655C717.78 197.758 718.075 197.863 718.428 197.97C718.915 198.117 719.333 198.285 719.683 198.475C720.033 198.662 720.302 198.893 720.488 199.17C720.675 199.443 720.768 199.783 720.768 200.19C720.768 200.49 720.712 200.76 720.598 201C720.485 201.24 720.315 201.445 720.088 201.615C719.862 201.785 719.577 201.915 719.233 202.005C718.893 202.095 718.495 202.14 718.038 202.14ZM724.038 202.1C723.461 202.1 722.976 201.982 722.583 201.745C722.19 201.508 721.891 201.195 721.688 200.805C721.488 200.412 721.388 199.98 721.388 199.51C721.388 199.053 721.481 198.635 721.668 198.255C721.858 197.875 722.131 197.572 722.488 197.345C722.848 197.115 723.281 197 723.788 197C724.195 197 724.556 197.082 724.873 197.245C725.193 197.405 725.443 197.64 725.623 197.95C725.806 198.257 725.898 198.63 725.898 199.07C725.898 199.14 725.895 199.217 725.888 199.3C725.885 199.38 725.875 199.463 725.858 199.55H722.308C722.351 200.003 722.46 200.357 722.633 200.61C722.806 200.863 723.025 201.042 723.288 201.145C723.551 201.248 723.838 201.3 724.148 201.3C724.375 201.3 724.611 201.277 724.858 201.23C725.105 201.183 725.338 201.11 725.558 201.01L725.678 201.72C725.488 201.803 725.256 201.888 724.983 201.975C724.71 202.058 724.395 202.1 724.038 202.1ZM722.388 198.93H724.968C724.968 198.7 724.925 198.5 724.838 198.33C724.751 198.16 724.62 198.03 724.443 197.94C724.266 197.847 724.041 197.8 723.768 197.8C723.368 197.8 723.06 197.9 722.843 198.1C722.63 198.297 722.478 198.573 722.388 198.93ZM726.805 204.42V197.1H727.505L727.665 198.22L727.415 198.04C727.622 197.72 727.877 197.467 728.18 197.28C728.484 197.093 728.855 197 729.295 197C729.742 197 730.125 197.113 730.445 197.34C730.765 197.567 731.01 197.873 731.18 198.26C731.35 198.643 731.435 199.073 731.435 199.55C731.435 200.027 731.355 200.458 731.195 200.845C731.035 201.228 730.797 201.533 730.48 201.76C730.164 201.987 729.769 202.1 729.295 202.1C728.905 202.1 728.552 202.02 728.235 201.86C727.922 201.697 727.695 201.453 727.555 201.13L727.705 200.95V204.42H726.805ZM729.125 201.3C729.562 201.3 729.902 201.147 730.145 200.84C730.392 200.53 730.515 200.1 730.515 199.55C730.515 199 730.392 198.572 730.145 198.265C729.902 197.955 729.562 197.8 729.125 197.8C728.855 197.8 728.609 197.865 728.385 197.995C728.165 198.122 727.989 198.315 727.855 198.575C727.722 198.832 727.655 199.157 727.655 199.55C727.655 199.96 727.722 200.293 727.855 200.55C727.989 200.807 728.165 200.997 728.385 201.12C728.609 201.24 728.855 201.3 729.125 201.3Z" fill="#91A7AF"/>
<path d="M796.077 202.14C795.41 202.14 794.817 201.992 794.297 201.695C793.777 201.395 793.368 200.973 793.072 200.43C792.775 199.883 792.627 199.24 792.627 198.5C792.627 197.76 792.775 197.118 793.072 196.575C793.368 196.028 793.777 195.607 794.297 195.31C794.817 195.01 795.41 194.86 796.077 194.86C796.743 194.86 797.337 195.01 797.857 195.31C798.377 195.607 798.785 196.028 799.082 196.575C799.378 197.118 799.527 197.76 799.527 198.5C799.527 199.24 799.378 199.883 799.082 200.43C798.785 200.973 798.377 201.395 797.857 201.695C797.337 201.992 796.743 202.14 796.077 202.14ZM796.077 201.22C796.613 201.22 797.062 201.1 797.422 200.86C797.782 200.617 798.052 200.29 798.232 199.88C798.415 199.467 798.507 199.007 798.507 198.5C798.507 197.993 798.415 197.535 798.232 197.125C798.052 196.712 797.782 196.385 797.422 196.145C797.062 195.902 796.613 195.78 796.077 195.78C795.54 195.78 795.092 195.902 794.732 196.145C794.372 196.385 794.1 196.712 793.917 197.125C793.737 197.535 793.647 197.993 793.647 198.5C793.647 199.007 793.737 199.467 793.917 199.88C794.1 200.29 794.372 200.617 794.732 200.86C795.092 201.1 795.54 201.22 796.077 201.22ZM802.723 202.1C802.17 202.1 801.705 201.988 801.328 201.765C800.955 201.538 800.672 201.235 800.478 200.855C800.288 200.472 800.193 200.047 800.193 199.58C800.193 199.093 800.285 198.655 800.468 198.265C800.655 197.875 800.94 197.567 801.323 197.34C801.707 197.113 802.197 197 802.793 197C803.05 197 803.292 197.027 803.518 197.08C803.748 197.13 803.953 197.2 804.133 197.29L803.993 198.08C803.81 197.993 803.615 197.925 803.408 197.875C803.205 197.825 802.993 197.8 802.773 197.8C802.233 197.8 801.822 197.953 801.538 198.26C801.255 198.567 801.113 198.993 801.113 199.54C801.113 200.073 801.248 200.502 801.518 200.825C801.788 201.148 802.2 201.31 802.753 201.31C802.98 201.31 803.197 201.283 803.403 201.23C803.613 201.177 803.813 201.103 804.003 201.01L804.123 201.73C803.99 201.823 803.795 201.908 803.538 201.985C803.282 202.062 803.01 202.1 802.723 202.1ZM806.704 202.1C806.394 202.1 806.146 202.043 805.959 201.93C805.773 201.817 805.636 201.672 805.549 201.495C805.466 201.315 805.424 201.127 805.424 200.93V197.8H804.584L804.664 197.1H805.424V195.89L806.324 195.8V197.1H807.614V197.8H806.324V200.38C806.324 200.693 806.343 200.92 806.379 201.06C806.416 201.2 806.506 201.288 806.649 201.325C806.796 201.362 807.031 201.38 807.354 201.38H807.584L807.514 202.1H806.704Z" fill="#91A7AF"/>
<path d="M869.564 202V195H870.594L874.044 200.24V195H875.004V202H874.194L870.514 196.47V202H869.564ZM878.418 202.1C877.905 202.1 877.466 201.987 877.103 201.76C876.743 201.53 876.466 201.223 876.273 200.84C876.083 200.453 875.988 200.023 875.988 199.55C875.988 199.077 876.083 198.648 876.273 198.265C876.466 197.878 876.743 197.572 877.103 197.345C877.466 197.115 877.905 197 878.418 197C878.928 197 879.365 197.115 879.728 197.345C880.091 197.572 880.368 197.878 880.558 198.265C880.751 198.648 880.848 199.077 880.848 199.55C880.848 200.023 880.751 200.453 880.558 200.84C880.368 201.223 880.091 201.53 879.728 201.76C879.365 201.987 878.928 202.1 878.418 202.1ZM878.418 201.3C878.905 201.3 879.278 201.147 879.538 200.84C879.798 200.53 879.928 200.1 879.928 199.55C879.928 199 879.798 198.572 879.538 198.265C879.278 197.955 878.905 197.8 878.418 197.8C877.935 197.8 877.561 197.955 877.298 198.265C877.038 198.572 876.908 199 876.908 199.55C876.908 200.1 877.038 200.53 877.298 200.84C877.561 201.147 877.935 201.3 878.418 201.3ZM883.038 202L881.168 197.1H882.168L883.538 201.01L884.898 197.1H885.908L884.048 202H883.038Z" fill="#91A7AF"/>
<path d="M943.8 202V195H946.39C947.067 195 947.667 195.138 948.19 195.415C948.713 195.692 949.123 196.092 949.42 196.615C949.72 197.135 949.87 197.763 949.87 198.5C949.87 199.237 949.72 199.867 949.42 200.39C949.123 200.91 948.713 201.308 948.19 201.585C947.667 201.862 947.067 202 946.39 202H943.8ZM944.75 201.14H946.39C946.923 201.14 947.37 201.03 947.73 200.81C948.093 200.587 948.367 200.277 948.55 199.88C948.737 199.483 948.83 199.023 948.83 198.5C948.83 197.977 948.737 197.517 948.55 197.12C948.367 196.723 948.093 196.415 947.73 196.195C947.37 195.972 946.923 195.86 946.39 195.86H944.75V201.14ZM953.167 202.1C952.59 202.1 952.105 201.982 951.712 201.745C951.319 201.508 951.02 201.195 950.817 200.805C950.617 200.412 950.517 199.98 950.517 199.51C950.517 199.053 950.61 198.635 950.797 198.255C950.987 197.875 951.26 197.572 951.617 197.345C951.977 197.115 952.41 197 952.917 197C953.324 197 953.685 197.082 954.002 197.245C954.322 197.405 954.572 197.64 954.752 197.95C954.935 198.257 955.027 198.63 955.027 199.07C955.027 199.14 955.024 199.217 955.017 199.3C955.014 199.38 955.004 199.463 954.987 199.55H951.437C951.48 200.003 951.589 200.357 951.762 200.61C951.935 200.863 952.154 201.042 952.417 201.145C952.68 201.248 952.967 201.3 953.277 201.3C953.504 201.3 953.74 201.277 953.987 201.23C954.234 201.183 954.467 201.11 954.687 201.01L954.807 201.72C954.617 201.803 954.385 201.888 954.112 201.975C953.839 202.058 953.524 202.1 953.167 202.1ZM951.517 198.93H954.097C954.097 198.7 954.054 198.5 953.967 198.33C953.88 198.16 953.749 198.03 953.572 197.94C953.395 197.847 953.17 197.8 952.897 197.8C952.497 197.8 952.189 197.9 951.972 198.1C951.759 198.297 951.607 198.573 951.517 198.93ZM958.184 202.1C957.631 202.1 957.166 201.988 956.789 201.765C956.416 201.538 956.133 201.235 955.939 200.855C955.749 200.472 955.654 200.047 955.654 199.58C955.654 199.093 955.746 198.655 955.929 198.265C956.116 197.875 956.401 197.567 956.784 197.34C957.168 197.113 957.658 197 958.254 197C958.511 197 958.753 197.027 958.979 197.08C959.209 197.13 959.414 197.2 959.594 197.29L959.454 198.08C959.271 197.993 959.076 197.925 958.869 197.875C958.666 197.825 958.454 197.8 958.234 197.8C957.694 197.8 957.283 197.953 956.999 198.26C956.716 198.567 956.574 198.993 956.574 199.54C956.574 200.073 956.709 200.502 956.979 200.825C957.249 201.148 957.661 201.31 958.214 201.31C958.441 201.31 958.658 201.283 958.864 201.23C959.074 201.177 959.274 201.103 959.464 201.01L959.584 201.73C959.451 201.823 959.256 201.908 958.999 201.985C958.743 202.062 958.471 202.1 958.184 202.1Z" fill="#91A7AF"/>
<rect x="114.5" y="1.5" width="845" height="179" stroke="#2A3241"/>
<path d="M134 56L940 56.0001" stroke="white" stroke-opacity="0.1" stroke-linecap="round" stroke-dasharray="4 4"/>
<path d="M134 126L940 126" stroke="#7D7D7D" stroke-linecap="round" stroke-dasharray="4 4"/>
<path d="M139.741 155.198L134 151.001V173H940V72.1567L925.867 58.6662L914.385 65.5613L901.135 67.0603L888.328 78.1524L875.52 56.5677L864.037 52.9703H851.671L838.422 79.0518L825.614 86.8463L801.324 108.731L788.516 102.735L776.592 92.2424L764.667 100.936L751.418 100.037L739.052 106.332L726.686 109.93L714.32 103.335L701.512 104.833L689.588 96.7392L676.78 96.1397L664.856 76.9533L652.49 61.9639L639.241 63.7626L626.875 39.4798L614.508 37.9809L601.701 11L589.335 34.983L577.41 114.127L564.603 107.831L552.237 115.326L539.871 105.433L527.505 110.529L514.255 95.8399L501.889 94.6407L490.848 100.936L476.716 113.228L454.192 121.921L440.059 126.418L427.251 114.427L414.885 113.228L402.519 116.825L390.153 107.232L377.346 99.7371L352.172 104.833L339.806 99.7371L314.632 142.607L303.591 143.806L289.459 141.408H279.301H274.443L263.843 142.607L252.802 137.81L239.995 145.005L228.07 136.611L216.146 133.313H201.572L190.972 135.412L165.798 143.806L152.549 153.699H150.782L144.599 154.298L143.275 155.198H139.741Z" fill="url(#paint0_linear_0_1)"/>
<path d="M134 151.001L139.741 155.198H143.275L144.599 154.298L150.782 153.699H152.549L165.798 143.806L190.972 135.412L201.572 133.313H216.146L228.07 136.611L239.995 145.005L252.802 137.81L263.843 142.607L274.443 141.408H279.301H289.459L303.591 143.806L314.632 142.607L339.806 99.7371L352.172 104.834L377.346 99.7371L390.153 107.232L402.519 116.825L414.885 113.228L427.251 114.427L440.059 126.418L454.192 121.921L476.716 113.228L490.848 100.936L501.889 94.6407L514.255 95.8399L527.505 110.529L539.871 105.433L552.237 115.326L564.603 107.831L577.41 114.127L589.335 34.983L601.701 11L614.508 37.9809L626.875 39.4798L639.241 63.7626L652.49 61.9639L664.856 76.9533L676.78 96.1397L689.588 96.7392L701.512 104.834L714.32 103.335L726.686 109.93L739.052 106.332L751.418 100.037L764.667 100.936L776.592 92.2424L788.516 102.735L801.324 108.731L825.614 86.8463L838.422 79.0518L851.671 52.9703H864.037L875.52 56.5677L888.328 78.1524L901.135 67.0603L914.385 65.5613L925.867 58.6662L940 72.1567" stroke="#27AE60"/>
<path d="M134 151.001L139.741 155.198H143.275L144.599 154.298L150.782 153.699H152.549L165.798 143.806L190.972 135.412L201.572 133.313H216.146L228.07 136.611L239.995 145.005L252.802 137.81L263.843 142.607L274.443 141.408H279.301H289.459L303.591 143.806L314.632 142.607L324.138 126.418" stroke="#EB5757"/>
<path d="M760 1L760 181" stroke="white" stroke-opacity="0.1" stroke-linecap="round" stroke-dasharray="4 4"/>
<circle cx="760" cy="74" r="7" fill="#27AE60" fill-opacity="0.15"/>
<circle cx="760" cy="74" r="6.5" stroke="#27AE60" stroke-opacity="0.4"/>
<circle cx="760" cy="74" r="3" fill="#27AE60"/>
<rect x="632" y="59" width="116" height="68" rx="6" fill="#1E2430"/>
<rect x="747.646" y="67.7285" width="7.80332" height="7.80332" transform="rotate(49.3112 747.646 67.7285)" fill="#1E2430"/>
<path d="M645.794 80V74.81C645.664 74.8933 645.526 74.9667 645.379 75.03C645.236 75.0933 645.081 75.14 644.914 75.17L644.804 74.09C644.948 74.06 645.108 73.9883 645.284 73.875C645.461 73.7617 645.624 73.6283 645.774 73.475C645.924 73.3183 646.031 73.16 646.094 73H647.074V80H645.794ZM649.486 80V74.81C649.356 74.8933 649.218 74.9667 649.071 75.03C648.928 75.0933 648.773 75.14 648.606 75.17L648.496 74.09C648.639 74.06 648.799 73.9883 648.976 73.875C649.153 73.7617 649.316 73.6283 649.466 73.475C649.616 73.3183 649.723 73.16 649.786 73H650.766V80H649.486ZM651.657 80.85L654.337 73H655.587L652.907 80.85H651.657ZM655.771 80L657.611 77.17C657.854 76.7967 658.049 76.4817 658.196 76.225C658.346 75.9683 658.454 75.7433 658.521 75.55C658.588 75.3567 658.621 75.1667 658.621 74.98C658.621 74.6933 658.539 74.4683 658.376 74.305C658.216 74.1417 657.991 74.06 657.701 74.06C657.351 74.06 657.036 74.1467 656.756 74.32C656.479 74.4933 656.231 74.69 656.011 74.91L655.851 73.62C656.151 73.38 656.469 73.1933 656.806 73.06C657.146 72.9267 657.531 72.86 657.961 72.86C658.384 72.86 658.736 72.9467 659.016 73.12C659.299 73.2933 659.511 73.5233 659.651 73.81C659.791 74.0967 659.861 74.41 659.861 74.75C659.861 75.0133 659.824 75.2783 659.751 75.545C659.678 75.8083 659.556 76.1017 659.386 76.425C659.219 76.745 658.994 77.12 658.711 77.55L657.891 78.8H660.111V80H655.771ZM662.934 80.14C662.514 80.14 662.132 80.0917 661.789 79.995C661.446 79.895 661.171 79.7933 660.964 79.69L661.274 78.61C661.494 78.72 661.747 78.82 662.034 78.91C662.321 78.9967 662.621 79.04 662.934 79.04C663.301 79.04 663.594 78.9567 663.814 78.79C664.034 78.62 664.144 78.36 664.144 78.01C664.144 77.66 664.036 77.3967 663.819 77.22C663.606 77.04 663.284 76.95 662.854 76.95H662.144V75.75H662.844C663.204 75.75 663.479 75.6667 663.669 75.5C663.859 75.3333 663.954 75.1033 663.954 74.81C663.954 74.5533 663.866 74.3483 663.689 74.195C663.516 74.0383 663.264 73.96 662.934 73.96C662.651 73.96 662.382 74.0033 662.129 74.09C661.879 74.1767 661.631 74.29 661.384 74.43L661.194 73.3C661.424 73.18 661.697 73.0767 662.014 72.99C662.334 72.9033 662.684 72.86 663.064 72.86C663.521 72.86 663.906 72.9383 664.219 73.095C664.532 73.2483 664.769 73.46 664.929 73.73C665.092 74 665.174 74.3067 665.174 74.65C665.174 75.1 665.054 75.4817 664.814 75.795C664.574 76.1083 664.234 76.32 663.794 76.43L663.784 76.2C664.271 76.28 664.666 76.475 664.969 76.785C665.272 77.095 665.424 77.5033 665.424 78.01C665.424 78.4667 665.319 78.8533 665.109 79.17C664.902 79.4867 664.612 79.7283 664.239 79.895C663.866 80.0583 663.431 80.14 662.934 80.14ZM665.935 80.85L668.615 73H669.865L667.185 80.85H665.935ZM670.048 80L671.888 77.17C672.132 76.7967 672.327 76.4817 672.473 76.225C672.623 75.9683 672.732 75.7433 672.798 75.55C672.865 75.3567 672.898 75.1667 672.898 74.98C672.898 74.6933 672.817 74.4683 672.653 74.305C672.493 74.1417 672.268 74.06 671.978 74.06C671.628 74.06 671.313 74.1467 671.033 74.32C670.757 74.4933 670.508 74.69 670.288 74.91L670.128 73.62C670.428 73.38 670.747 73.1933 671.083 73.06C671.423 72.9267 671.808 72.86 672.238 72.86C672.662 72.86 673.013 72.9467 673.293 73.12C673.577 73.2933 673.788 73.5233 673.928 73.81C674.068 74.0967 674.138 74.41 674.138 74.75C674.138 75.0133 674.102 75.2783 674.028 75.545C673.955 75.8083 673.833 76.1017 673.663 76.425C673.497 76.745 673.272 77.12 672.988 77.55L672.168 78.8H674.388V80H670.048ZM678.431 80.14C677.841 80.14 677.325 79.9867 676.881 79.68C676.441 79.37 676.098 78.9383 675.851 78.385C675.605 77.8283 675.481 77.18 675.481 76.44C675.481 75.7333 675.605 75.1117 675.851 74.575C676.098 74.035 676.441 73.615 676.881 73.315C677.325 73.0117 677.841 72.86 678.431 72.86C679.025 72.86 679.541 73.0117 679.981 73.315C680.425 73.6183 680.768 74.04 681.011 74.58C681.258 75.1167 681.381 75.7367 681.381 76.44C681.381 77.18 681.258 77.8283 681.011 78.385C680.768 78.9383 680.425 79.37 679.981 79.68C679.541 79.9867 679.025 80.14 678.431 80.14ZM678.431 78.99C678.748 78.99 679.031 78.9033 679.281 78.73C679.535 78.5567 679.735 78.2833 679.881 77.91C680.028 77.5333 680.101 77.0433 680.101 76.44C680.101 75.61 679.941 74.995 679.621 74.595C679.305 74.1917 678.908 73.99 678.431 73.99C677.958 73.99 677.561 74.19 677.241 74.59C676.921 74.9867 676.761 75.6033 676.761 76.44C676.761 77.0367 676.835 77.5233 676.981 77.9C677.128 78.2733 677.326 78.5483 677.576 78.725C677.83 78.9017 678.115 78.99 678.431 78.99ZM682.402 80L684.242 77.17C684.485 76.7967 684.68 76.4817 684.827 76.225C684.977 75.9683 685.085 75.7433 685.152 75.55C685.219 75.3567 685.252 75.1667 685.252 74.98C685.252 74.6933 685.17 74.4683 685.007 74.305C684.847 74.1417 684.622 74.06 684.332 74.06C683.982 74.06 683.667 74.1467 683.387 74.32C683.11 74.4933 682.862 74.69 682.642 74.91L682.482 73.62C682.782 73.38 683.1 73.1933 683.437 73.06C683.777 72.9267 684.162 72.86 684.592 72.86C685.015 72.86 685.367 72.9467 685.647 73.12C685.93 73.2933 686.142 73.5233 686.282 73.81C686.422 74.0967 686.492 74.41 686.492 74.75C686.492 75.0133 686.455 75.2783 686.382 75.545C686.309 75.8083 686.187 76.1017 686.017 76.425C685.85 76.745 685.625 77.12 685.342 77.55L684.522 78.8H686.742V80H682.402ZM689.565 80.14C689.145 80.14 688.763 80.0917 688.42 79.995C688.077 79.895 687.802 79.7933 687.595 79.69L687.905 78.61C688.125 78.72 688.378 78.82 688.665 78.91C688.952 78.9967 689.252 79.04 689.565 79.04C689.932 79.04 690.225 78.9567 690.445 78.79C690.665 78.62 690.775 78.36 690.775 78.01C690.775 77.66 690.667 77.3967 690.45 77.22C690.237 77.04 689.915 76.95 689.485 76.95H688.775V75.75H689.475C689.835 75.75 690.11 75.6667 690.3 75.5C690.49 75.3333 690.585 75.1033 690.585 74.81C690.585 74.5533 690.497 74.3483 690.32 74.195C690.147 74.0383 689.895 73.96 689.565 73.96C689.282 73.96 689.013 74.0033 688.76 74.09C688.51 74.1767 688.262 74.29 688.015 74.43L687.825 73.3C688.055 73.18 688.328 73.0767 688.645 72.99C688.965 72.9033 689.315 72.86 689.695 72.86C690.152 72.86 690.537 72.9383 690.85 73.095C691.163 73.2483 691.4 73.46 691.56 73.73C691.723 74 691.805 74.3067 691.805 74.65C691.805 75.1 691.685 75.4817 691.445 75.795C691.205 76.1083 690.865 76.32 690.425 76.43L690.415 76.2C690.902 76.28 691.297 76.475 691.6 76.785C691.903 77.095 692.055 77.5033 692.055 78.01C692.055 78.4667 691.95 78.8533 691.74 79.17C691.533 79.4867 691.243 79.7283 690.87 79.895C690.497 80.0583 690.062 80.14 689.565 80.14Z" fill="#869CA5"/>
<path d="M656.77 99V92H659.26C659.797 92 660.25 92.08 660.62 92.24C660.99 92.4 661.27 92.6467 661.46 92.98C661.653 93.3133 661.75 93.74 661.75 94.26C661.75 94.7867 661.655 95.2217 661.465 95.565C661.275 95.905 660.997 96.1583 660.63 96.325C660.263 96.4883 659.817 96.57 659.29 96.57H658.05V99H656.77ZM658.05 95.5H659.14C659.577 95.5 659.903 95.4017 660.12 95.205C660.34 95.0083 660.45 94.7 660.45 94.28C660.45 93.86 660.338 93.5533 660.115 93.36C659.895 93.1667 659.56 93.07 659.11 93.07H658.05V95.5ZM662.459 99V94H663.619L663.649 94.53C663.776 94.39 663.954 94.25 664.184 94.11C664.414 93.97 664.666 93.9 664.939 93.9C665.019 93.9 665.092 93.9067 665.159 93.92L665.069 95.14C664.996 95.12 664.922 95.1067 664.849 95.1C664.779 95.0933 664.709 95.09 664.639 95.09C664.429 95.09 664.237 95.1383 664.064 95.235C663.891 95.3317 663.769 95.45 663.699 95.59V99H662.459ZM665.76 99V94H667V99H665.76ZM665.76 93.24V92H667V93.24H665.76ZM670.482 99.1C669.909 99.1 669.427 98.9833 669.037 98.75C668.65 98.5133 668.357 98.2 668.157 97.81C667.96 97.4167 667.862 96.9833 667.862 96.51C667.862 96.0333 667.96 95.5983 668.157 95.205C668.354 94.8083 668.649 94.4917 669.042 94.255C669.435 94.0183 669.929 93.9 670.522 93.9C670.802 93.9 671.055 93.9317 671.282 93.995C671.509 94.055 671.702 94.13 671.862 94.22L671.762 95.22C671.609 95.14 671.435 95.0733 671.242 95.02C671.052 94.9667 670.852 94.94 670.642 94.94C670.162 94.94 669.79 95.085 669.527 95.375C669.264 95.665 669.132 96.0433 669.132 96.51C669.132 96.9533 669.267 97.3267 669.537 97.63C669.807 97.93 670.172 98.08 670.632 98.08C670.829 98.08 671.022 98.0517 671.212 97.995C671.405 97.935 671.592 97.8533 671.772 97.75L671.882 98.8C671.709 98.89 671.499 98.9617 671.252 99.015C671.009 99.0717 670.752 99.1 670.482 99.1ZM675.084 99.1C674.48 99.1 673.977 98.98 673.574 98.74C673.174 98.4967 672.874 98.1767 672.674 97.78C672.474 97.38 672.374 96.9433 672.374 96.47C672.374 96.0133 672.467 95.5917 672.654 95.205C672.844 94.8183 673.12 94.5083 673.484 94.275C673.847 94.0383 674.29 93.92 674.814 93.92C675.294 93.92 675.694 94.0183 676.014 94.215C676.334 94.4117 676.574 94.675 676.734 95.005C676.894 95.3317 676.974 95.6933 676.974 96.09C676.974 96.2 676.967 96.3117 676.954 96.425C676.94 96.535 676.92 96.65 676.894 96.77H673.664C673.71 97.08 673.807 97.3317 673.954 97.525C674.104 97.715 674.285 97.855 674.499 97.945C674.715 98.035 674.947 98.08 675.194 98.08C675.484 98.08 675.754 98.0433 676.004 97.97C676.254 97.8933 676.484 97.7933 676.694 97.67L676.754 98.72C676.564 98.82 676.327 98.9083 676.044 98.985C675.76 99.0617 675.44 99.1 675.084 99.1ZM673.694 95.93H675.714C675.714 95.78 675.685 95.63 675.629 95.48C675.572 95.3267 675.477 95.1983 675.344 95.095C675.214 94.9917 675.037 94.94 674.814 94.94C674.494 94.94 674.242 95.0333 674.059 95.22C673.875 95.4067 673.754 95.6433 673.694 95.93ZM677.7 95.36V94H679V95.36H677.7ZM677.7 99V97.64H679V99H677.7Z" fill="#91A6AF"/>
<path d="M684.503 99.14C684.22 99.14 683.928 99.1117 683.628 99.055C683.328 99.0017 683.05 98.9367 682.793 98.86C682.536 98.78 682.333 98.7033 682.183 98.63L682.333 97.27C682.566 97.3833 682.81 97.4883 683.063 97.585C683.316 97.6817 683.576 97.76 683.843 97.82C684.11 97.88 684.38 97.91 684.653 97.91C684.993 97.91 685.266 97.8433 685.473 97.71C685.68 97.5767 685.783 97.3733 685.783 97.1C685.783 96.89 685.725 96.7217 685.608 96.595C685.491 96.465 685.313 96.35 685.073 96.25C684.833 96.1467 684.526 96.03 684.153 95.9C683.78 95.77 683.445 95.6233 683.148 95.46C682.851 95.2933 682.616 95.0833 682.443 94.83C682.27 94.5767 682.183 94.2533 682.183 93.86C682.183 93.4733 682.278 93.13 682.468 92.83C682.658 92.5267 682.941 92.29 683.318 92.12C683.698 91.9467 684.17 91.86 684.733 91.86C685.16 91.86 685.566 91.9083 685.953 92.005C686.34 92.0983 686.67 92.2 686.943 92.31L686.813 93.62C686.42 93.4433 686.05 93.31 685.703 93.22C685.36 93.1267 685.01 93.08 684.653 93.08C684.28 93.08 683.991 93.1417 683.788 93.265C683.585 93.3883 683.483 93.5733 683.483 93.82C683.483 94.0167 683.54 94.175 683.653 94.295C683.766 94.415 683.928 94.5183 684.138 94.605C684.348 94.6883 684.6 94.7767 684.893 94.87C685.4 95.03 685.825 95.2067 686.168 95.4C686.515 95.59 686.775 95.8217 686.948 96.095C687.125 96.365 687.213 96.7 687.213 97.1C687.213 97.3 687.181 97.5183 687.118 97.755C687.055 97.9883 686.93 98.21 686.743 98.42C686.556 98.63 686.283 98.8033 685.923 98.94C685.566 99.0733 685.093 99.14 684.503 99.14ZM684.353 100.44L684.453 98.66H685.233L685.333 100.44H684.353ZM684.453 92.27L684.353 90.56H685.333L685.233 92.27H684.453ZM692.06 99.14C691.64 99.14 691.258 99.0917 690.915 98.995C690.572 98.895 690.297 98.7933 690.09 98.69L690.4 97.61C690.62 97.72 690.873 97.82 691.16 97.91C691.447 97.9967 691.747 98.04 692.06 98.04C692.427 98.04 692.72 97.9567 692.94 97.79C693.16 97.62 693.27 97.36 693.27 97.01C693.27 96.66 693.162 96.3967 692.945 96.22C692.732 96.04 692.41 95.95 691.98 95.95H691.27V94.75H691.97C692.33 94.75 692.605 94.6667 692.795 94.5C692.985 94.3333 693.08 94.1033 693.08 93.81C693.08 93.5533 692.992 93.3483 692.815 93.195C692.642 93.0383 692.39 92.96 692.06 92.96C691.777 92.96 691.508 93.0033 691.255 93.09C691.005 93.1767 690.757 93.29 690.51 93.43L690.32 92.3C690.55 92.18 690.823 92.0767 691.14 91.99C691.46 91.9033 691.81 91.86 692.19 91.86C692.647 91.86 693.032 91.9383 693.345 92.095C693.658 92.2483 693.895 92.46 694.055 92.73C694.218 93 694.3 93.3067 694.3 93.65C694.3 94.1 694.18 94.4817 693.94 94.795C693.7 95.1083 693.36 95.32 692.92 95.43L692.91 95.2C693.397 95.28 693.792 95.475 694.095 95.785C694.398 96.095 694.55 96.5033 694.55 97.01C694.55 97.4667 694.445 97.8533 694.235 98.17C694.028 98.4867 693.738 98.7283 693.365 98.895C692.992 99.0583 692.557 99.14 692.06 99.14ZM695.911 99L698.531 92.71L698.891 93.2H695.571V92H700.171L697.251 99H695.911ZM701.087 100.2H700.507L700.937 99H700.427V97.64H701.727V98.88L701.087 100.2ZM704.521 99.14C704.101 99.14 703.719 99.0917 703.376 98.995C703.033 98.895 702.758 98.7933 702.551 98.69L702.861 97.61C703.081 97.72 703.334 97.82 703.621 97.91C703.908 97.9967 704.208 98.04 704.521 98.04C704.888 98.04 705.181 97.9567 705.401 97.79C705.621 97.62 705.731 97.36 705.731 97.01C705.731 96.66 705.623 96.3967 705.406 96.22C705.193 96.04 704.871 95.95 704.441 95.95H703.731V94.75H704.431C704.791 94.75 705.066 94.6667 705.256 94.5C705.446 94.3333 705.541 94.1033 705.541 93.81C705.541 93.5533 705.453 93.3483 705.276 93.195C705.103 93.0383 704.851 92.96 704.521 92.96C704.238 92.96 703.969 93.0033 703.716 93.09C703.466 93.1767 703.218 93.29 702.971 93.43L702.781 92.3C703.011 92.18 703.284 92.0767 703.601 91.99C703.921 91.9033 704.271 91.86 704.651 91.86C705.108 91.86 705.493 91.9383 705.806 92.095C706.119 92.2483 706.356 92.46 706.516 92.73C706.679 93 706.761 93.3067 706.761 93.65C706.761 94.1 706.641 94.4817 706.401 94.795C706.161 95.1083 705.821 95.32 705.381 95.43L705.371 95.2C705.858 95.28 706.253 95.475 706.556 95.785C706.859 96.095 707.011 96.5033 707.011 97.01C707.011 97.4667 706.906 97.8533 706.696 98.17C706.489 98.4867 706.199 98.7283 705.826 98.895C705.453 99.0583 705.018 99.14 704.521 99.14ZM709.912 99.14C709.492 99.14 709.11 99.0917 708.767 98.995C708.423 98.895 708.148 98.7933 707.942 98.69L708.252 97.61C708.472 97.72 708.725 97.82 709.012 97.91C709.298 97.9967 709.598 98.04 709.912 98.04C710.278 98.04 710.572 97.9567 710.792 97.79C711.012 97.62 711.122 97.36 711.122 97.01C711.122 96.66 711.013 96.3967 710.797 96.22C710.583 96.04 710.262 95.95 709.832 95.95H709.122V94.75H709.822C710.182 94.75 710.457 94.6667 710.647 94.5C710.837 94.3333 710.932 94.1033 710.932 93.81C710.932 93.5533 710.843 93.3483 710.667 93.195C710.493 93.0383 710.242 92.96 709.912 92.96C709.628 92.96 709.36 93.0033 709.107 93.09C708.857 93.1767 708.608 93.29 708.362 93.43L708.172 92.3C708.402 92.18 708.675 92.0767 708.992 91.99C709.312 91.9033 709.662 91.86 710.042 91.86C710.498 91.86 710.883 91.9383 711.197 92.095C711.51 92.2483 711.747 92.46 711.907 92.73C712.07 93 712.152 93.3067 712.152 93.65C712.152 94.1 712.032 94.4817 711.792 94.795C711.552 95.1083 711.212 95.32 710.772 95.43L710.762 95.2C711.248 95.28 711.643 95.475 711.947 95.785C712.25 96.095 712.402 96.5033 712.402 97.01C712.402 97.4667 712.297 97.8533 712.087 98.17C711.88 98.4867 711.59 98.7283 711.217 98.895C710.843 99.0583 710.408 99.14 709.912 99.14ZM715.892 99.14C715.406 99.14 714.981 99.0317 714.617 98.815C714.254 98.5983 713.972 98.295 713.772 97.905C713.572 97.5117 713.472 97.0533 713.472 96.53C713.472 95.9667 713.571 95.4417 713.767 94.955C713.964 94.465 714.222 94.02 714.542 93.62C714.862 93.2167 715.209 92.8667 715.582 92.57C715.956 92.2733 716.319 92.0367 716.672 91.86L717.562 92.56C717.386 92.6467 717.172 92.77 716.922 92.93C716.676 93.09 716.421 93.2817 716.157 93.505C715.894 93.725 715.647 93.9733 715.417 94.25C715.191 94.5267 715.006 94.8283 714.862 95.155C714.722 95.4783 714.652 95.8233 714.652 96.19L714.292 95.75C714.469 95.4633 714.704 95.2317 714.997 95.055C715.291 94.8783 715.672 94.79 716.142 94.79C716.532 94.79 716.882 94.88 717.192 95.06C717.502 95.24 717.746 95.4883 717.922 95.805C718.102 96.1217 718.192 96.4867 718.192 96.9C718.192 97.3433 718.099 97.7333 717.912 98.07C717.726 98.4067 717.459 98.67 717.112 98.86C716.769 99.0467 716.362 99.14 715.892 99.14ZM715.912 98.08C716.232 98.08 716.499 97.97 716.712 97.75C716.926 97.53 717.032 97.2633 717.032 96.95C717.032 96.6333 716.926 96.3717 716.712 96.165C716.499 95.955 716.232 95.85 715.912 95.85C715.589 95.85 715.321 95.955 715.107 96.165C714.897 96.3717 714.792 96.6333 714.792 96.95C714.792 97.2633 714.897 97.53 715.107 97.75C715.321 97.97 715.589 98.08 715.912 98.08ZM719.067 99V97.64H720.367V99H719.067ZM724.266 99.14C723.676 99.14 723.16 98.9867 722.716 98.68C722.276 98.37 721.933 97.9383 721.686 97.385C721.44 96.8283 721.316 96.18 721.316 95.44C721.316 94.7333 721.44 94.1117 721.686 93.575C721.933 93.035 722.276 92.615 722.716 92.315C723.16 92.0117 723.676 91.86 724.266 91.86C724.86 91.86 725.376 92.0117 725.816 92.315C726.26 92.6183 726.603 93.04 726.846 93.58C727.093 94.1167 727.216 94.7367 727.216 95.44C727.216 96.18 727.093 96.8283 726.846 97.385C726.603 97.9383 726.26 98.37 725.816 98.68C725.376 98.9867 724.86 99.14 724.266 99.14ZM724.266 97.99C724.583 97.99 724.866 97.9033 725.116 97.73C725.37 97.5567 725.57 97.2833 725.716 96.91C725.863 96.5333 725.936 96.0433 725.936 95.44C725.936 94.61 725.776 93.995 725.456 93.595C725.14 93.1917 724.743 92.99 724.266 92.99C723.793 92.99 723.396 93.19 723.076 93.59C722.756 93.9867 722.596 94.6033 722.596 95.44C722.596 96.0367 722.67 96.5233 722.816 96.9C722.963 97.2733 723.161 97.5483 723.411 97.725C723.665 97.9017 723.95 97.99 724.266 97.99ZM731.327 99.14C730.737 99.14 730.22 98.9867 729.777 98.68C729.337 98.37 728.994 97.9383 728.747 97.385C728.5 96.8283 728.377 96.18 728.377 95.44C728.377 94.7333 728.5 94.1117 728.747 93.575C728.994 93.035 729.337 92.615 729.777 92.315C730.22 92.0117 730.737 91.86 731.327 91.86C731.92 91.86 732.437 92.0117 732.877 92.315C733.32 92.6183 733.664 93.04 733.907 93.58C734.154 94.1167 734.277 94.7367 734.277 95.44C734.277 96.18 734.154 96.8283 733.907 97.385C733.664 97.9383 733.32 98.37 732.877 98.68C732.437 98.9867 731.92 99.14 731.327 99.14ZM731.327 97.99C731.644 97.99 731.927 97.9033 732.177 97.73C732.43 97.5567 732.63 97.2833 732.777 96.91C732.924 96.5333 732.997 96.0433 732.997 95.44C732.997 94.61 732.837 93.995 732.517 93.595C732.2 93.1917 731.804 92.99 731.327 92.99C730.854 92.99 730.457 93.19 730.137 93.59C729.817 93.9867 729.657 94.6033 729.657 95.44C729.657 96.0367 729.73 96.5233 729.877 96.9C730.024 97.2733 730.222 97.5483 730.472 97.725C730.725 97.9017 731.01 97.99 731.327 97.99Z" fill="white"/>
<circle cx="648" cy="95" r="3.5" fill="#27AE60" stroke="white"/>
<path d="M658.49 116L656 109H657.29L659.22 114.52H658.96L660.9 109H662.19L659.7 116H658.49ZM664.534 116.1C663.99 116.1 663.527 115.982 663.144 115.745C662.76 115.508 662.467 115.193 662.264 114.8C662.064 114.407 661.964 113.977 661.964 113.51C661.964 113.04 662.064 112.607 662.264 112.21C662.467 111.813 662.76 111.497 663.144 111.26C663.527 111.02 663.99 110.9 664.534 110.9C665.077 110.9 665.54 111.02 665.924 111.26C666.307 111.497 666.599 111.813 666.799 112.21C667.002 112.607 667.104 113.04 667.104 113.51C667.104 113.977 667.002 114.407 666.799 114.8C666.599 115.193 666.307 115.508 665.924 115.745C665.54 115.982 665.077 116.1 664.534 116.1ZM664.534 115.08C664.95 115.08 665.27 114.935 665.494 114.645C665.72 114.352 665.834 113.973 665.834 113.51C665.834 113.04 665.72 112.658 665.494 112.365C665.27 112.068 664.95 111.92 664.534 111.92C664.12 111.92 663.8 112.068 663.574 112.365C663.347 112.658 663.234 113.04 663.234 113.51C663.234 113.973 663.347 114.352 663.574 114.645C663.8 114.935 664.12 115.08 664.534 115.08ZM669.247 116.1C668.95 116.1 668.707 116.042 668.517 115.925C668.33 115.805 668.192 115.647 668.102 115.45C668.012 115.25 667.967 115.03 667.967 114.79V108.5H669.207V114.28C669.207 114.547 669.222 114.737 669.252 114.85C669.285 114.96 669.345 115.027 669.432 115.05C669.518 115.07 669.643 115.08 669.807 115.08L669.697 116.1H669.247ZM672.7 116L674.54 113.17C674.783 112.797 674.978 112.482 675.125 112.225C675.275 111.968 675.383 111.743 675.45 111.55C675.516 111.357 675.55 111.167 675.55 110.98C675.55 110.693 675.468 110.468 675.305 110.305C675.145 110.142 674.92 110.06 674.63 110.06C674.28 110.06 673.965 110.147 673.685 110.32C673.408 110.493 673.16 110.69 672.94 110.91L672.78 109.62C673.08 109.38 673.398 109.193 673.735 109.06C674.075 108.927 674.46 108.86 674.89 108.86C675.313 108.86 675.665 108.947 675.945 109.12C676.228 109.293 676.44 109.523 676.58 109.81C676.72 110.097 676.79 110.41 676.79 110.75C676.79 111.013 676.753 111.278 676.68 111.545C676.606 111.808 676.485 112.102 676.315 112.425C676.148 112.745 675.923 113.12 675.64 113.55L674.82 114.8H677.04V116H672.7ZM681.113 116V114.4H677.623L681.473 109H682.343V113.36H683.243V114.4H682.343V116H681.113ZM679.303 113.78L679.063 113.36H681.113V110.38L681.443 110.74L679.303 113.78ZM684.334 116V108.5H685.574V111.73L685.294 111.51C685.504 111.363 685.732 111.228 685.979 111.105C686.225 110.982 686.52 110.92 686.864 110.92C687.304 110.92 687.662 111.018 687.939 111.215C688.215 111.408 688.419 111.678 688.549 112.025C688.679 112.368 688.744 112.767 688.744 113.22V116H687.504V113.31C687.504 112.843 687.429 112.498 687.279 112.275C687.129 112.052 686.884 111.94 686.544 111.94C686.254 111.94 686.015 112.008 685.829 112.145C685.645 112.278 685.484 112.46 685.344 112.69L685.574 112.02V116H684.334ZM689.731 112.36V111H691.031V112.36H689.731ZM689.731 116V114.64H691.031V116H689.731Z" fill="#91A6AF"/>
<path d="M696.534 116.14C696.251 116.14 695.959 116.112 695.659 116.055C695.359 116.002 695.081 115.937 694.824 115.86C694.568 115.78 694.364 115.703 694.214 115.63L694.364 114.27C694.598 114.383 694.841 114.488 695.094 114.585C695.348 114.682 695.608 114.76 695.874 114.82C696.141 114.88 696.411 114.91 696.684 114.91C697.024 114.91 697.298 114.843 697.504 114.71C697.711 114.577 697.814 114.373 697.814 114.1C697.814 113.89 697.756 113.722 697.639 113.595C697.523 113.465 697.344 113.35 697.104 113.25C696.864 113.147 696.558 113.03 696.184 112.9C695.811 112.77 695.476 112.623 695.179 112.46C694.883 112.293 694.648 112.083 694.474 111.83C694.301 111.577 694.214 111.253 694.214 110.86C694.214 110.473 694.309 110.13 694.499 109.83C694.689 109.527 694.973 109.29 695.349 109.12C695.729 108.947 696.201 108.86 696.764 108.86C697.191 108.86 697.598 108.908 697.984 109.005C698.371 109.098 698.701 109.2 698.974 109.31L698.844 110.62C698.451 110.443 698.081 110.31 697.734 110.22C697.391 110.127 697.041 110.08 696.684 110.08C696.311 110.08 696.023 110.142 695.819 110.265C695.616 110.388 695.514 110.573 695.514 110.82C695.514 111.017 695.571 111.175 695.684 111.295C695.798 111.415 695.959 111.518 696.169 111.605C696.379 111.688 696.631 111.777 696.924 111.87C697.431 112.03 697.856 112.207 698.199 112.4C698.546 112.59 698.806 112.822 698.979 113.095C699.156 113.365 699.244 113.7 699.244 114.1C699.244 114.3 699.213 114.518 699.149 114.755C699.086 114.988 698.961 115.21 698.774 115.42C698.588 115.63 698.314 115.803 697.954 115.94C697.598 116.073 697.124 116.14 696.534 116.14ZM696.384 117.44L696.484 115.66H697.264L697.364 117.44H696.384ZM696.484 109.27L696.384 107.56H697.364L697.264 109.27H696.484ZM699.975 116L701.815 113.17C702.058 112.797 702.253 112.482 702.4 112.225C702.55 111.968 702.658 111.743 702.725 111.55C702.792 111.357 702.825 111.167 702.825 110.98C702.825 110.693 702.743 110.468 702.58 110.305C702.42 110.142 702.195 110.06 701.905 110.06C701.555 110.06 701.24 110.147 700.96 110.32C700.683 110.493 700.435 110.69 700.215 110.91L700.055 109.62C700.355 109.38 700.673 109.193 701.01 109.06C701.35 108.927 701.735 108.86 702.165 108.86C702.588 108.86 702.94 108.947 703.22 109.12C703.503 109.293 703.715 109.523 703.855 109.81C703.995 110.097 704.065 110.41 704.065 110.75C704.065 111.013 704.028 111.278 703.955 111.545C703.882 111.808 703.76 112.102 703.59 112.425C703.423 112.745 703.198 113.12 702.915 113.55L702.095 114.8H704.315V116H699.975ZM706.268 116V110.81C706.138 110.893 706 110.967 705.853 111.03C705.71 111.093 705.555 111.14 705.388 111.17L705.278 110.09C705.421 110.06 705.581 109.988 705.758 109.875C705.935 109.762 706.098 109.628 706.248 109.475C706.398 109.318 706.505 109.16 706.568 109H707.548V116H706.268ZM708.98 116V114.64H710.28V116H708.98ZM711.506 116L714.126 109.71L714.486 110.2H711.166V109H715.766L712.846 116H711.506ZM719.062 116V114.4H715.572L719.422 109H720.292V113.36H721.192V114.4H720.292V116H719.062ZM717.252 113.78L717.012 113.36H719.062V110.38L719.392 110.74L717.252 113.78ZM722.483 116V109H725.123C725.8 109 726.301 109.145 726.628 109.435C726.958 109.722 727.123 110.14 727.123 110.69C727.123 111.1 727.03 111.443 726.843 111.72C726.66 111.993 726.383 112.193 726.013 112.32V112.08C726.573 112.2 726.991 112.42 727.268 112.74C727.545 113.06 727.683 113.483 727.683 114.01C727.683 114.64 727.48 115.13 727.073 115.48C726.666 115.827 726.11 116 725.403 116H722.483ZM723.763 114.86H725.213C725.563 114.86 725.841 114.788 726.048 114.645C726.258 114.502 726.363 114.243 726.363 113.87C726.363 113.49 726.253 113.232 726.033 113.095C725.813 112.958 725.54 112.89 725.213 112.89H723.763V114.86ZM723.763 111.75H724.933C725.243 111.75 725.475 111.687 725.628 111.56C725.785 111.433 725.863 111.23 725.863 110.95C725.863 110.66 725.785 110.453 725.628 110.33C725.475 110.203 725.243 110.14 724.933 110.14H723.763V111.75Z" fill="white"/>
<circle cx="648" cy="112" r="3.5" fill="#27AE60" stroke="white"/>
<defs>
<linearGradient id="paint0_linear_0_1" x1="537" y1="-234.832" x2="537" y2="173" gradientUnits="userSpaceOnUse">
<stop stop-color="#27AE60" stop-opacity="0.66"/>
<stop offset="1" stop-color="#27AE60" stop-opacity="0"/>
</linearGradient>
</defs>
</svg>
